SplineFontDB: 3.0
FontName: TengwarAnnatarGlaemscrafuItalic
FullName: Tengwar Annatar Glaemscrafu Italic
FamilyName: Tengwar Annatar Glaemscrafu
Weight: 

Copyright: Copyright (c) 2004-2005 by Johan Winge,\nModified by Talagan (Benjamin Babut) for Glaemscribe
Version: 1.20
ItalicAngle: 0
UnderlinePosition: -150
UnderlineWidth: 100
Ascent: 1638
Descent: 410
InvalidEm: 0
sfntRevision: 0x00013333
LayerCount: 2
Layer: 0 1 "Back" 1
Layer: 1 1 "Fore" 0
XUID: [1021 63 976991550 15441594]
FSType: 0
OS2Version: 1
OS2_WeightWidthSlopeOnly: 0
OS2_UseTypoMetrics: 1
CreationTime: 1107308935
ModificationTime: 1537603538
PfmFamily: 17
TTFWeight: 400
TTFWidth: 5
LineGap: 0
VLineGap: 0
Panose: 2 0 5 3 0 0 0 0 0 0
OS2TypoAscent: 1638
OS2TypoAOffset: 0
OS2TypoDescent: -410
OS2TypoDOffset: 0
OS2TypoLinegap: 0
OS2WinAscent: 2779
OS2WinAOffset: 0
OS2WinDescent: 2255
OS2WinDOffset: 0
HheadAscent: 2779
HheadAOffset: 0
HheadDescent: -2255
HheadDOffset: 0
OS2SubXSize: 1331
OS2SubYSize: 1433
OS2SubXOff: 0
OS2SubYOff: 286
OS2SupXSize: 1331
OS2SupYSize: 1433
OS2SupXOff: 0
OS2SupYOff: 983
OS2StrikeYSize: 102
OS2StrikeYPos: 530
OS2Vendor: 'PfEd'
OS2CodePages: 00000001.c0d40000
OS2UnicodeRanges: 8000002f.00000008.00000000.00000000
Lookup: 258 0 0 "'kern' Horizontal Kerning in Latin lookup 0" { "'kern' Horizontal Kerning in Latin lookup 0 subtable"  } ['kern' ('latn' <'dflt' > ) ]
MarkAttachClasses: 1
DEI: 91125
ShortTable: maxp 16
  1
  0
  215
  159
  3
  0
  0
  2
  0
  1
  1
  0
  64
  0
  0
  0
EndShort
LangName: 1033 "" "" "" "" "" "" "" "" "" "Johan Winge" "" "" "http://home.student.uu.se/jowi4905/fonts/"
GaspTable: 1 65535 2 0
Encoding: UnicodeBmp
UnicodeInterp: none
NameList: AGL For New Fonts
DisplaySize: -48
AntiAlias: 1
FitToEm: 1
WinInfo: 400 20 9
BeginPrivate: 0
EndPrivate
BeginChars: 65539 332

StartChar: exclam
Encoding: 33 33 4
Width: 1271
Flags: W
LayerCount: 2
Fore
SplineSet
-1642 -2254 m 0,0,1
 -1657 -2254 -1657 -2254 -1657 -2241 c 0,2,3
 -1657 -2204 -1657 -2204 -1573 -2131 c 2,4,-1
 -1519 -2081 l 2,5,6
 -1458 -2027 -1458 -2027 -1317 -1886 c 2,7,-1
 -1162 -1727 l 1,8,9
 -510 -1035 -510 -1035 -113 -235 c 0,10,11
 -57 -121 -57 -121 -6 -6 c 0,12,13
 66 155 66 155 153 403 c 2,14,-1
 375 1039 l 2,15,16
 627 1768 627 1768 911 2139 c 0,17,18
 1023 2286 1023 2286 1179 2425 c 0,19,20
 1239 2479 1239 2479 1278 2479 c 0,21,22
 1289 2477 1289 2477 1289 2465 c 0,23,24
 1289 2437 1289 2437 1216 2365 c 0,25,26
 1138 2288 1138 2288 1125 2274 c 0,27,28
 895 2023 895 2023 706 1575 c 1,29,-1
 642 1415 l 2,30,31
 590 1281 590 1281 482 964 c 2,32,-1
 358 607 l 1,33,-1
 354 597 l 1,34,35
 496 739 496 739 642 820 c 0,36,37
 766 888 766 888 860 888 c 0,38,39
 1003 888 1003 888 1091 784 c 0,40,41
 1167 694 1167 694 1169 562 c 0,42,43
 1171 384 1171 384 1030 217 c 0,44,45
 991 172 991 172 945 132 c 0,46,47
 776 -13 776 -13 620 -16 c 0,48,49
 460 -18 460 -18 460 90 c 0,50,51
 460 125 460 125 488 165 c 0,52,53
 528 221 528 221 597 221 c 0,54,55
 642 221 642 221 673 188 c 0,56,57
 700 160 700 160 715 153 c 0,58,59
 733 144 733 144 759 144 c 0,60,61
 917 144 917 144 972 292 c 0,62,63
 994 351 994 351 995 421 c 0,64,65
 997 571 997 571 893 662 c 0,66,67
 831 715 831 715 757 726 c 0,68,69
 745 728 745 728 722 728 c 0,70,71
 647 728 647 728 542 662 c 0,72,73
 364 551 364 551 263 338 c 0,74,75
 244 300 244 300 218 232 c 2,76,-1
 191 163 l 1,77,78
 -42 -406 -42 -406 -484 -1024 c 0,79,80
 -601 -1187 -601 -1187 -719 -1333 c 2,81,-1
 -833 -1470 l 1,82,-1
 -1066 -1731 l 1,83,-1
 -1110 -1777 l 1,84,85
 -1200 -1877 -1200 -1877 -1449 -2110 c 2,86,-1
 -1560 -2212 l 2,87,88
 -1610 -2254 -1610 -2254 -1642 -2254 c 0,0,1
EndSplineSet
Validated: 33
EndChar

StartChar: quotedbl
Encoding: 34 34 5
Width: 0
Flags: W
LayerCount: 2
Fore
SplineSet
-2086 -277 m 0,0,1
 -2086 -245 -2086 -245 -2024 -196 c 0,2,3
 -1983 -164 -1983 -164 -1966 -164 c 2,4,-1
 -1837 -186 l 2,5,6
 -1771 -194 -1771 -194 -1683 -198 c 0,7,8
 -1655 -199 -1655 -199 -1206 -199 c 0,9,10
 -720 -199 -720 -199 -634 -192 c 0,11,12
 -572 -187 -572 -187 -472 -168 c 0,13,14
 -454 -164 -454 -164 -449 -164 c 0,15,16
 -438 -164 -438 -164 -438 -176 c 0,17,18
 -440 -201 -440 -201 -482 -240 c 0,19,20
 -525 -280 -525 -280 -571 -289 c 0,21,22
 -695 -314 -695 -314 -813 -318 c 0,23,24
 -910 -322 -910 -322 -1317 -322 c 0,25,26
 -1790 -322 -1790 -322 -1850 -318 c 0,27,28
 -1901 -315 -1901 -315 -1961 -307 c 0,29,30
 -2076 -291 -2076 -291 -2084 -283 c 0,31,32
 -2086 -281 -2086 -281 -2086 -277 c 0,0,1
EndSplineSet
Validated: 1
EndChar

StartChar: numbersign
Encoding: 35 35 6
Width: 0
Flags: W
LayerCount: 2
Fore
SplineSet
-735 1303 m 0,0,1
 -755 1303 -755 1303 -762 1322 c 0,2,3
 -765 1329 -765 1329 -764 1337 c 2,4,-1
 -741 1545 l 1,5,6
 -711 1759 -711 1759 -637 1773 c 0,7,8
 -631 1774 -631 1774 -625 1774 c 0,9,10
 -596 1774 -596 1774 -575 1749 c 0,11,12
 -558 1727 -558 1727 -558 1693 c 0,13,14
 -558 1640 -558 1640 -667 1400 c 0,15,16
 -692 1345 -692 1345 -702 1328 c 0,17,18
 -716 1303 -716 1303 -735 1303 c 0,0,1
-968 1573 m 0,19,20
 -968 1621 -968 1621 -933 1636 c 0,21,22
 -922 1640 -922 1640 -907 1640 c 0,23,24
 -834 1638 -834 1638 -805 1490 c 0,25,26
 -795 1436 -795 1436 -795 1390 c 0,27,28
 -795 1190 -795 1190 -844 1190 c 0,29,30
 -868 1190 -868 1190 -876 1228 c 2,31,-1
 -899 1363 l 2,32,33
 -916 1445 -916 1445 -952 1519 c 0,34,35
 -968 1553 -968 1553 -968 1573 c 0,19,20
-576 1448 m 0,36,37
 -500 1541 -500 1541 -459 1547 c 0,38,39
 -454 1548 -454 1548 -444 1548 c 0,40,41
 -404 1546 -404 1546 -391 1509 c 0,42,43
 -387 1499 -387 1499 -387 1488 c 0,44,45
 -387 1449 -387 1449 -461 1383 c 2,46,-1
 -584 1276 l 2,47,48
 -615 1246 -615 1246 -640 1219 c 0,49,50
 -674 1186 -674 1186 -691 1183 c 0,51,52
 -713 1183 -713 1183 -717 1205 c 0,53,54
 -718 1207 -718 1207 -718 1210 c 0,55,56
 -719 1253 -719 1253 -606 1409 c 0,57,58
 -587 1434 -587 1434 -576 1448 c 0,36,37
EndSplineSet
Validated: 33
EndChar

StartChar: dollar
Encoding: 36 36 7
Width: 0
Flags: W
LayerCount: 2
Fore
SplineSet
-997 1105 m 0,0,1
 -1019 1105 -1019 1105 -1022 1127 c 0,2,3
 -1022 1145 -1022 1145 -972 1184 c 2,4,-1
 -892 1247 l 2,5,6
 -722 1384 -722 1384 -457 1573 c 0,7,8
 -221 1742 -221 1742 -191 1742 c 0,9,10
 -157 1742 -157 1742 -146 1713 c 0,11,12
 -142 1705 -142 1705 -142 1697 c 0,13,14
 -142 1670 -142 1670 -167 1648 c 0,15,16
 -250 1575 -250 1575 -649 1316 c 0,17,18
 -974 1105 -974 1105 -997 1105 c 0,0,1
EndSplineSet
Validated: 1
EndChar

StartChar: percent
Encoding: 37 37 8
Width: 0
Flags: W
LayerCount: 2
Fore
SplineSet
-736 1276 m 0,0,1
 -757 1276 -757 1276 -757 1301 c 0,2,3
 -757 1317 -757 1317 -694 1468 c 0,4,5
 -634 1612 -634 1612 -611 1633 c 0,6,7
 -592 1649 -592 1649 -572 1649 c 0,8,9
 -540 1649 -540 1649 -529 1618 c 0,10,11
 -527 1610 -527 1610 -527 1601 c 0,12,13
 -527 1563 -527 1563 -608 1442 c 2,14,-1
 -696 1312 l 2,15,16
 -717 1281 -717 1281 -727 1278 c 0,17,18
 -731 1276 -731 1276 -736 1276 c 0,0,1
EndSplineSet
Validated: 1
EndChar

StartChar: ampersand
Encoding: 38 38 9
Width: 0
Flags: W
LayerCount: 2
Fore
SplineSet
-497 1464 m 0,0,1
 -570 1464 -570 1464 -605 1527 c 0,2,3
 -623 1560 -623 1560 -623 1599 c 0,4,5
 -623 1694 -623 1694 -526 1792 c 0,6,7
 -434 1884 -434 1884 -327 1911 c 0,8,9
 -295 1919 -295 1919 -266 1919 c 0,10,11
 -143 1919 -143 1919 -80 1838 c 0,12,13
 -41 1787 -41 1787 -41 1717 c 0,14,15
 -41 1511 -41 1511 -393 1257 c 0,16,17
 -495 1184 -495 1184 -620 1112 c 2,18,-1
 -1006 900 l 2,19,20
 -1288 745 -1288 745 -1295 743 c 0,21,22
 -1303 741 -1303 741 -1308 741 c 0,23,24
 -1319 741 -1319 741 -1319 750 c 0,25,26
 -1319 773 -1319 773 -1280 812 c 0,27,28
 -1262 829 -1262 829 -1240 844 c 0,29,30
 -1238 846 -1238 846 -947 1006 c 0,31,32
 -578 1207 -578 1207 -486 1263 c 0,33,34
 -290 1384 -290 1384 -223 1479 c 0,35,36
 -210 1498 -210 1498 -200 1518 c 0,37,38
 -175 1567 -175 1567 -175 1614 c 0,39,40
 -175 1663 -175 1663 -208 1715 c 0,41,42
 -262 1797 -262 1797 -369 1797 c 0,43,44
 -437 1797 -437 1797 -466 1772 c 0,45,46
 -472 1767 -472 1767 -475 1761 c 0,47,48
 -490 1732 -490 1732 -490 1701 c 0,49,50
 -490 1637 -490 1637 -438 1603 c 0,51,52
 -414 1587 -414 1587 -389 1586 c 0,53,54
 -368 1585 -368 1585 -343 1601 c 0,55,56
 -331 1609 -331 1609 -319 1609 c 128,-1,57
 -307 1609 -307 1609 -307 1598 c 0,58,59
 -307 1566 -307 1566 -365 1520 c 0,60,61
 -436 1464 -436 1464 -497 1464 c 0,0,1
EndSplineSet
Validated: 1
EndChar

StartChar: quotesingle
Encoding: 39 39 10
Width: 0
Flags: W
LayerCount: 2
Fore
SplineSet
-1424 -276 m 0,0,1
 -1424 -245 -1424 -245 -1363 -197 c 0,2,3
 -1322 -164 -1322 -164 -1303 -164 c 0,4,5
 -1301 -164 -1301 -164 -1270 -175 c 0,6,7
 -1176 -203 -1176 -203 -1036 -198 c 0,8,9
 -1026 -198 -1026 -198 -1015 -198 c 0,10,11
 -945 -198 -945 -198 -863 -198 c 0,12,13
 -600 -198 -600 -198 -553 -191 c 0,14,15
 -520 -187 -520 -187 -479 -172 c 0,16,17
 -455 -164 -455 -164 -449 -164 c 0,18,19
 -438 -164 -438 -164 -438 -176 c 0,20,21
 -441 -207 -441 -207 -487 -245 c 0,22,23
 -553 -299 -553 -299 -665 -315 c 0,24,25
 -705 -321 -705 -321 -813 -321 c 0,26,27
 -852 -321 -852 -321 -975 -321 c 0,28,29
 -1058 -321 -1058 -321 -1128 -321 c 2,30,-1
 -1257 -321 l 1,31,32
 -1354 -313 -1354 -313 -1406 -291 c 0,33,34
 -1424 -283 -1424 -283 -1424 -276 c 0,0,1
EndSplineSet
Validated: 33
EndChar

StartChar: parenleft
Encoding: 40 40 11
Width: 0
Flags: W
LayerCount: 2
Fore
SplineSet
-1301 -772 m 0,0,1
 -1333 -772 -1333 -772 -1343 -740 c 0,2,3
 -1345 -732 -1345 -732 -1345 -723 c 0,4,5
 -1345 -683 -1345 -683 -1241 -542 c 2,6,-1
 -1165 -438 l 2,7,8
 -1138 -407 -1138 -407 -1124 -404 c 1,9,10
 -1106 -409 -1106 -409 -1103 -429 c 0,11,12
 -1103 -439 -1103 -439 -1128 -495 c 2,13,-1
 -1194 -639 l 2,14,15
 -1239 -734 -1239 -734 -1261 -755 c 0,16,17
 -1279 -772 -1279 -772 -1301 -772 c 0,0,1
EndSplineSet
Validated: 1
EndChar

StartChar: parenright
Encoding: 41 41 12
Width: 0
Flags: W
LayerCount: 2
Fore
SplineSet
489 2487 m 0,0,1
 680 2487 680 2487 782 2565 c 2,2,-1
 837 2609 l 2,3,4
 856 2621 856 2621 875 2621 c 0,5,6
 886 2621 886 2621 886 2612 c 0,7,8
 886 2590 886 2590 830 2536 c 0,9,10
 718 2430 718 2430 565 2388 c 0,11,12
 528 2378 528 2378 491 2373 c 0,13,14
 436 2365 436 2365 375 2365 c 0,15,16
 236 2365 236 2365 27 2407 c 0,17,18
 -178 2448 -178 2448 -281 2455 c 0,19,20
 -330 2459 -330 2459 -379 2459 c 0,21,22
 -574 2459 -574 2459 -682 2377 c 2,23,-1
 -736 2335 l 2,24,25
 -753 2325 -753 2325 -769 2325 c 0,26,27
 -779 2325 -779 2325 -779 2335 c 0,28,29
 -779 2364 -779 2364 -717 2419 c 0,30,31
 -602 2521 -602 2521 -436 2561 c 0,32,33
 -353 2582 -353 2582 -268 2582 c 0,34,35
 -138 2582 -138 2582 99 2537 c 0,36,37
 330 2494 330 2494 436 2489 c 0,38,39
 463 2487 463 2487 489 2487 c 0,0,1
EndSplineSet
Validated: 1
EndChar

StartChar: asterisk
Encoding: 42 42 13
Width: 854
Flags: W
LayerCount: 2
Fore
SplineSet
444 -16 m 0,0,1
 270 -18 270 -18 167 106 c 0,2,3
 78 213 78 213 78 368 c 0,4,5
 78 647 78 647 475 1189 c 0,6,7
 823 1665 823 1665 1362 2194 c 1,8,-1
 1428 2258 l 2,9,10
 1561 2388 1561 2388 1580 2405 c 0,11,12
 1711 2525 1711 2525 1751 2525 c 0,13,14
 1767 2525 1767 2525 1767 2512 c 0,15,16
 1767 2476 1767 2476 1680 2399 c 0,17,18
 1192 1954 1192 1954 809 1489 c 0,19,20
 384 973 384 973 282 661 c 0,21,22
 253 573 253 573 253 506 c 0,23,24
 253 348 253 348 348 244 c 0,25,26
 439 144 439 144 579 144 c 0,27,28
 715 144 715 144 834 190 c 0,29,30
 900 216 900 216 943 253 c 0,31,32
 1004 307 1004 307 1038 307 c 0,33,34
 1053 307 1053 307 1053 294 c 0,35,36
 1053 262 1053 262 986 198 c 0,37,38
 867 82 867 82 689 24 c 0,39,40
 570 -14 570 -14 444 -16 c 0,0,1
EndSplineSet
Validated: 33
EndChar

StartChar: plus
Encoding: 43 43 14
Width: 958
Flags: W
LayerCount: 2
Fore
SplineSet
-596 12 m 0,0,1
 -652 12 -652 12 -657 19 c 0,2,3
 -659 22 -659 22 -659 28 c 0,4,5
 -659 67 -659 67 -591 120 c 0,6,7
 -555 148 -555 148 -532 154 c 0,8,9
 -518 156 -518 156 -475 156 c 0,10,11
 -251 156 -251 156 46 131 c 0,12,13
 175 120 175 120 229 109 c 0,14,15
 429 71 429 71 535 -73 c 0,16,17
 610 -176 610 -176 610 -295 c 0,18,19
 610 -417 610 -417 516 -542 c 0,20,21
 415 -676 415 -676 268 -727 c 0,22,23
 198 -751 198 -751 127 -751 c 0,24,25
 12 -751 12 -751 -86 -688 c 0,26,27
 -197 -615 -197 -615 -209 -499 c 0,28,29
 -210 -490 -210 -490 -210 -481 c 0,30,31
 -210 -409 -210 -409 -142 -329 c 0,32,33
 -83 -261 -83 -261 -30 -254 c 0,34,35
 -10 -254 -10 -254 -10 -269 c 0,36,37
 -10 -289 -10 -289 -30 -313 c 0,38,39
 -54 -340 -54 -340 -54 -371 c 0,40,41
 -54 -444 -54 -444 15 -514 c 0,42,43
 104 -603 104 -603 234 -608 c 0,44,45
 241 -608 241 -608 247 -608 c 0,46,47
 452 -608 452 -608 454 -406 c 0,48,49
 454 -403 454 -403 454 -401 c 0,50,51
 454 -283 454 -283 365 -181 c 0,52,53
 265 -65 265 -65 99 -33 c 0,54,55
 -21 -8 -21 -8 -424 8 c 0,56,57
 -532 12 -532 12 -596 12 c 0,0,1
EndSplineSet
Validated: 1
EndChar

StartChar: comma
Encoding: 44 44 15
Width: 819
Flags: W
LayerCount: 2
Fore
SplineSet
-227 575 m 0,0,1
 -243 575 -243 575 -243 588 c 0,2,3
 -243 627 -243 627 -136 719 c 0,4,5
 -35 806 -35 806 63 855 c 0,6,7
 175 912 175 912 321 921 c 0,8,9
 336 922 336 922 352 923 c 2,10,-1
 413 923 l 2,11,12
 462 923 462 923 493 916 c 0,13,14
 617 889 617 889 690 782 c 0,15,16
 749 696 749 696 749 593 c 0,17,18
 749 457 749 457 608 309 c 0,19,20
 520 216 520 216 381 129 c 1,21,22
 520 52 520 52 526 -117 c 0,23,24
 527 -124 527 -124 527 -131 c 0,25,26
 527 -295 527 -295 382 -533 c 0,27,28
 286 -693 286 -693 135 -863 c 0,29,30
 -162 -1196 -162 -1196 -597 -1512 c 0,31,32
 -761 -1631 -761 -1631 -884 -1704 c 0,33,34
 -910 -1718 -910 -1718 -925 -1718 c 128,-1,35
 -940 -1718 -940 -1718 -940 -1703 c 0,36,37
 -938 -1670 -938 -1670 -879 -1617 c 0,38,39
 -850 -1591 -850 -1591 -813 -1567 c 0,40,41
 -256 -1214 -256 -1214 66 -830 c 0,42,43
 299 -553 299 -553 343 -342 c 0,44,45
 352 -300 352 -300 352 -264 c 0,46,47
 352 -142 352 -142 274 -67 c 0,48,49
 213 -7 213 -7 127 -7 c 0,50,51
 69 -7 69 -7 26 -38 c 0,52,53
 -15 -68 -15 -68 -37 -75 c 2,54,-1
 -51 -79 l 1,55,56
 -69 -79 -69 -79 -69 -64 c 0,57,58
 -69 -37 -69 -37 -18 15 c 0,59,60
 63 98 63 98 194 143 c 0,61,62
 356 198 356 198 470 280 c 0,63,64
 506 306 506 306 525 328 c 0,65,66
 575 384 575 384 575 460 c 0,67,68
 575 583 575 583 491 670 c 0,69,70
 401 763 401 763 259 763 c 0,71,72
 152 763 152 763 109 755 c 0,73,74
 -14 734 -14 734 -118 640 c 0,75,76
 -192 575 -192 575 -227 575 c 0,0,1
EndSplineSet
Validated: 1
EndChar

StartChar: hyphen
Encoding: 45 45 16
Width: 540
Flags: W
LayerCount: 2
Fore
SplineSet
246 697 m 4,0,1
 246 755 246 755 297 785 c 4,2,3
 319 798 319 798 341 798 c 4,4,5
 421 798 421 798 443 733 c 4,6,7
 448 716 448 716 448 698 c 4,8,9
 448 637 448 637 400 609 c 4,10,11
 376 596 376 596 347 596 c 4,12,13
 286 596 286 596 258 648 c 4,14,15
 246 671 246 671 246 697 c 4,0,1
72 174 m 4,16,17
 72 207 72 207 96 239 c 4,18,19
 125 276 125 276 172 276 c 4,20,21
 239 276 239 276 264 222 c 4,22,23
 274 201 274 201 274 175 c 4,24,25
 274 110 274 110 221 85 c 4,26,27
 199 74 199 74 173 74 c 4,28,29
 111 74 111 74 84 126 c 4,30,31
 72 148 72 148 72 174 c 4,16,17
EndSplineSet
Validated: 1
EndChar

StartChar: period
Encoding: 46 46 17
Width: 974
Flags: W
LayerCount: 2
Fore
SplineSet
17 328 m 0,0,1
 17 513 17 513 170 674 c 0,2,3
 294 803 294 803 457 860 c 0,4,5
 539 888 539 888 610 888 c 0,6,7
 761 888 761 888 848 778 c 0,8,9
 921 685 921 685 921 546 c 0,10,11
 921 359 921 359 766 196 c 0,12,13
 683 110 683 110 575 52 c 0,14,15
 446 -16 446 -16 314 -16 c 0,16,17
 175 -16 175 -16 91 93 c 0,18,19
 17 188 17 188 17 328 c 0,0,1
191 459 m 0,20,21
 191 320 191 320 275 227 c 0,22,23
 351 143 351 143 458 143 c 0,24,25
 542 143 542 143 617 174 c 0,26,27
 657 189 657 189 679 211 c 0,28,29
 739 269 739 269 746 394 c 0,30,31
 747 405 747 405 747 414 c 0,32,33
 747 560 747 560 660 650 c 0,34,35
 585 728 585 728 472 728 c 0,36,37
 399 728 399 728 323 699 c 0,38,39
 269 678 269 678 247 647 c 0,40,41
 191 571 191 571 191 459 c 0,20,21
EndSplineSet
Validated: 1
EndChar

StartChar: slash
Encoding: 47 47 18
Width: 0
Flags: W
LayerCount: 2
Fore
SplineSet
-2575 -2049 m 0,0,1
 -2510 -2049 -2510 -2049 -2386 -2074 c 0,2,3
 -2288 -2094 -2288 -2094 -2220 -2094 c 0,4,5
 -2131 -2094 -2131 -2094 -2090 -2058 c 0,6,7
 -2065 -2037 -2065 -2037 -2054 -2034 c 0,8,9
 -2045 -2031 -2045 -2031 -2033 -2031 c 0,10,11
 -2023 -2031 -2023 -2031 -2023 -2039 c 0,12,13
 -2023 -2062 -2023 -2062 -2067 -2107 c 0,14,15
 -2157 -2200 -2157 -2200 -2289 -2214 c 0,16,17
 -2309 -2216 -2309 -2216 -2330 -2216 c 0,18,19
 -2398 -2216 -2398 -2216 -2535 -2191 c 0,20,21
 -2632 -2172 -2632 -2172 -2692 -2172 c 0,22,23
 -2776 -2172 -2776 -2172 -2823 -2210 c 0,24,25
 -2850 -2232 -2850 -2232 -2863 -2235 c 0,26,27
 -2869 -2236 -2869 -2236 -2876 -2236 c 0,28,29
 -2887 -2236 -2887 -2236 -2887 -2226 c 0,30,31
 -2887 -2202 -2887 -2202 -2839 -2156 c 0,32,33
 -2746 -2067 -2746 -2067 -2619 -2052 c 0,34,35
 -2597 -2049 -2597 -2049 -2575 -2049 c 0,0,1
EndSplineSet
Validated: 1
EndChar

StartChar: zero
Encoding: 48 48 19
Width: 0
Flags: W
LayerCount: 2
Fore
SplineSet
616 2469 m 0,0,1
 710 2469 710 2469 772 2515 c 0,2,3
 804 2538 804 2538 817 2540 c 0,4,5
 820 2541 820 2541 823 2541 c 0,6,7
 834 2541 834 2541 834 2531 c 0,8,9
 834 2506 834 2506 783 2458 c 0,10,11
 688 2368 688 2368 557 2350 c 0,12,13
 530 2346 530 2346 503 2346 c 0,14,15
 437 2346 437 2346 285 2374 c 0,16,17
 167 2396 167 2396 102 2396 c 0,18,19
 7 2396 7 2396 -57 2350 c 0,20,21
 -94 2326 -94 2326 -106 2325 c 0,22,23
 -118 2325 -118 2325 -118 2335 c 0,24,25
 -118 2360 -118 2360 -68 2408 c 0,26,27
 28 2498 28 2498 158 2515 c 0,28,29
 185 2519 185 2519 211 2519 c 0,30,31
 284 2519 284 2519 426 2492 c 0,32,33
 542 2469 542 2469 616 2469 c 0,0,1
EndSplineSet
Validated: 1
EndChar

StartChar: one
Encoding: 49 49 20
Width: 1271
Flags: W
LayerCount: 2
Fore
SplineSet
-174 675 m 0,0,1
 -174 704 -174 704 -120 759 c 0,2,3
 -20 861 -20 861 126 894 c 0,4,5
 168 904 168 904 212 906 c 0,6,7
 288 910 288 910 323 883 c 0,8,9
 348 865 348 865 367 828 c 0,10,11
 390 783 390 783 390 726 c 0,12,13
 390 668 390 668 367 599 c 1,14,15
 368 599 368 599 399 628 c 0,16,17
 456 684 456 684 548 751 c 0,18,19
 743 886 743 886 875 889 c 0,20,21
 999 889 999 889 1086 799 c 0,22,23
 1179 704 1179 704 1179 552 c 0,24,25
 1179 414 1179 414 1074 262 c 128,-1,26
 969 110 969 110 821 35 c 0,27,28
 721 -16 721 -16 623 -16 c 0,29,30
 480 -16 480 -16 471 77 c 0,31,32
 470 83 470 83 470 89 c 0,33,34
 470 133 470 133 502 173 c 0,35,36
 539 219 539 219 605 221 c 0,37,38
 652 222 652 222 685 189 c 0,39,40
 712 160 712 160 724 154 c 0,41,42
 743 144 743 144 770 144 c 0,43,44
 917 144 917 144 977 283 c 0,45,46
 1005 348 1005 348 1005 421 c 0,47,48
 1005 563 1005 563 913 653 c 0,49,50
 836 728 836 728 733 728 c 0,51,52
 588 728 588 728 434 563 c 0,53,54
 318 437 318 437 242 266 c 0,55,56
 83 -93 83 -93 -211 -565 c 0,57,58
 -639 -1253 -639 -1253 -1111 -1768 c 1,59,-1
 -1205 -1869 l 2,60,61
 -1275 -1946 -1275 -1946 -1462 -2122 c 0,62,63
 -1537 -2193 -1537 -2193 -1564 -2215 c 0,64,65
 -1613 -2255 -1613 -2255 -1642 -2255 c 0,66,67
 -1657 -2255 -1657 -2255 -1657 -2241 c 0,68,69
 -1657 -2213 -1657 -2213 -1595 -2152 c 2,70,-1
 -1409 -1974 l 1,71,-1
 -1385 -1951 l 1,72,73
 -671 -1239 -671 -1239 -60 -103 c 0,74,75
 134 257 134 257 195 478 c 0,76,77
 216 551 216 551 216 595 c 0,78,79
 216 669 216 669 175 713 c 0,80,81
 143 746 143 746 93 746 c 0,82,83
 -16 746 -16 746 -91 695 c 0,84,85
 -131 667 -131 667 -142 664 c 0,86,87
 -150 662 -150 662 -158 662 c 0,88,89
 -174 662 -174 662 -174 675 c 0,0,1
EndSplineSet
Validated: 33
EndChar

StartChar: two
Encoding: 50 50 21
Width: 1921
Flags: W
LayerCount: 2
Fore
SplineSet
-174 675 m 0,0,1
 -174 703 -174 703 -121 758 c 0,2,3
 -22 861 -22 861 122 894 c 0,4,5
 166 904 166 904 212 906 c 0,6,7
 358 912 358 912 385 780 c 0,8,9
 390 755 390 755 390 726 c 0,10,11
 390 679 390 679 378 636 c 0,12,13
 376 631 376 631 375 628 c 2,14,-1
 375 627 l 2,15,16
 378 627 378 627 431 678 c 0,17,18
 648 888 648 888 817 888 c 0,19,20
 952 888 952 888 1030 767 c 0,21,22
 1077 695 1077 695 1089 600 c 1,23,24
 1351 888 1351 888 1554 888 c 0,25,26
 1647 888 1647 888 1723 815 c 0,27,28
 1793 747 1793 747 1815 640 c 0,29,30
 1823 603 1823 603 1823 558 c 0,31,32
 1823 387 1823 387 1691 220 c 0,33,34
 1584 84 1584 84 1445 20 c 0,35,36
 1367 -17 1367 -17 1300 -17 c 0,37,38
 1187 -17 1187 -17 1155 44 c 0,39,40
 1144 64 1144 64 1144 90 c 0,41,42
 1144 156 1144 156 1205 197 c 0,43,44
 1241 221 1241 221 1278 221 c 0,45,46
 1326 221 1326 221 1359 187 c 0,47,48
 1388 158 1388 158 1402 152 c 0,49,50
 1420 143 1420 143 1444 143 c 0,51,52
 1535 143 1535 143 1575 202 c 0,53,54
 1648 304 1648 304 1648 435 c 0,55,56
 1648 536 1648 536 1588 624 c 0,57,58
 1515 729 1515 729 1405 729 c 0,59,60
 1291 729 1291 729 1183 594 c 0,61,62
 1168 575 1168 575 1154 554 c 0,63,64
 1111 491 1111 491 1051 370 c 0,65,66
 997 262 997 262 933 190 c 2,67,-1
 910 165 l 1,68,69
 738 -16 738 -16 569 -16 c 1,70,71
 416 -10 416 -10 411 89 c 0,72,73
 411 124 411 124 439 164 c 0,74,75
 477 219 477 219 544 221 c 0,76,77
 591 222 591 222 626 188 c 0,78,79
 655 159 655 159 668 152 c 0,80,81
 686 143 686 143 709 143 c 0,82,83
 769 143 769 143 814 171 c 0,84,85
 847 192 847 192 880 269 c 0,86,87
 916 351 916 351 916 432 c 0,88,89
 916 609 916 609 787 690 c 0,90,91
 725 729 725 729 671 729 c 0,92,93
 527 729 527 729 371 500 c 0,94,95
 301 397 301 397 244 270 c 0,96,97
 81 -95 81 -95 -213 -568 c 0,98,99
 -641 -1255 -641 -1255 -1111 -1768 c 1,100,-1
 -1205 -1869 l 2,101,102
 -1275 -1946 -1275 -1946 -1462 -2122 c 0,103,104
 -1537 -2193 -1537 -2193 -1564 -2215 c 0,105,106
 -1613 -2255 -1613 -2255 -1642 -2255 c 0,107,108
 -1657 -2255 -1657 -2255 -1657 -2241 c 0,109,110
 -1657 -2213 -1657 -2213 -1595 -2152 c 2,111,-1
 -1409 -1974 l 1,112,-1
 -1385 -1951 l 1,113,114
 -671 -1239 -671 -1239 -60 -103 c 0,115,116
 134 257 134 257 195 478 c 0,117,118
 216 551 216 551 216 595 c 0,119,120
 216 669 216 669 175 713 c 0,121,122
 143 746 143 746 93 746 c 0,123,124
 -16 746 -16 746 -91 695 c 0,125,126
 -131 667 -131 667 -142 664 c 0,127,128
 -150 662 -150 662 -158 662 c 0,129,130
 -174 662 -174 662 -174 675 c 0,0,1
EndSplineSet
Validated: 33
EndChar

StartChar: three
Encoding: 51 51 22
Width: 1259
Flags: W
LayerCount: 2
Fore
SplineSet
-19 -16 m 0,0,1
 -35 -16 -35 -16 -35 -3 c 0,2,3
 -35 14 -35 14 -16 36 c 0,4,5
 43 101 43 101 93 217 c 0,6,7
 132 307 132 307 173 436 c 0,8,9
 395 1137 395 1137 451 1290 c 0,10,11
 485 1381 485 1381 533 1490 c 0,12,13
 738 1958 738 1958 1025 2272 c 0,14,15
 1214 2478 1214 2478 1276 2478 c 0,16,17
 1290 2478 1290 2478 1290 2465 c 0,18,19
 1290 2436 1290 2436 1222 2368 c 0,20,21
 1124 2271 1124 2271 1116 2263 c 2,22,-1
 1094 2238 l 2,23,24
 925 2045 925 2045 803 1806 c 0,25,26
 617 1444 617 1444 401 730 c 1,27,-1
 361 607 l 2,28,29
 360 602 360 602 360 597 c 1,30,-1
 360 597 l 1,31,32
 364 597 364 597 421 651 c 0,33,34
 675 888 675 888 868 888 c 0,35,36
 1002 888 1002 888 1089 791 c 0,37,38
 1173 698 1173 698 1173 557 c 0,39,40
 1173 389 1173 389 1044 227 c 0,41,42
 932 88 932 88 783 22 c 0,43,44
 696 -16 696 -16 617 -16 c 0,45,46
 485 -16 485 -16 467 67 c 0,47,48
 464 78 464 78 464 89 c 0,49,50
 464 141 464 141 508 183 c 0,51,52
 547 221 547 221 597 221 c 0,53,54
 645 221 645 221 677 188 c 0,55,56
 705 160 705 160 718 154 c 0,57,58
 738 144 738 144 766 144 c 0,59,60
 896 144 896 144 953 248 c 0,61,62
 963 267 963 267 973 292 c 0,63,64
 999 359 999 359 999 426 c 0,65,66
 999 572 999 572 895 662 c 0,67,68
 832 716 832 716 757 727 c 0,69,70
 746 728 746 728 726 728 c 0,71,72
 568 728 568 728 401 527 c 0,73,74
 306 412 306 412 236 267 c 0,75,76
 151 89 151 89 49 14 c 0,77,78
 8 -16 8 -16 -19 -16 c 0,0,1
EndSplineSet
Validated: 5
EndChar

StartChar: four
Encoding: 52 52 23
Width: 1914
Flags: W
LayerCount: 2
Fore
SplineSet
-19 -16 m 0,0,1
 -35 -16 -35 -16 -35 -3 c 0,2,3
 -35 14 -35 14 -16 36 c 0,4,5
 43 101 43 101 93 217 c 0,6,7
 132 307 132 307 173 436 c 0,8,9
 395 1137 395 1137 451 1290 c 0,10,11
 485 1381 485 1381 533 1490 c 0,12,13
 738 1958 738 1958 1025 2272 c 0,14,15
 1214 2478 1214 2478 1276 2478 c 0,16,17
 1290 2478 1290 2478 1290 2465 c 0,18,19
 1290 2436 1290 2436 1222 2368 c 0,20,21
 1124 2271 1124 2271 1116 2263 c 2,22,-1
 1094 2238 l 2,23,24
 925 2045 925 2045 803 1806 c 0,25,26
 617 1444 617 1444 401 730 c 2,27,-1
 369 625 l 1,28,-1
 393 649 l 2,29,30
 632 888 632 888 809 888 c 0,31,32
 940 888 940 888 1020 772 c 0,33,34
 1071 696 1071 696 1082 599 c 1,35,36
 1175 708 1175 708 1293 790 c 0,37,38
 1434 889 1434 889 1541 889 c 0,39,40
 1645 889 1645 889 1723 809 c 0,41,42
 1788 742 1788 742 1809 637 c 0,43,44
 1817 604 1817 604 1817 562 c 0,45,46
 1817 389 1817 389 1686 222 c 0,47,48
 1580 85 1580 85 1441 20 c 0,49,50
 1363 -16 1363 -16 1295 -16 c 0,51,52
 1155 -16 1155 -16 1140 71 c 0,53,54
 1138 80 1138 80 1138 89 c 0,55,56
 1138 145 1138 145 1185 187 c 0,57,58
 1223 221 1223 221 1273 221 c 0,59,60
 1319 221 1319 221 1352 188 c 0,61,62
 1381 159 1381 159 1395 152 c 0,63,64
 1413 144 1413 144 1438 144 c 0,65,66
 1527 144 1527 144 1566 198 c 0,67,68
 1641 301 1641 301 1642 429 c 0,69,70
 1642 580 1642 580 1532 679 c 0,71,72
 1476 729 1476 729 1398 729 c 0,73,74
 1299 729 1299 729 1202 624 c 0,75,76
 1135 552 1135 552 1067 418 c 0,77,78
 1004 293 1004 293 972 248 c 0,79,80
 963 235 963 235 954 224 c 0,81,82
 801 27 801 27 621 -10 c 0,83,84
 588 -16 588 -16 558 -16 c 0,85,86
 434 -16 434 -16 408 58 c 0,87,88
 403 73 403 73 403 89 c 0,89,90
 403 141 403 141 447 183 c 0,91,92
 486 221 486 221 540 221 c 0,93,94
 587 221 587 221 619 187 c 0,95,96
 646 159 646 159 658 153 c 0,97,98
 676 143 676 143 701 143 c 0,99,100
 773 143 773 143 813 176 c 0,101,102
 818 179 818 179 821 183 c 0,103,104
 902 276 902 276 909 414 c 1,105,-1
 909 430 l 2,106,107
 909 565 909 565 823 655 c 0,108,109
 767 715 767 715 694 727 c 0,110,111
 683 728 683 728 664 728 c 0,112,113
 459 728 459 728 233 262 c 0,114,115
 153 97 153 97 53 18 c 0,116,117
 9 -16 9 -16 -19 -16 c 0,0,1
EndSplineSet
Validated: 1
EndChar

StartChar: five
Encoding: 53 53 24
Width: 1910
Flags: W
LayerCount: 2
Fore
SplineSet
-174 675 m 0,0,1
 -174 705 -174 705 -119 761 c 0,2,3
 -16 862 -16 862 135 895 c 0,4,5
 174 903 174 903 214 906 c 2,6,-1
 243 906 l 2,7,8
 330 906 330 906 368 825 c 0,9,10
 389 781 389 781 389 723 c 0,11,12
 389 674 389 674 378 634 c 0,13,14
 377 630 377 630 376 628 c 1,15,16
 378 628 378 628 430 678 c 0,17,18
 621 863 621 863 776 886 c 0,19,20
 790 888 790 888 815 888 c 0,21,22
 946 888 946 888 1025 771 c 0,23,24
 1076 696 1076 696 1087 599 c 1,25,26
 1209 740 1209 740 1342 820 c 0,27,28
 1456 889 1456 889 1549 889 c 0,29,30
 1654 889 1654 889 1732 804 c 0,31,32
 1794 738 1794 738 1815 637 c 0,33,34
 1822 604 1822 604 1822 564 c 0,35,36
 1822 387 1822 387 1690 220 c 0,37,38
 1582 82 1582 82 1441 19 c 0,39,40
 1363 -16 1363 -16 1295 -16 c 0,41,42
 1169 -16 1169 -16 1147 62 c 0,43,44
 1143 75 1143 75 1143 90 c 0,45,46
 1143 142 1143 142 1186 183 c 0,47,48
 1225 221 1225 221 1279 221 c 0,49,50
 1326 221 1326 221 1359 187 c 0,51,52
 1387 158 1387 158 1399 152 c 0,53,54
 1417 143 1417 143 1441 143 c 0,55,56
 1513 143 1513 143 1552 178 c 0,57,58
 1565 189 1565 189 1576 204 c 0,59,60
 1647 306 1647 306 1647 430 c 0,61,62
 1647 579 1647 579 1545 670 c 0,63,64
 1518 695 1518 695 1491 708 c 0,65,66
 1449 729 1449 729 1404 729 c 0,67,68
 1250 729 1250 729 1107 481 c 0,69,70
 1091 453 1091 453 1035 343 c 0,71,72
 1011 296 1011 296 980 252 c 0,73,74
 897 136 897 136 785 61 c 0,75,76
 694 -1 694 -1 605 -14 c 0,77,78
 592 -16 592 -16 564 -16 c 0,79,80
 427 -16 427 -16 412 71 c 0,81,82
 410 80 410 80 410 90 c 0,83,84
 410 141 410 141 454 184 c 0,85,86
 492 221 492 221 543 221 c 0,87,88
 589 221 589 221 627 185 c 0,89,90
 658 155 658 155 673 149 c 0,91,92
 686 144 686 144 701 144 c 0,93,94
 705 144 705 144 710 144 c 0,95,96
 799 144 799 144 843 205 c 0,97,98
 855 220 855 220 871 251 c 0,99,100
 914 338 914 338 914 430 c 0,101,102
 914 552 914 552 843 640 c 0,103,104
 814 676 814 676 776 698 c 0,105,106
 725 729 725 729 669 729 c 0,107,108
 526 729 526 729 367 486 c 0,109,110
 329 428 329 428 225 241 c 0,111,112
 181 161 181 161 157 129 c 0,113,114
 65 6 65 6 -3 -14 c 0,115,116
 -12 -16 -12 -16 -20 -16 c 0,117,118
 -36 -16 -36 -16 -36 -3 c 0,119,120
 -36 17 -36 17 15 78 c 0,121,122
 32 98 32 98 37 106 c 0,123,124
 123 234 123 234 183 435 c 0,125,126
 215 540 215 540 215 590 c 0,127,128
 215 689 215 689 154 729 c 0,129,130
 128 747 128 747 94 747 c 0,131,132
 -15 747 -15 747 -90 695 c 0,133,134
 -131 667 -131 667 -143 664 c 0,135,136
 -150 662 -150 662 -158 662 c 0,137,138
 -174 662 -174 662 -174 675 c 0,0,1
EndSplineSet
Validated: 1
EndChar

StartChar: six
Encoding: 54 54 25
Width: 1261
Flags: W
LayerCount: 2
Fore
SplineSet
-174 675 m 0,0,1
 -174 705 -174 705 -119 761 c 0,2,3
 -16 862 -16 862 135 895 c 0,4,5
 174 903 174 903 214 906 c 2,6,-1
 243 906 l 2,7,8
 330 906 330 906 368 825 c 0,9,10
 389 781 389 781 389 723 c 0,11,12
 389 682 389 682 369 598 c 1,13,-1
 393 621 l 2,14,15
 503 731 503 731 634 808 c 0,16,17
 771 889 771 889 872 889 c 0,18,19
 1018 889 1018 889 1110 768 c 0,20,21
 1127 745 1127 745 1139 722 c 0,22,23
 1178 648 1178 648 1178 567 c 0,24,25
 1178 376 1178 376 1032 207 c 0,26,27
 962 126 962 126 870 66 c 0,28,29
 745 -16 745 -16 622 -16 c 0,30,31
 495 -16 495 -16 473 62 c 0,32,33
 470 75 470 75 470 89 c 0,34,35
 470 144 470 144 515 186 c 0,36,37
 554 221 554 221 605 221 c 0,38,39
 651 221 651 221 685 187 c 0,40,41
 714 158 714 158 727 151 c 0,42,43
 744 144 744 144 765 144 c 0,44,45
 923 144 923 144 980 290 c 0,46,47
 1004 352 1004 352 1004 426 c 0,48,49
 1004 575 1004 575 893 667 c 0,50,51
 867 689 867 689 841 702 c 0,52,53
 786 729 786 729 729 729 c 0,54,55
 637 729 637 729 534 653 c 0,56,57
 515 638 515 638 492 619 c 0,58,59
 389 534 389 534 290 358 c 2,60,-1
 194 186 l 2,61,62
 175 153 175 153 157 129 c 0,63,64
 65 6 65 6 -3 -14 c 0,65,66
 -12 -16 -12 -16 -20 -16 c 0,67,68
 -36 -16 -36 -16 -36 -3 c 0,69,70
 -36 17 -36 17 15 78 c 0,71,72
 32 98 32 98 37 106 c 0,73,74
 123 234 123 234 183 435 c 0,75,76
 215 540 215 540 215 590 c 0,77,78
 215 689 215 689 154 729 c 0,79,80
 128 747 128 747 94 747 c 0,81,82
 -15 747 -15 747 -90 695 c 0,83,84
 -131 667 -131 667 -143 664 c 0,85,86
 -150 662 -150 662 -158 662 c 0,87,88
 -174 662 -174 662 -174 675 c 0,0,1
EndSplineSet
Validated: 1
EndChar

StartChar: seven
Encoding: 55 55 26
Width: 1028
Flags: W
LayerCount: 2
Fore
SplineSet
369 740 m 1,0,1
 423 794 423 794 522 845 c 0,2,3
 639 906 639 906 733 906 c 0,4,5
 882 906 882 906 912 807 c 0,6,7
 921 777 921 777 921 734 c 0,8,9
 921 524 921 524 609 -6 c 0,10,11
 132 -815 132 -815 -702 -1602 c 2,12,-1
 -841 -1733 l 2,13,14
 -938 -1819 -938 -1819 -978 -1819 c 0,15,16
 -991 -1819 -991 -1819 -991 -1806 c 0,17,18
 -991 -1772 -991 -1772 -900 -1690 c 0,19,20
 -35 -908 -35 -908 448 -91 c 1,21,-1
 463 -66 l 1,22,23
 351 36 351 36 288 257 c 1,24,-1
 218 530 l 1,25,26
 175 673 175 673 109 712 c 0,27,28
 100 718 100 718 89 722 c 0,29,30
 70 728 70 728 55 728 c 0,31,32
 51 728 51 728 46 728 c 0,33,34
 -19 728 -19 728 -89 679 c 0,35,36
 -134 647 -134 647 -151 645 c 0,37,38
 -154 644 -154 644 -158 644 c 0,39,40
 -174 644 -174 644 -174 657 c 0,41,42
 -174 699 -174 699 -94 766 c 0,43,44
 9 852 9 852 122 879 c 0,45,46
 158 888 158 888 190 888 c 0,47,48
 289 888 289 888 349 781 c 0,49,50
 359 763 359 763 369 740 c 1,0,1
747 604 m 0,51,52
 747 725 747 725 632 743 c 0,53,54
 608 746 608 746 579 746 c 0,55,56
 489 747 489 747 394 669 c 1,57,58
 474 338 474 338 516 244 c 0,59,60
 541 189 541 189 579 141 c 1,61,62
 629 217 629 217 691 383 c 0,63,64
 747 534 747 534 747 604 c 0,51,52
EndSplineSet
Validated: 33
EndChar

StartChar: eight
Encoding: 56 56 27
Width: 1132
Flags: W
LayerCount: 2
Fore
SplineSet
454 -16 m 0,0,1
 297 -16 297 -16 198 102 c 0,2,3
 105 213 105 213 105 380 c 0,4,5
 105 554 105 554 289 868 c 0,6,7
 389 1039 389 1039 536 1235 c 2,8,-1
 600 1319 l 2,9,10
 869 1666 869 1666 1210 2015 c 0,11,12
 1632 2447 1632 2447 1741 2512 c 0,13,14
 1757 2524 1757 2524 1777 2525 c 0,15,16
 1792 2525 1792 2525 1792 2511 c 0,17,18
 1792 2482 1792 2482 1736 2427 c 2,19,-1
 1487 2192 l 1,20,-1
 1236 1939 l 1,21,22
 758 1437 758 1437 501 1037 c 0,23,24
 279 693 279 693 279 501 c 0,25,26
 279 354 279 354 374 247 c 0,27,28
 443 169 443 169 534 150 c 0,29,30
 564 144 564 144 599 144 c 0,31,32
 686 144 686 144 767 175 c 0,33,34
 814 193 814 193 839 218 c 0,35,36
 891 271 891 271 903 373 c 0,37,38
 905 389 905 389 905 402 c 0,39,40
 905 464 905 464 864 517 c 0,41,42
 833 558 833 558 826 576 c 0,43,44
 821 592 821 592 821 611 c 0,45,46
 821 648 821 648 849 689 c 0,47,48
 888 744 888 744 956 744 c 0,49,50
 1020 744 1020 744 1053 677 c 0,51,52
 1078 627 1078 627 1078 545 c 0,53,54
 1078 384 1078 384 953 233 c 0,55,56
 830 85 830 85 649 20 c 0,57,58
 594 0 594 0 538 -10 c 0,59,60
 497 -16 497 -16 454 -16 c 0,0,1
EndSplineSet
Validated: 1
EndChar

StartChar: nine
Encoding: 57 57 28
Width: 958
Flags: W
LayerCount: 2
Fore
SplineSet
273 642 m 0,0,1
 273 674 273 674 262 754 c 0,2,3
 254 810 254 810 254 884 c 0,4,5
 254 1408 254 1408 657 1928 c 0,6,7
 832 2153 832 2153 1106 2408 c 0,8,9
 1211 2506 1211 2506 1248 2520 c 0,10,11
 1260 2525 1260 2525 1271 2525 c 0,12,13
 1286 2525 1286 2525 1286 2512 c 0,14,15
 1286 2482 1286 2482 1245 2442 c 2,16,-1
 1096 2304 l 2,17,18
 1001 2213 1001 2213 902 2101 c 0,19,20
 442 1585 442 1585 429 1062 c 0,21,22
 428 1041 428 1041 428 1018 c 0,23,24
 428 804 428 804 519 562 c 0,25,26
 607 327 607 327 724 222 c 0,27,28
 778 173 778 173 830 163 c 0,29,30
 839 161 839 161 854 161 c 0,31,32
 934 161 934 161 996 210 c 2,33,-1
 1069 271 l 2,34,35
 1087 285 1087 285 1106 295 c 0,36,37
 1129 307 1129 307 1144 307 c 1,38,39
 1157 300 1157 300 1158 291 c 0,40,41
 1158 260 1158 260 1079 186 c 0,42,43
 962 77 962 77 837 27 c 0,44,45
 769 1 769 1 715 1 c 0,46,47
 564 1 564 1 428 241 c 0,48,49
 368 347 368 347 340 435 c 0,50,51
 338 435 338 435 320 406 c 0,52,53
 274 333 274 333 180 241 c 0,54,55
 -22 41 -22 41 -183 15 c 0,56,57
 -205 11 -205 11 -225 11 c 0,58,59
 -313 11 -313 11 -374 66 c 0,60,61
 -399 89 -399 89 -399 102 c 0,62,63
 -399 134 -399 134 -339 190 c 0,64,65
 -280 247 -280 247 -243 248 c 0,66,67
 -234 248 -234 248 -210 225 c 0,68,69
 -161 178 -161 178 -101 172 c 0,70,71
 -91 171 -91 171 -81 171 c 0,72,73
 9 171 9 171 106 265 c 0,74,75
 217 372 217 372 256 520 c 0,76,77
 273 581 273 581 273 642 c 0,0,1
EndSplineSet
Validated: 1
EndChar

StartChar: colon
Encoding: 58 58 29
Width: 0
Flags: W
LayerCount: 2
Fore
SplineSet
-800 -228 m 0,0,1
 -606 -228 -606 -228 -503 -149 c 2,2,-1
 -449 -105 l 2,3,4
 -431 -94 -431 -94 -414 -94 c 0,5,6
 -402 -94 -402 -94 -402 -101 c 0,7,8
 -402 -136 -402 -136 -483 -201 c 0,9,10
 -642 -331 -642 -331 -838 -348 c 0,11,12
 -874 -352 -874 -352 -914 -352 c 0,13,14
 -1041 -352 -1041 -352 -1272 -308 c 128,-1,15
 -1503 -264 -1503 -264 -1612 -258 c 0,16,17
 -1642 -257 -1642 -257 -1670 -257 c 0,18,19
 -1864 -257 -1864 -257 -1967 -336 c 2,20,-1
 -2021 -380 l 2,21,22
 -2039 -391 -2039 -391 -2057 -391 c 0,23,24
 -2068 -391 -2068 -391 -2068 -381 c 0,25,26
 -2068 -352 -2068 -352 -2006 -297 c 0,27,28
 -1891 -195 -1891 -195 -1724 -155 c 0,29,30
 -1641 -134 -1641 -134 -1555 -134 c 0,31,32
 -1416 -134 -1416 -134 -1206 -176 c 0,33,34
 -1000 -217 -1000 -217 -897 -225 c 0,35,36
 -849 -228 -849 -228 -800 -228 c 0,0,1
EndSplineSet
Validated: 1
EndChar

StartChar: semicolon
Encoding: 59 59 30
Width: 0
Flags: W
LayerCount: 2
Fore
SplineSet
-632 -211 m 0,0,1
 -535 -211 -535 -211 -467 -163 c 0,2,3
 -425 -137 -425 -137 -413 -135 c 0,4,5
 -402 -135 -402 -135 -402 -145 c 0,6,7
 -402 -169 -402 -169 -450 -216 c 0,8,9
 -546 -309 -546 -309 -689 -329 c 0,10,11
 -721 -333 -721 -333 -754 -333 c 0,12,13
 -832 -333 -832 -333 -971 -305 c 0,14,15
 -1094 -280 -1094 -280 -1177 -280 c 0,16,17
 -1277 -280 -1277 -280 -1343 -329 c 0,18,19
 -1377 -353 -1377 -353 -1388 -355 c 0,20,21
 -1391 -356 -1391 -356 -1395 -356 c 0,22,23
 -1406 -356 -1406 -356 -1406 -346 c 0,24,25
 -1406 -319 -1406 -319 -1354 -271 c 0,26,27
 -1257 -181 -1257 -181 -1123 -161 c 0,28,29
 -1092 -157 -1092 -157 -1061 -157 c 0,30,31
 -983 -157 -983 -157 -832 -186 c 0,32,33
 -707 -211 -707 -211 -632 -211 c 0,0,1
EndSplineSet
Validated: 1
EndChar

StartChar: less
Encoding: 60 60 31
Width: 1044
Flags: W
LayerCount: 2
Fore
SplineSet
262 1281 m 0,0,1
 262 1402 262 1402 365 1526 c 0,2,3
 481 1667 481 1667 660 1726 c 0,4,5
 759 1759 759 1759 864 1759 c 0,6,7
 1041 1759 1041 1759 1152 1647 c 0,8,9
 1254 1544 1254 1544 1254 1394 c 0,10,11
 1254 1300 1254 1300 1176 1177 c 0,12,13
 1052 982 1052 982 798 845 c 0,14,15
 778 834 778 834 777 833 c 0,16,17
 777 831 777 831 793 814 c 0,18,19
 837 770 837 770 860 684 c 0,20,21
 870 645 870 645 871 593 c 0,22,23
 871 265 871 265 402 -370 c 0,24,25
 104 -772 104 -772 -329 -1225 c 1,26,-1
 -378 -1277 l 1,27,-1
 -678 -1576 l 1,28,29
 -912 -1800 -912 -1800 -959 -1835 c 0,30,31
 -1002 -1868 -1002 -1868 -1027 -1870 c 0,32,33
 -1046 -1870 -1046 -1870 -1046 -1857 c 0,34,35
 -1046 -1829 -1046 -1829 -988 -1772 c 2,36,-1
 -940 -1726 l 1,37,38
 -667 -1472 -667 -1472 -494 -1293 c 0,39,40
 41 -741 41 -741 362 -278 c 0,41,42
 697 205 697 205 697 459 c 0,43,44
 697 587 697 587 623 666 c 0,45,46
 564 729 564 729 482 729 c 0,47,48
 398 729 398 729 319 674 c 0,49,50
 271 641 271 641 257 637 c 0,51,52
 249 635 249 635 242 635 c 0,53,54
 227 635 227 635 227 648 c 0,55,56
 227 687 227 687 308 755 c 2,57,-1
 326 770 l 2,58,59
 432 855 432 855 543 879 c 2,60,-1
 681 906 l 2,61,62
 704 912 704 912 726 919 c 0,63,64
 988 1007 988 1007 1057 1164 c 0,65,66
 1080 1214 1080 1214 1080 1268 c 0,67,68
 1080 1419 1080 1419 958 1517 c 0,69,70
 878 1581 878 1581 782 1595 c 0,71,72
 754 1600 754 1600 725 1600 c 0,73,74
 614 1600 614 1600 522 1562 c 0,75,76
 475 1543 475 1543 463 1523 c 0,77,78
 437 1480 437 1480 437 1423 c 0,79,80
 437 1365 437 1365 480 1311 c 0,81,82
 514 1268 514 1268 521 1253 c 0,83,84
 529 1235 529 1235 529 1214 c 0,85,86
 529 1158 529 1158 484 1117 c 0,87,88
 446 1082 446 1082 394 1082 c 0,89,90
 321 1082 321 1082 284 1164 c 0,91,92
 262 1214 262 1214 262 1281 c 0,0,1
EndSplineSet
Validated: 1
EndChar

StartChar: equal
Encoding: 61 61 32
Width: 540
Flags: W
LayerCount: 2
Fore
SplineSet
160 436 m 0,0,1
 160 468 160 468 184 500 c 0,2,3
 212 537 212 537 260 537 c 0,4,5
 324 537 324 537 351 485 c 0,6,7
 362 463 362 463 362 436 c 0,8,9
 362 376 362 376 313 348 c 0,10,11
 290 336 290 336 261 336 c 0,12,13
 199 336 199 336 172 387 c 0,14,15
 160 410 160 410 160 436 c 0,0,1
EndSplineSet
Validated: 1
EndChar

StartChar: greater
Encoding: 62 62 33
Width: 0
Flags: W
LayerCount: 2
Fore
SplineSet
-859 -675 m 0,0,1
 -900 -675 -900 -675 -914 -639 c 0,2,3
 -917 -628 -917 -628 -917 -617 c 0,4,5
 -917 -588 -917 -588 -887 -555 c 0,6,7
 -862 -527 -862 -527 -792 -466 c 0,8,9
 -699 -385 -699 -385 -665 -347 c 0,10,11
 -638 -317 -638 -317 -626 -312 c 0,12,13
 -620 -311 -620 -311 -614 -311 c 0,14,15
 -591 -317 -591 -317 -587 -341 c 1,16,17
 -587 -383 -587 -383 -697 -531 c 0,18,19
 -753 -605 -753 -605 -787 -639 c 0,20,21
 -824 -675 -824 -675 -859 -675 c 0,0,1
-510 -517 m 0,22,23
 -510 -318 -510 -318 -460 -318 c 0,24,25
 -436 -318 -436 -318 -428 -355 c 2,26,-1
 -406 -489 l 1,27,28
 -388 -571 -388 -571 -352 -647 c 0,29,30
 -336 -683 -336 -683 -336 -703 c 0,31,32
 -336 -744 -336 -744 -367 -761 c 0,33,34
 -379 -767 -379 -767 -394 -767 c 0,35,36
 -449 -767 -449 -767 -483 -684 c 0,37,38
 -510 -616 -510 -616 -510 -517 c 0,22,23
-680 -901 m 1,39,40
 -718 -901 -718 -901 -737 -863 c 0,41,42
 -746 -844 -746 -844 -746 -821 c 0,43,44
 -746 -767 -746 -767 -647 -553 c 2,45,-1
 -617 -487 l 2,46,47
 -600 -447 -600 -447 -589 -438 c 0,48,49
 -580 -431 -580 -431 -569 -431 c 0,50,51
 -548 -431 -548 -431 -542 -452 c 0,52,53
 -540 -458 -540 -458 -541 -465 c 0,54,55
 -576 -755 -576 -755 -600 -825 c 0,56,57
 -621 -888 -621 -888 -662 -899 c 1,58,-1
 -680 -901 l 1,39,40
EndSplineSet
Validated: 1
EndChar

StartChar: question
Encoding: 63 63 34
Width: 0
Flags: W
LayerCount: 2
Fore
SplineSet
-3048 -1990 m 0,0,1
 -2932 -1990 -2932 -1990 -2708 -2032 c 0,2,3
 -2487 -2073 -2487 -2073 -2381 -2076 c 0,4,5
 -2368 -2076 -2368 -2076 -2354 -2076 c 0,6,7
 -2180 -2076 -2180 -2076 -2083 -2003 c 2,8,-1
 -2033 -1964 l 2,9,10
 -2015 -1953 -2015 -1953 -1999 -1953 c 0,11,12
 -1987 -1953 -1987 -1953 -1987 -1963 c 0,13,14
 -1987 -1991 -1987 -1991 -2048 -2046 c 0,15,16
 -2160 -2146 -2160 -2146 -2321 -2183 c 0,17,18
 -2393 -2200 -2393 -2200 -2467 -2200 c 0,19,20
 -2582 -2200 -2582 -2200 -2804 -2158 c 128,-1,21
 -3026 -2116 -3026 -2116 -3133 -2113 c 0,22,23
 -3146 -2113 -3146 -2113 -3160 -2113 c 0,24,25
 -3340 -2113 -3340 -2113 -3435 -2186 c 2,26,-1
 -3484 -2226 l 2,27,28
 -3502 -2236 -3502 -2236 -3519 -2236 c 0,29,30
 -3530 -2236 -3530 -2236 -3530 -2227 c 0,31,32
 -3530 -2199 -3530 -2199 -3469 -2145 c 0,33,34
 -3358 -2044 -3358 -2044 -3197 -2007 c 0,35,36
 -3123 -1990 -3123 -1990 -3048 -1990 c 0,0,1
EndSplineSet
Validated: 1
EndChar

StartChar: at
Encoding: 64 64 35
Width: 1921
Flags: W
LayerCount: 2
Fore
SplineSet
-1642 -2254 m 0,0,1
 -1657 -2254 -1657 -2254 -1657 -2241 c 0,2,3
 -1657 -2204 -1657 -2204 -1573 -2131 c 2,4,-1
 -1519 -2081 l 2,5,6
 -1458 -2027 -1458 -2027 -1317 -1886 c 2,7,-1
 -1162 -1727 l 1,8,9
 -510 -1035 -510 -1035 -113 -235 c 0,10,11
 -57 -121 -57 -121 -6 -6 c 0,12,13
 66 155 66 155 153 403 c 2,14,-1
 375 1039 l 2,15,16
 627 1768 627 1768 911 2139 c 0,17,18
 1023 2286 1023 2286 1179 2425 c 0,19,20
 1239 2479 1239 2479 1278 2479 c 0,21,22
 1289 2477 1289 2477 1289 2465 c 0,23,24
 1289 2437 1289 2437 1216 2365 c 0,25,26
 1138 2288 1138 2288 1125 2274 c 0,27,28
 895 2023 895 2023 706 1575 c 1,29,-1
 642 1415 l 2,30,31
 614 1343 614 1343 467 920 c 2,32,-1
 365 627 l 1,33,-1
 472 725 l 1,34,35
 660 888 660 888 805 888 c 0,36,37
 940 888 940 888 1018 768 c 0,38,39
 1066 696 1066 696 1078 599 c 1,40,41
 1341 888 1341 888 1543 888 c 0,42,43
 1674 888 1674 888 1757 759 c 0,44,45
 1780 723 1780 723 1791 690 c 0,46,47
 1812 628 1812 628 1812 560 c 0,48,49
 1812 404 1812 404 1694 240 c 0,50,51
 1591 98 1591 98 1455 28 c 0,52,53
 1405 2 1405 2 1357 -9 c 0,54,55
 1330 -15 1330 -15 1292 -16 c 0,56,57
 1142 -6 1142 -6 1134 89 c 0,58,59
 1134 134 1134 134 1165 173 c 0,60,61
 1201 219 1201 219 1267 221 c 0,62,63
 1315 222 1315 222 1347 189 c 0,64,65
 1375 161 1375 161 1386 155 c 0,66,67
 1405 144 1405 144 1433 144 c 0,68,69
 1521 144 1521 144 1561 197 c 0,70,71
 1634 293 1634 293 1638 418 c 0,72,73
 1638 423 1638 423 1638 429 c 0,74,75
 1638 576 1638 576 1538 668 c 0,76,77
 1511 693 1511 693 1485 706 c 0,78,79
 1440 729 1440 729 1395 729 c 0,80,81
 1251 729 1251 729 1121 520 c 0,82,83
 1107 498 1107 498 1046 380 c 0,84,85
 967 230 967 230 874 140 c 2,86,-1
 850 118 l 2,87,88
 697 -17 697 -17 555 -17 c 0,89,90
 431 -17 431 -17 405 57 c 0,91,92
 400 71 400 71 400 87 c 0,93,94
 400 154 400 154 458 195 c 0,95,96
 495 221 495 221 534 221 c 0,97,98
 581 221 581 221 613 188 c 0,99,100
 641 160 641 160 654 153 c 0,101,102
 674 144 674 144 701 144 c 0,103,104
 803 144 803 144 853 232 c 0,105,106
 863 251 863 251 874 277 c 0,107,108
 905 354 905 354 905 432 c 0,109,110
 905 609 905 609 777 690 c 0,111,112
 717 728 717 728 664 728 c 2,113,-1
 656 728 l 2,114,115
 583 728 583 728 486 647 c 0,116,117
 368 548 368 548 278 371 c 0,118,119
 253 320 253 320 218 232 c 2,120,-1
 191 163 l 1,121,122
 -42 -406 -42 -406 -484 -1024 c 0,123,124
 -601 -1187 -601 -1187 -719 -1333 c 2,125,-1
 -833 -1470 l 1,126,-1
 -1066 -1731 l 1,127,-1
 -1110 -1777 l 1,128,129
 -1200 -1877 -1200 -1877 -1449 -2110 c 2,130,-1
 -1560 -2212 l 2,131,132
 -1610 -2254 -1610 -2254 -1642 -2254 c 0,0,1
EndSplineSet
Validated: 33
EndChar

StartChar: A
Encoding: 65 65 36
Width: 1236
Flags: W
LayerCount: 2
Fore
SplineSet
267 446 m 0,0,1
 267 312 267 312 353 225 c 0,2,3
 432 144 432 144 548 144 c 128,-1,4
 664 144 664 144 802 274 c 0,5,6
 830 301 830 301 850 325 c 0,7,8
 902 387 902 387 933 455 c 0,9,10
 973 541 973 541 1084 869 c 0,11,12
 1204 1221 1204 1221 1213 1245 c 0,13,14
 1431 1847 1431 1847 1707 2218 c 0,15,16
 1794 2335 1794 2335 1888 2433 c 0,17,18
 2053 2605 2053 2605 2104 2605 c 0,19,20
 2120 2605 2120 2605 2120 2591 c 0,21,22
 2120 2561 2120 2561 2048 2490 c 0,23,24
 1972 2416 1972 2416 1960 2404 c 0,25,26
 1645 2063 1645 2063 1390 1370 c 0,27,28
 1363 1296 1363 1296 1265 1009 c 2,29,-1
 1118 587 l 1,30,31
 981 209 981 209 904 40 c 0,32,33
 833 -116 833 -116 736 -285 c 0,34,35
 430 -825 430 -825 -106 -1394 c 2,36,-1
 -157 -1448 l 2,37,38
 -215 -1511 -215 -1511 -399 -1689 c 2,39,-1
 -747 -2016 l 1,40,41
 -829 -2086 -829 -2086 -853 -2097 c 0,42,43
 -866 -2102 -866 -2102 -879 -2102 c 0,44,45
 -882 -2102 -882 -2102 -884 -2102 c 0,46,47
 -892 -2102 -892 -2102 -893 -2090 c 0,48,49
 -894 -2061 -894 -2061 -835 -2003 c 2,50,-1
 -553 -1742 l 2,51,52
 -517 -1706 -517 -1706 -490 -1682 c 2,53,-1
 -255 -1447 l 2,54,55
 -137 -1329 -137 -1329 48 -1112 c 0,56,57
 150 -991 150 -991 231 -886 c 0,58,59
 619 -378 619 -378 815 123 c 1,60,-1
 854 226 l 1,61,-1
 752 141 l 1,62,63
 568 -3 568 -3 423 -15 c 0,64,65
 414 -16 414 -16 398 -16 c 0,66,67
 265 -16 265 -16 177 82 c 0,68,69
 93 176 93 176 93 312 c 0,70,71
 93 492 93 492 233 659 c 0,72,73
 345 793 345 793 492 855 c 0,74,75
 572 888 572 888 640 888 c 0,76,77
 647 888 647 888 655 888 c 0,78,79
 775 888 775 888 800 809 c 0,80,81
 804 793 804 793 804 776 c 0,82,83
 804 706 804 706 743 666 c 0,84,85
 707 642 707 642 669 642 c 0,86,87
 627 642 627 642 587 682 c 0,88,89
 555 716 555 716 541 722 c 0,90,91
 528 728 528 728 514 728 c 0,92,93
 509 728 509 728 501 728 c 0,94,95
 346 728 346 728 290 581 c 0,96,97
 267 519 267 519 267 446 c 0,0,1
EndSplineSet
Validated: 33
EndChar

StartChar: B
Encoding: 66 66 37
Width: 0
Flags: W
LayerCount: 2
Fore
SplineSet
-125 1276 m 0,0,1
 -141 1276 -141 1276 -146 1294 c 0,2,3
 -147 1297 -147 1297 -147 1301 c 0,4,5
 -147 1324 -147 1324 -92 1474 c 0,6,7
 -33 1632 -33 1632 -8 1648 c 0,8,9
 7 1658 7 1658 24 1658 c 0,10,11
 55 1658 55 1658 66 1625 c 0,12,13
 69 1616 69 1616 69 1606 c 0,14,15
 69 1566 69 1566 -53 1370 c 1,16,-1
 -91 1306 l 2,17,18
 -109 1277 -109 1277 -125 1276 c 0,0,1
EndSplineSet
Validated: 1
EndChar

StartChar: C
Encoding: 67 67 38
Width: 0
Flags: W
LayerCount: 2
Fore
SplineSet
-125 1303 m 0,0,1
 -146 1303 -146 1303 -152 1327 c 0,2,3
 -153 1332 -153 1332 -153 1338 c 0,4,5
 -153 1368 -153 1368 -121 1569 c 0,6,7
 -109 1646 -109 1646 -101 1677 c 0,8,9
 -77 1774 -77 1774 -15 1774 c 0,10,11
 25 1774 25 1774 44 1734 c 0,12,13
 52 1716 52 1716 52 1693 c 0,14,15
 52 1641 52 1641 -47 1425 c 2,16,-1
 -77 1360 l 2,17,18
 -94 1324 -94 1324 -97 1319 c 0,19,20
 -109 1303 -109 1303 -125 1303 c 0,0,1
-358 1576 m 0,21,22
 -358 1618 -358 1618 -327 1634 c 0,23,24
 -314 1640 -314 1640 -297 1640 c 0,25,26
 -222 1638 -222 1638 -194 1484 c 0,27,28
 -185 1432 -185 1432 -185 1390 c 0,29,30
 -185 1190 -185 1190 -234 1190 c 0,31,32
 -257 1190 -257 1190 -265 1224 c 2,33,-1
 -287 1357 l 1,34,35
 -305 1441 -305 1441 -342 1519 c 0,36,37
 -358 1553 -358 1553 -358 1576 c 0,21,22
-107 1214 m 1,38,39
 -107 1242 -107 1242 -43 1344 c 0,40,41
 51 1492 51 1492 125 1535 c 0,42,43
 148 1548 148 1548 166 1548 c 0,44,45
 205 1548 205 1548 219 1511 c 0,46,47
 223 1500 223 1500 223 1488 c 0,48,49
 223 1460 223 1460 193 1427 c 0,50,51
 168 1399 168 1399 98 1338 c 0,52,53
 50 1296 50 1296 -29 1215 c 0,54,55
 -59 1184 -59 1184 -80 1183 c 1,56,57
 -103 1191 -103 1191 -107 1214 c 1,38,39
EndSplineSet
Validated: 1
EndChar

StartChar: D
Encoding: 68 68 39
Width: 0
Flags: W
LayerCount: 2
Fore
SplineSet
-248 1303 m 0,0,1
 -268 1303 -268 1303 -275 1324 c 0,2,3
 -277 1331 -277 1331 -276 1338 c 2,4,-1
 -254 1541 l 1,5,6
 -223 1764 -223 1764 -145 1773 c 0,7,8
 -141 1774 -141 1774 -138 1774 c 0,9,10
 -98 1774 -98 1774 -79 1734 c 0,11,12
 -71 1716 -71 1716 -71 1693 c 0,13,14
 -71 1641 -71 1641 -170 1425 c 2,15,-1
 -200 1360 l 2,16,17
 -226 1306 -226 1306 -248 1303 c 0,0,1
-481 1576 m 0,18,19
 -481 1615 -481 1615 -452 1633 c 0,20,21
 -438 1641 -438 1641 -420 1640 c 0,22,23
 -344 1638 -344 1638 -317 1483 c 0,24,25
 -308 1431 -308 1431 -308 1391 c 0,26,27
 -308 1190 -308 1190 -357 1190 c 0,28,29
 -381 1190 -381 1190 -389 1224 c 2,30,-1
 -410 1358 l 2,31,32
 -427 1441 -427 1441 -465 1519 c 0,33,34
 -481 1553 -481 1553 -481 1576 c 0,18,19
-203 1183 m 0,35,36
 -225 1183 -225 1183 -229 1205 c 0,37,38
 -230 1209 -230 1209 -230 1214 c 0,39,40
 -230 1254 -230 1254 -145 1373 c 0,41,42
 -56 1499 -56 1499 4 1537 c 0,43,44
 17 1545 17 1545 26 1547 c 0,45,46
 31 1548 31 1548 44 1548 c 0,47,48
 84 1546 84 1546 96 1510 c 0,49,50
 100 1500 100 1500 100 1488 c 0,51,52
 100 1460 100 1460 70 1427 c 0,53,54
 45 1399 45 1399 -25 1338 c 0,55,56
 -72 1297 -72 1297 -153 1215 c 0,57,58
 -183 1184 -183 1184 -203 1183 c 0,35,36
EndSplineSet
Validated: 1
EndChar

StartChar: E
Encoding: 69 69 40
Width: 0
Flags: W
LayerCount: 2
Fore
SplineSet
-387 1303 m 0,0,1
 -407 1303 -407 1303 -414 1323 c 0,2,3
 -416 1329 -416 1329 -416 1336 c 2,4,-1
 -394 1539 l 1,5,6
 -363 1764 -363 1764 -284 1773 c 0,7,8
 -281 1774 -281 1774 -277 1774 c 0,9,10
 -235 1774 -235 1774 -217 1732 c 0,11,12
 -210 1715 -210 1715 -210 1693 c 0,13,14
 -210 1637 -210 1637 -315 1411 c 0,15,16
 -345 1347 -345 1347 -353 1328 c 0,17,18
 -364 1303 -364 1303 -387 1303 c 0,0,1
-620 1576 m 0,19,20
 -620 1618 -620 1618 -589 1634 c 0,21,22
 -576 1640 -576 1640 -559 1640 c 0,23,24
 -484 1638 -484 1638 -456 1484 c 0,25,26
 -447 1432 -447 1432 -447 1390 c 0,27,28
 -447 1190 -447 1190 -496 1190 c 0,29,30
 -520 1190 -520 1190 -529 1229 c 2,31,-1
 -552 1366 l 2,32,33
 -569 1447 -569 1447 -604 1519 c 0,34,35
 -620 1553 -620 1553 -620 1576 c 0,19,20
-369 1214 m 1,36,37
 -369 1240 -369 1240 -307 1339 c 0,38,39
 -213 1491 -213 1491 -138 1535 c 0,40,41
 -115 1548 -115 1548 -96 1548 c 0,42,43
 -57 1548 -57 1548 -43 1511 c 0,44,45
 -39 1500 -39 1500 -39 1488 c 0,46,47
 -39 1450 -39 1450 -115 1381 c 2,48,-1
 -242 1269 l 2,49,50
 -270 1243 -270 1243 -292 1219 c 0,51,52
 -327 1186 -327 1186 -342 1183 c 1,53,54
 -365 1191 -365 1191 -369 1214 c 1,36,37
EndSplineSet
Validated: 1
EndChar

StartChar: F
Encoding: 70 70 41
Width: 0
Flags: W
LayerCount: 2
Fore
SplineSet
-508 1104 m 0,0,1
 -529 1103 -529 1103 -532 1127 c 0,2,3
 -532 1166 -532 1166 -81 1611 c 2,4,-1
 28 1718 l 2,5,6
 62 1751 62 1751 89 1751 c 0,7,8
 122 1751 122 1751 132 1722 c 0,9,10
 135 1714 135 1714 135 1705 c 0,11,12
 135 1681 135 1681 107 1651 c 0,13,14
 98 1641 98 1641 -5 1542 c 0,15,16
 -339 1225 -339 1225 -464 1130 c 0,17,18
 -499 1104 -499 1104 -508 1104 c 0,0,1
EndSplineSet
Validated: 1
EndChar

StartChar: G
Encoding: 71 71 42
Width: 0
Flags: W
LayerCount: 2
Fore
SplineSet
-318 1276 m 0,0,1
 -339 1276 -339 1276 -339 1301 c 0,2,3
 -339 1302 -339 1302 -339 1304 c 0,4,5
 -232 1582 -232 1582 -187 1629 c 0,6,7
 -169 1647 -169 1647 -148 1647 c 0,8,9
 -114 1647 -114 1647 -105 1614 c 0,10,11
 -103 1606 -103 1606 -103 1598 c 0,12,13
 -103 1561 -103 1561 -191 1434 c 2,14,-1
 -281 1308 l 2,15,16
 -301 1276 -301 1276 -318 1276 c 0,0,1
EndSplineSet
Validated: 1
EndChar

StartChar: H
Encoding: 72 72 43
Width: 0
Flags: W
LayerCount: 2
Fore
SplineSet
-926 741 m 0,0,1
 -937 741 -937 741 -937 750 c 0,2,3
 -937 760 -937 760 -929 773 c 2,4,-1
 -549 1332 l 2,5,6
 -274 1730 -274 1730 -44 1861 c 0,7,8
 55 1917 55 1917 139 1917 c 0,9,10
 237 1917 237 1917 297 1845 c 0,11,12
 344 1788 344 1788 344 1707 c 0,13,14
 344 1584 344 1584 238 1473 c 0,15,16
 152 1382 152 1382 52 1357 c 0,17,18
 26 1350 26 1350 2 1350 c 0,19,20
 -75 1350 -75 1350 -116 1406 c 0,21,22
 -139 1438 -139 1438 -139 1478 c 0,23,24
 -139 1543 -139 1543 -69 1612 c 0,25,26
 -18 1663 -18 1663 14 1663 c 2,27,-1
 15 1663 l 2,28,29
 26 1663 26 1663 26 1653 c 0,30,31
 26 1640 26 1640 9 1618 c 0,32,33
 -5 1600 -5 1600 -5 1583 c 0,34,35
 -5 1546 -5 1546 23 1512 c 0,36,37
 55 1473 55 1473 114 1473 c 0,38,39
 169 1473 169 1473 188 1507 c 0,40,41
 191 1514 191 1514 199 1534 c 0,42,43
 210 1568 210 1568 210 1602 c 0,44,45
 210 1695 210 1695 142 1752 c 0,46,47
 92 1794 92 1794 27 1794 c 0,48,49
 -122 1794 -122 1794 -318 1543 c 1,50,-1
 -340 1514 l 2,51,52
 -395 1442 -395 1442 -584 1165 c 2,53,-1
 -640 1082 l 1,54,-1
 -807 837 l 2,55,56
 -850 777 -850 777 -889 755 c 0,57,58
 -894 753 -894 753 -899 750 c 0,59,60
 -917 741 -917 741 -926 741 c 0,0,1
EndSplineSet
Validated: 1
EndChar

StartChar: I
Encoding: 73 73 44
Width: 784
Flags: W
LayerCount: 2
Fore
SplineSet
-227 574 m 0,0,1
 -244 574 -244 574 -244 589 c 0,2,3
 -244 621 -244 621 -180 679 c 0,4,5
 1 842 1 842 245 879 c 0,6,7
 292 886 292 886 343 888 c 2,8,-1
 383 888 l 2,9,10
 538 888 538 888 638 770 c 0,11,12
 730 661 730 661 731 503 c 0,13,14
 731 242 731 242 369 -273 c 0,15,16
 29 -756 29 -756 -510 -1298 c 1,17,-1
 -876 -1648 l 2,18,19
 -961 -1725 -961 -1725 -997 -1725 c 0,20,21
 -1012 -1725 -1012 -1725 -1012 -1711 c 0,22,23
 -1012 -1684 -1012 -1684 -959 -1632 c 2,24,-1
 -720 -1408 l 2,25,26
 -566 -1259 -566 -1259 -397 -1079 c 0,27,28
 126 -522 126 -522 375 -108 c 0,29,30
 557 194 557 194 557 373 c 0,31,32
 557 534 557 534 447 640 c 0,33,34
 365 720 365 720 267 728 c 1,35,-1
 251 728 l 2,36,37
 243 728 243 728 231 728 c 0,38,39
 6 728 6 728 -114 641 c 2,40,-1
 -182 589 l 2,41,42
 -205 574 -205 574 -227 574 c 0,0,1
EndSplineSet
Validated: 1
EndChar

StartChar: J
Encoding: 74 74 45
Width: 0
Flags: W
LayerCount: 2
Fore
SplineSet
-340 1631 m 0,0,1
 -340 1720 -340 1720 -253 1816 c 0,2,3
 -162 1917 -162 1917 -45 1948 c 0,4,5
 -8 1958 -8 1958 28 1958 c 0,6,7
 131 1958 131 1958 193 1886 c 0,8,9
 240 1830 240 1830 240 1755 c 0,10,11
 240 1542 240 1542 -128 1258 c 0,12,13
 -228 1181 -228 1181 -350 1103 c 2,14,-1
 -916 749 l 2,15,16
 -933 741 -933 741 -942 741 c 0,17,18
 -953 741 -953 741 -953 751 c 0,19,20
 -953 790 -953 790 -834 871 c 0,21,22
 -799 894 -799 894 -540 1053 c 1,23,-1
 -257 1233 l 1,24,25
 -18 1391 -18 1391 60 1513 c 0,26,27
 106 1586 106 1586 106 1653 c 0,28,29
 106 1737 106 1737 41 1791 c 0,30,31
 -12 1835 -12 1835 -86 1835 c 0,32,33
 -181 1835 -181 1835 -200 1775 c 0,34,35
 -206 1757 -206 1757 -206 1733 c 0,36,37
 -206 1652 -206 1652 -135 1622 c 0,38,39
 -113 1614 -113 1614 -97 1614 c 0,40,41
 -88 1614 -88 1614 -60 1631 c 0,42,43
 -42 1642 -42 1642 -29 1642 c 0,44,45
 -18 1642 -18 1642 -18 1632 c 0,46,47
 -18 1614 -18 1614 -59 1570 c 0,48,49
 -134 1492 -134 1492 -211 1492 c 0,50,51
 -284 1492 -284 1492 -320 1555 c 0,52,53
 -340 1590 -340 1590 -340 1631 c 0,0,1
EndSplineSet
Validated: 1
EndChar

StartChar: K
Encoding: 75 75 46
Width: 878
Flags: W
LayerCount: 2
Fore
SplineSet
463 762 m 1,0,1
 358 825 358 825 326 923 c 0,2,3
 311 971 311 971 311 1027 c 0,4,5
 311 1267 311 1267 584 1613 c 0,6,7
 662 1711 662 1711 761 1815 c 0,8,9
 1137 2211 1137 2211 1660 2548 c 0,10,11
 1740 2599 1740 2599 1759 2604 c 0,12,13
 1764 2605 1764 2605 1768 2605 c 0,14,15
 1784 2605 1784 2605 1784 2590 c 0,16,17
 1784 2560 1784 2560 1731 2510 c 0,18,19
 1701 2482 1701 2482 1659 2455 c 0,20,21
 1156 2137 1156 2137 829 1782 c 0,22,23
 566 1497 566 1497 504 1282 c 0,24,25
 485 1214 485 1214 485 1158 c 0,26,27
 485 993 485 993 619 923 c 0,28,29
 679 891 679 891 731 891 c 0,30,31
 786 891 786 891 831 925 c 1,32,33
 871 949 871 949 891 951 c 1,34,35
 903 947 903 947 904 935 c 0,36,37
 904 904 904 904 841 846 c 0,38,39
 751 763 751 763 648 738 c 0,40,41
 426 684 426 684 323 565 c 0,42,43
 261 493 261 493 261 414 c 0,44,45
 261 287 261 287 347 199 c 0,46,47
 436 109 436 109 575 109 c 0,48,49
 793 109 793 109 921 210 c 1,50,-1
 1007 285 l 2,51,52
 1036 307 1036 307 1064 307 c 0,53,54
 1078 307 1078 307 1078 294 c 0,55,56
 1078 257 1078 257 1010 197 c 0,57,58
 829 35 829 35 685 -15 c 0,59,60
 649 -27 649 -27 611 -35 c 0,61,62
 541 -50 541 -50 432 -51 c 0,63,64
 352 -51 352 -51 296 -29 c 0,65,66
 180 17 180 17 123 128 c 0,67,68
 86 200 86 200 86 281 c 0,69,70
 86 384 86 384 167 496 c 0,71,72
 270 640 270 640 455 757 c 0,73,74
 459 759 459 759 463 762 c 1,0,1
EndSplineSet
Validated: 1
EndChar

StartChar: L
Encoding: 76 76 47
Width: 0
Flags: W
LayerCount: 2
Fore
SplineSet
-1055 -163 m 0,0,1
 -1089 -163 -1089 -163 -1098 -133 c 0,2,3
 -1101 -124 -1101 -124 -1101 -114 c 0,4,5
 -1101 -79 -1101 -79 -1044 2 c 2,6,-1
 -921 171 l 2,7,8
 -901 200 -901 200 -891 204 c 0,9,10
 -886 206 -886 206 -881 206 c 0,11,12
 -863 206 -863 206 -859 184 c 0,13,14
 -859 170 -859 170 -897 90 c 2,15,-1
 -950 -30 l 2,16,17
 -995 -124 -995 -124 -1018 -146 c 0,18,19
 -1035 -163 -1035 -163 -1055 -163 c 0,0,1
EndSplineSet
Validated: 1
EndChar

StartChar: M
Encoding: 77 77 48
Width: 0
Flags: W
LayerCount: 2
Fore
SplineSet
-114 1339 m 0,0,1
 -179 1339 -179 1339 -217 1394 c 0,2,3
 -244 1433 -244 1433 -244 1486 c 0,4,5
 -244 1577 -244 1577 -165 1668 c 0,6,7
 -121 1719 -121 1719 -56 1762 c 0,8,9
 33 1819 33 1819 112 1819 c 0,10,11
 232 1819 232 1819 292 1737 c 0,12,13
 329 1685 329 1685 329 1614 c 0,14,15
 329 1436 329 1436 77 1189 c 0,16,17
 5 1118 5 1118 -69 1060 c 0,18,19
 -174 977 -174 977 -385 835 c 0,20,21
 -526 741 -526 741 -543 741 c 0,22,23
 -554 741 -554 741 -554 750 c 0,24,25
 -554 774 -554 774 -517 812 c 0,26,27
 -505 824 -505 824 -493 832 c 2,28,-1
 -124 1086 l 1,29,30
 32 1199 32 1199 120 1321 c 0,31,32
 196 1426 196 1426 196 1513 c 0,33,34
 196 1563 196 1563 162 1615 c 0,35,36
 110 1697 110 1697 5 1697 c 0,37,38
 -91 1697 -91 1697 -107 1624 c 0,39,40
 -110 1607 -110 1607 -110 1587 c 0,41,42
 -110 1514 -110 1514 -53 1478 c 0,43,44
 -29 1463 -29 1463 0 1461 c 1,45,46
 48 1500 48 1500 70 1500 c 0,47,48
 81 1500 81 1500 81 1490 c 0,49,50
 81 1466 81 1466 33 1417 c 0,51,52
 -42 1340 -42 1340 -114 1339 c 0,0,1
EndSplineSet
Validated: 1
EndChar

StartChar: N
Encoding: 78 78 49
Width: 0
Flags: W
LayerCount: 2
Fore
SplineSet
-578 741 m 0,0,1
 -589 741 -589 741 -589 750 c 0,2,3
 -589 767 -589 767 -408 1117 c 1,4,-1
 -380 1169 l 1,5,6
 -208 1497 -208 1497 7 1652 c 0,7,8
 134 1743 134 1743 230 1743 c 0,9,10
 323 1743 323 1743 384 1675 c 0,11,12
 437 1615 437 1615 437 1528 c 0,13,14
 437 1406 437 1406 333 1296 c 0,15,16
 248 1207 248 1207 152 1182 c 0,17,18
 127 1176 127 1176 106 1176 c 0,19,20
 26 1176 26 1176 -14 1232 c 0,21,22
 -36 1263 -36 1263 -36 1301 c 0,23,24
 -36 1371 -36 1371 43 1437 c 0,25,26
 90 1477 90 1477 114 1477 c 0,27,28
 125 1477 125 1477 125 1467 c 0,29,30
 125 1456 125 1456 108 1432 c 0,31,32
 98 1418 98 1418 98 1407 c 0,33,34
 98 1334 98 1334 172 1307 c 0,35,36
 196 1299 196 1299 214 1299 c 0,37,38
 280 1299 280 1299 296 1361 c 0,39,40
 302 1387 302 1387 302 1424 c 0,41,42
 302 1530 302 1530 225 1586 c 0,43,44
 178 1620 178 1620 120 1620 c 0,45,46
 -36 1620 -36 1620 -223 1297 c 0,47,48
 -274 1209 -274 1209 -395 963 c 0,49,50
 -440 871 -440 871 -463 832 c 0,51,52
 -490 786 -490 786 -544 754 c 0,53,54
 -566 741 -566 741 -578 741 c 0,0,1
EndSplineSet
Validated: 1
EndChar

StartChar: O
Encoding: 79 79 50
Width: 0
Flags: W
LayerCount: 2
Fore
SplineSet
-1069 -775 m 0,0,1
 -1100 -775 -1100 -775 -1111 -744 c 0,2,3
 -1114 -735 -1114 -735 -1114 -725 c 0,4,5
 -1114 -694 -1114 -694 -1023 -555 c 128,-1,6
 -932 -416 -932 -416 -898 -404 c 1,7,8
 -877 -404 -877 -404 -877 -429 c 2,9,-1
 -877 -432 l 1,10,11
 -986 -709 -986 -709 -1028 -755 c 0,12,13
 -1046 -775 -1046 -775 -1069 -775 c 0,0,1
EndSplineSet
Validated: 1
EndChar

StartChar: P
Encoding: 80 80 51
Width: 0
Flags: W
LayerCount: 2
Fore
SplineSet
-311 1130 m 0,0,1
 -118 1130 -118 1130 -16 1209 c 2,2,-1
 38 1252 l 2,3,4
 56 1264 56 1264 73 1264 c 0,5,6
 86 1264 86 1264 86 1254 c 0,7,8
 86 1229 86 1229 37 1185 c 0,9,10
 -127 1037 -127 1037 -334 1012 c 0,11,12
 -378 1007 -378 1007 -426 1007 c 0,13,14
 -561 1007 -561 1007 -791 1051 c 0,15,16
 -1013 1093 -1013 1093 -1118 1099 c 0,17,18
 -1151 1101 -1151 1101 -1182 1101 c 0,19,20
 -1377 1101 -1377 1101 -1478 1023 c 2,21,-1
 -1533 979 l 2,22,23
 -1551 967 -1551 967 -1569 967 c 0,24,25
 -1580 967 -1580 967 -1580 977 c 0,26,27
 -1580 1006 -1580 1006 -1518 1061 c 0,28,29
 -1403 1163 -1403 1163 -1238 1204 c 0,30,31
 -1155 1224 -1155 1224 -1070 1224 c 0,32,33
 -942 1224 -942 1224 -713 1181 c 0,34,35
 -484 1137 -484 1137 -374 1132 c 0,36,37
 -342 1130 -342 1130 -311 1130 c 0,0,1
EndSplineSet
Validated: 1
EndChar

StartChar: Q
Encoding: 81 81 52
Width: 1271
Flags: W
LayerCount: 2
Fore
SplineSet
-1642 -2254 m 0,0,1
 -1657 -2254 -1657 -2254 -1657 -2241 c 0,2,3
 -1657 -2204 -1657 -2204 -1573 -2131 c 2,4,-1
 -1519 -2081 l 2,5,6
 -1418 -1991 -1418 -1991 -1237 -1806 c 1,7,-1
 -1067 -1624 l 1,8,9
 -425 -915 -425 -915 -43 -88 c 1,10,-1
 2 11 l 1,11,-1
 112 289 l 1,12,13
 196 514 196 514 299 817 c 2,14,-1
 375 1039 l 2,15,16
 627 1768 627 1768 911 2139 c 0,17,18
 1023 2286 1023 2286 1179 2425 c 0,19,20
 1239 2479 1239 2479 1278 2479 c 0,21,22
 1289 2477 1289 2477 1289 2465 c 0,23,24
 1289 2437 1289 2437 1216 2365 c 0,25,26
 1138 2288 1138 2288 1125 2274 c 0,27,28
 895 2023 895 2023 706 1575 c 1,29,-1
 642 1415 l 2,30,31
 591 1281 591 1281 467 920 c 2,32,-1
 370 641 l 1,33,-1
 355 596 l 1,34,-1
 355 596 l 1,35,36
 355 604 355 604 488 711 c 0,37,38
 520 737 520 737 537 749 c 0,39,40
 711 875 711 875 836 886 c 0,41,42
 854 888 854 888 875 888 c 0,43,44
 894 888 894 888 903 887 c 0,45,46
 954 887 954 887 1021 847 c 0,47,48
 1148 773 1148 773 1161 634 c 0,49,50
 1162 620 1162 620 1162 604 c 0,51,52
 1162 510 1162 510 1096 390 c 0,53,54
 1025 262 1025 262 903 161 c 1,55,-1
 909 161 l 1,56,57
 939 157 939 157 1021 157 c 0,58,59
 1227 157 1227 157 1340 238 c 2,60,-1
 1403 285 l 2,61,62
 1424 298 1424 298 1444 298 c 2,63,-1
 1448 298 l 2,64,65
 1461 298 1461 298 1461 283 c 0,66,67
 1461 252 1461 252 1400 194 c 0,68,69
 1284 86 1284 86 1104 40 c 0,70,71
 1002 14 1002 14 892 14 c 0,72,73
 806 14 806 14 638 32 c 0,74,75
 511 45 511 45 395 45 c 0,76,77
 278 45 278 45 124 12 c 1,78,-1
 112 -14 l 2,79,80
 -211 -706 -211 -706 -719 -1333 c 1,81,-1
 -833 -1470 l 1,82,-1
 -1066 -1731 l 1,83,-1
 -1110 -1777 l 1,84,85
 -1200 -1877 -1200 -1877 -1449 -2110 c 2,86,-1
 -1560 -2212 l 2,87,88
 -1610 -2254 -1610 -2254 -1642 -2254 c 0,0,1
527 189 m 1,89,-1
 678 186 l 2,90,91
 793 186 793 186 859 220 c 0,92,93
 872 227 872 227 882 235 c 0,94,95
 940 286 940 286 970 367 c 0,96,97
 989 419 989 419 988 470 c 0,98,99
 984 609 984 609 883 681 c 0,100,101
 815 729 815 729 725 729 c 0,102,103
 643 729 643 729 535 658 c 0,104,105
 411 578 411 578 319 437 c 0,106,107
 281 381 281 381 252 317 c 2,108,-1
 213 220 l 1,109,-1
 182 146 l 1,110,-1
 182 142 l 1,111,112
 337 187 337 187 527 189 c 1,89,-1
EndSplineSet
Validated: 37
EndChar

StartChar: R
Encoding: 82 82 53
Width: 0
Flags: W
LayerCount: 2
Fore
SplineSet
-668 1105 m 0,0,1
 -683 1105 -683 1105 -688 1119 c 0,2,3
 -690 1123 -690 1123 -690 1127 c 0,4,5
 -690 1141 -690 1141 -664 1165 c 2,6,-1
 -607 1217 l 2,7,8
 -453 1357 -453 1357 -212 1551 c 0,9,10
 -25 1701 -25 1701 1 1705 c 0,11,12
 8 1707 8 1707 15 1707 c 0,13,14
 52 1707 52 1707 61 1670 c 0,15,16
 62 1665 62 1665 62 1661 c 0,17,18
 62 1636 62 1636 25 1603 c 0,19,20
 13 1593 13 1593 -128 1483 c 0,21,22
 -453 1234 -453 1234 -605 1137 c 0,23,24
 -656 1105 -656 1105 -668 1105 c 0,0,1
EndSplineSet
Validated: 1
EndChar

StartChar: S
Encoding: 83 83 54
Width: 1871
Flags: W
LayerCount: 2
Fore
SplineSet
1365 642 m 0,0,1
 1321 642 1321 642 1288 678 c 0,2,3
 1258 709 1258 709 1246 716 c 0,4,5
 1225 729 1225 729 1197 729 c 0,6,7
 1103 729 1103 729 1056 661 c 0,8,9
 1044 643 1044 643 1030 614 c 0,10,11
 991 531 991 531 991 443 c 0,12,13
 991 322 991 322 1062 233 c 0,14,15
 1091 196 1091 196 1129 174 c 0,16,17
 1181 143 1181 143 1237 143 c 0,18,19
 1352 143 1352 143 1468 287 c 0,20,21
 1548 387 1548 387 1597 518 c 2,22,-1
 1719 869 l 2,23,24
 1836 1214 1836 1214 1867 1297 c 0,25,26
 2111 1953 2111 1953 2438 2338 c 0,27,28
 2480 2387 2480 2387 2523 2433 c 0,29,30
 2687 2605 2687 2605 2739 2605 c 0,31,32
 2755 2605 2755 2605 2755 2591 c 0,33,34
 2755 2560 2755 2560 2681 2488 c 0,35,36
 2607 2417 2607 2417 2595 2404 c 0,37,38
 2319 2105 2319 2105 2106 1579 c 2,39,-1
 2098 1559 l 2,40,41
 2015 1350 2015 1350 1899 1009 c 2,42,-1
 1753 587 l 1,43,44
 1616 209 1616 209 1539 40 c 0,45,46
 1468 -116 1468 -116 1371 -285 c 0,47,48
 978 -974 978 -974 226 -1699 c 1,49,-1
 -112 -2016 l 1,50,51
 -198 -2089 -198 -2089 -223 -2099 c 0,52,53
 -233 -2102 -233 -2102 -245 -2102 c 0,54,55
 -248 -2102 -248 -2102 -249 -2102 c 0,56,57
 -256 -2102 -256 -2102 -258 -2090 c 0,58,59
 -258 -2058 -258 -2058 -190 -1993 c 2,60,-1
 144 -1682 l 1,61,62
 602 -1250 602 -1250 944 -779 c 0,63,64
 1278 -321 1278 -321 1440 100 c 2,65,-1
 1477 194 l 1,66,67
 1387 104 1387 104 1277 42 c 0,68,69
 1193 -5 1193 -5 1125 -15 c 1,70,-1
 1092 -16 l 1,71,-1
 1091 -16 l 2,72,73
 973 -16 973 -16 896 79 c 0,74,75
 847 139 847 139 824 232 c 1,76,-1
 809 217 l 2,77,78
 664 72 664 72 519 14 c 0,79,80
 443 -16 443 -16 376 -16 c 0,81,82
 265 -16 265 -16 187 73 c 0,83,84
 103 168 103 168 103 317 c 0,85,86
 103 462 103 462 211 620 c 0,87,88
 313 768 313 768 451 841 c 0,89,90
 542 889 542 889 628 889 c 0,91,92
 738 889 738 889 773 827 c 0,93,94
 785 805 785 805 785 775 c 0,95,96
 785 709 785 709 726 667 c 0,97,98
 690 642 690 642 654 642 c 0,99,100
 607 642 607 642 572 678 c 0,101,102
 543 709 543 709 533 716 c 0,103,104
 512 729 512 729 483 729 c 0,105,106
 391 729 391 729 345 664 c 0,107,108
 332 647 332 647 318 618 c 0,109,110
 277 531 277 531 277 443 c 0,111,112
 277 292 277 292 382 199 c 0,113,114
 409 176 409 176 435 163 c 0,115,116
 477 143 477 143 523 143 c 0,117,118
 616 143 616 143 701 213 c 0,119,120
 796 290 796 290 831 425 c 0,121,122
 867 562 867 562 984 694 c 0,123,124
 1114 839 1114 839 1259 877 c 0,125,126
 1300 888 1300 888 1340 888 c 0,127,128
 1499 888 1499 888 1500 773 c 0,129,130
 1500 707 1500 707 1438 666 c 0,131,132
 1402 642 1402 642 1365 642 c 0,0,1
EndSplineSet
Validated: 1
EndChar

StartChar: T
Encoding: 84 84 55
Width: 0
Flags: W
LayerCount: 2
Fore
SplineSet
-388 1276 m 0,0,1
 -407 1281 -407 1281 -409 1303 c 1,2,3
 -371 1412 -371 1412 -329 1518 c 0,4,5
 -287 1618 -287 1618 -264 1639 c 0,6,7
 -249 1653 -249 1653 -230 1653 c 0,8,9
 -197 1653 -197 1653 -187 1621 c 0,10,11
 -184 1612 -184 1612 -184 1602 c 0,12,13
 -184 1574 -184 1574 -231 1496 c 2,14,-1
 -251 1462 l 1,15,-1
 -320 1356 l 1,16,-1
 -358 1296 l 2,17,18
 -373 1276 -373 1276 -388 1276 c 0,0,1
EndSplineSet
Validated: 1
EndChar

StartChar: U
Encoding: 85 85 56
Width: 0
Flags: W
LayerCount: 2
Fore
SplineSet
-467 1602 m 0,0,1
 -467 1696 -467 1696 -374 1793 c 0,2,3
 -283 1889 -283 1889 -171 1918 c 0,4,5
 -136 1927 -136 1927 -104 1927 c 2,6,-1
 -102 1927 l 2,7,8
 4 1927 4 1927 67 1852 c 0,9,10
 113 1796 113 1796 113 1723 c 0,11,12
 113 1507 113 1507 -275 1227 c 0,13,14
 -387 1147 -387 1147 -540 1058 c 2,15,-1
 -1076 748 l 2,16,17
 -1091 741 -1091 741 -1100 741 c 0,18,19
 -1111 741 -1111 741 -1111 751 c 0,20,21
 -1111 776 -1111 776 -1068 817 c 0,22,23
 -1050 834 -1050 834 -1031 845 c 2,24,-1
 -434 1192 l 2,25,26
 -221 1320 -221 1320 -131 1409 c 0,27,28
 -21 1519 -21 1519 -21 1623 c 0,29,30
 -21 1706 -21 1706 -86 1760 c 0,31,32
 -139 1804 -139 1804 -214 1804 c 0,33,34
 -279 1804 -279 1804 -308 1781 c 0,35,36
 -315 1776 -315 1776 -318 1770 c 0,37,38
 -333 1740 -333 1740 -333 1704 c 0,39,40
 -333 1625 -333 1625 -265 1597 c 0,41,42
 -245 1588 -245 1588 -230 1588 c 0,43,44
 -225 1588 -225 1588 -220 1589 c 0,45,46
 -216 1589 -216 1589 -189 1605 c 0,47,48
 -172 1614 -172 1614 -160 1614 c 0,49,50
 -149 1614 -149 1614 -149 1605 c 0,51,52
 -149 1574 -149 1574 -206 1526 c 0,53,54
 -278 1466 -278 1466 -340 1466 c 0,55,56
 -413 1466 -413 1466 -449 1530 c 0,57,58
 -467 1563 -467 1563 -467 1602 c 0,0,1
EndSplineSet
Validated: 1
EndChar

StartChar: V
Encoding: 86 86 57
Width: 0
Flags: W
LayerCount: 2
Fore
SplineSet
-390 1103 m 0,0,1
 -408 1103 -408 1103 -411 1124 c 2,2,-1
 -411 1128 l 2,3,4
 -411 1148 -411 1148 -196 1427 c 0,5,6
 -5 1675 -5 1675 56 1735 c 0,7,8
 78 1756 78 1756 102 1756 c 0,9,10
 139 1756 139 1756 147 1718 c 0,11,12
 148 1712 148 1712 148 1708 c 0,13,14
 148 1681 148 1681 99 1623 c 2,15,-1
 -14 1493 l 2,16,17
 -190 1290 -190 1290 -338 1142 c 0,18,19
 -374 1106 -374 1106 -381 1104 c 0,20,21
 -384 1103 -384 1103 -390 1103 c 0,0,1
EndSplineSet
Validated: 1
EndChar

StartChar: W
Encoding: 87 87 58
Width: 1921
Flags: W
LayerCount: 2
Fore
SplineSet
-1642 -2254 m 0,0,1
 -1657 -2254 -1657 -2254 -1657 -2241 c 0,2,3
 -1657 -2204 -1657 -2204 -1573 -2131 c 2,4,-1
 -1519 -2081 l 2,5,6
 -1418 -1991 -1418 -1991 -1237 -1806 c 1,7,-1
 -1067 -1624 l 1,8,9
 -425 -915 -425 -915 -43 -88 c 1,10,-1
 2 11 l 1,11,-1
 112 289 l 1,12,13
 196 514 196 514 299 817 c 2,14,-1
 375 1039 l 2,15,16
 627 1768 627 1768 911 2139 c 0,17,18
 1023 2286 1023 2286 1179 2425 c 0,19,20
 1239 2479 1239 2479 1278 2479 c 0,21,22
 1289 2477 1289 2477 1289 2465 c 0,23,24
 1289 2437 1289 2437 1216 2365 c 0,25,26
 1138 2288 1138 2288 1125 2274 c 0,27,28
 895 2023 895 2023 706 1575 c 1,29,-1
 642 1415 l 2,30,31
 590 1281 590 1281 438 834 c 1,32,-1
 365 626 l 2,33,34
 366 626 366 626 375 635 c 0,35,36
 528 785 528 785 645 844 c 0,37,38
 735 888 735 888 813 888 c 0,39,40
 936 888 936 888 1014 787 c 0,41,42
 1070 714 1070 714 1077 626 c 0,43,44
 1078 615 1078 615 1079 615 c 2,45,-1
 1134 672 l 2,46,47
 1164 699 1164 699 1202 731 c 0,48,49
 1384 881 1384 881 1516 888 c 0,50,51
 1524 888 1524 888 1533 888 c 0,52,53
 1644 888 1644 888 1720 807 c 0,54,55
 1796 725 1796 725 1796 600 c 0,56,57
 1796 448 1796 448 1680 295 c 0,58,59
 1631 232 1631 232 1555 156 c 1,60,-1
 1569 156 l 2,61,62
 1574 156 1574 156 1583 156 c 0,63,64
 1876 156 1876 156 2001 246 c 0,65,66
 2009 252 2009 252 2017 259 c 0,67,68
 2062 298 2062 298 2093 298 c 2,69,-1
 2097 298 l 2,70,71
 2110 298 2110 298 2110 284 c 0,72,73
 2110 252 2110 252 2052 196 c 0,74,75
 1937 87 1937 87 1746 41 c 0,76,77
 1689 27 1689 27 1628 21 c 0,78,79
 1553 13 1553 13 1459 13 c 0,80,81
 1312 13 1312 13 1042 33 c 0,82,83
 860 46 860 46 715 46 c 0,84,85
 697 46 697 46 680 46 c 0,86,87
 377 46 377 46 122 2 c 0,88,89
 119 1 119 1 96 -48 c 0,90,91
 45 -159 45 -159 -41 -319 c 0,92,93
 -268 -742 -268 -742 -567 -1135 c 2,94,-1
 -719 -1333 l 1,95,-1
 -833 -1470 l 1,96,-1
 -1066 -1731 l 1,97,-1
 -1110 -1777 l 1,98,99
 -1200 -1877 -1200 -1877 -1449 -2110 c 2,100,-1
 -1560 -2212 l 2,101,102
 -1610 -2254 -1610 -2254 -1642 -2254 c 0,0,1
904 462 m 0,103,104
 904 626 904 626 774 697 c 0,105,106
 716 729 716 729 667 729 c 0,107,108
 586 729 586 729 498 654 c 0,109,110
 481 639 481 639 457 617 c 0,111,112
 335 500 335 500 253 316 c 0,113,114
 239 285 239 285 226 252 c 2,115,-1
 183 144 l 2,116,117
 180 137 180 137 180 136 c 2,118,-1
 180 135 l 1,119,120
 251 156 251 156 537 178 c 0,121,122
 743 193 743 193 783 206 c 0,123,124
 802 212 802 212 808 219 c 0,125,126
 895 318 895 318 903 443 c 0,127,128
 904 453 904 453 904 462 c 0,103,104
1622 464 m 2,129,130
 1622 629 1622 629 1492 699 c 0,131,132
 1436 729 1436 729 1387 729 c 0,133,134
 1377 729 1377 729 1372 728 c 0,135,136
 1267 728 1267 728 1163 595 c 0,137,138
 1127 549 1127 549 1030 395 c 0,139,140
 946 261 946 261 889 200 c 0,141,142
 881 192 881 192 881 191 c 0,143,144
 895 188 895 188 915 189 c 2,145,-1
 916 189 l 2,146,147
 1025 187 1025 187 1243 170 c 0,148,149
 1286 166 1286 166 1309 166 c 0,150,151
 1319 165 1319 165 1339 165 c 0,152,153
 1461 165 1461 165 1518 218 c 0,154,155
 1524 223 1524 223 1529 229 c 0,156,157
 1614 325 1614 325 1622 444 c 1,158,-1
 1622 464 l 2,129,130
EndSplineSet
Validated: 1
EndChar

StartChar: X
Encoding: 88 88 59
Width: 1837
Flags: W
LayerCount: 2
Fore
SplineSet
1329 861 m 0,0,1
 1506 861 1506 861 1639 874 c 0,2,3
 1659 876 1659 876 1676 876 c 2,4,-1
 1686 877 l 1,5,-1
 1703 924 l 1,6,7
 1821 1273 1821 1273 1890 1445 c 0,8,9
 2197 2204 2197 2204 2621 2561 c 0,10,11
 2670 2603 2670 2603 2704 2605 c 0,12,13
 2720 2605 2720 2605 2720 2591 c 0,14,15
 2720 2561 2720 2561 2648 2490 c 0,16,17
 2572 2417 2572 2417 2560 2404 c 0,18,19
 2282 2103 2282 2103 2064 1559 c 0,20,21
 2016 1439 2016 1439 1802 830 c 0,22,23
 1615 295 1615 295 1536 112 c 0,24,25
 1213 -627 1213 -627 522 -1364 c 2,26,-1
 443 -1448 l 2,27,28
 385 -1511 385 -1511 201 -1689 c 2,29,-1
 -147 -2016 l 1,30,31
 -229 -2086 -229 -2086 -253 -2097 c 0,32,33
 -266 -2102 -266 -2102 -279 -2102 c 0,34,35
 -282 -2102 -282 -2102 -284 -2102 c 0,36,37
 -293 -2102 -293 -2102 -293 -2090 c 0,38,39
 -294 -2055 -294 -2055 -233 -1999 c 2,40,-1
 -116 -1894 l 1,41,-1
 47 -1742 l 2,42,43
 83 -1706 83 -1706 110 -1682 c 2,44,-1
 345 -1447 l 2,45,46
 463 -1329 463 -1329 648 -1112 c 0,47,48
 750 -991 750 -991 831 -886 c 0,49,50
 1176 -434 1176 -434 1373 24 c 0,51,52
 1404 96 1404 96 1432 168 c 2,53,-1
 1443 196 l 2,54,55
 1442 196 1442 196 1390 151 c 0,56,57
 1198 -16 1198 -16 1051 -16 c 0,58,59
 889 -16 889 -16 815 140 c 0,60,61
 804 164 804 164 786 224 c 1,62,-1
 770 208 l 2,63,64
 637 79 637 79 499 20 c 0,65,66
 415 -16 415 -16 344 -16 c 0,67,68
 227 -16 227 -16 150 70 c 0,69,70
 76 153 76 153 76 277 c 0,71,72
 76 424 76 424 196 583 c 0,73,74
 255 662 255 662 364 757 c 1,75,-1
 375 766 l 1,76,-1
 348 766 l 1,77,78
 15 756 15 756 -136 626 c 0,79,80
 -186 583 -186 583 -218 583 c 0,81,82
 -234 583 -234 583 -234 598 c 0,83,84
 -234 631 -234 631 -167 691 c 0,85,86
 -40 806 -40 806 171 865 c 0,87,88
 329 909 329 909 508 909 c 0,89,90
 614 909 614 909 888 884 c 0,91,92
 1144 861 1144 861 1329 861 c 0,0,1
1014 722 m 1,93,-1
 539 760 l 1,94,95
 483 760 483 760 406 702 c 0,96,97
 293 617 293 617 261 492 c 0,98,99
 250 451 250 451 250 408 c 0,100,101
 250 243 250 243 381 174 c 0,102,103
 438 144 438 144 489 144 c 0,104,105
 582 144 582 144 678 220 c 0,106,107
 700 237 700 237 713 252 c 0,108,109
 766 312 766 312 802 402 c 0,110,111
 839 497 839 497 867 542 c 0,112,113
 919 627 919 627 1023 722 c 1,114,-1
 1014 722 l 1,93,-1
956 414 m 0,115,116
 956 245 956 245 1087 175 c 0,117,118
 1145 143 1145 143 1195 143 c 0,119,120
 1309 143 1309 143 1427 284 c 0,121,122
 1512 386 1512 386 1561 515 c 2,123,-1
 1629 707 l 1,124,-1
 1640 740 l 1,125,-1
 1640 741 l 1,126,-1
 1466 725 l 2,127,128
 1393 721 1393 721 1294 719 c 0,129,130
 1183 716 1183 716 1148 707 c 0,131,132
 1065 687 1065 687 1011 598 c 0,133,134
 959 511 959 511 956 414 c 0,115,116
EndSplineSet
Validated: 33
EndChar

StartChar: Y
Encoding: 89 89 60
Width: 0
Flags: W
LayerCount: 2
Fore
SplineSet
-1101 740 m 0,0,1
 -1111 740 -1111 740 -1111 750 c 0,2,3
 -1111 765 -1111 765 -1098 781 c 0,4,5
 -705 1270 -705 1270 -540 1450 c 0,6,7
 -313 1698 -313 1698 -156 1778 c 0,8,9
 -76 1819 -76 1819 2 1829 c 1,10,-1
 25 1830 l 1,11,12
 169 1830 169 1830 220 1716 c 0,13,14
 239 1672 239 1672 239 1622 c 0,15,16
 239 1508 239 1508 139 1398 c 0,17,18
 52 1302 52 1302 -51 1273 c 0,19,20
 -82 1264 -82 1264 -110 1264 c 0,21,22
 -191 1264 -191 1264 -231 1324 c 0,23,24
 -251 1355 -251 1355 -251 1393 c 0,25,26
 -251 1470 -251 1470 -169 1543 c 0,27,28
 -119 1587 -119 1587 -92 1588 c 0,29,30
 -81 1588 -81 1588 -81 1579 c 0,31,32
 -81 1565 -81 1565 -99 1542 c 0,33,34
 -118 1520 -118 1520 -118 1494 c 0,35,36
 -118 1458 -118 1458 -89 1425 c 0,37,38
 -56 1387 -56 1387 2 1387 c 0,39,40
 68 1386 68 1386 84 1427 c 0,41,42
 105 1470 105 1470 105 1520 c 0,43,44
 105 1614 105 1614 35 1669 c 0,45,46
 -13 1708 -13 1708 -78 1708 c 0,47,48
 -249 1708 -249 1708 -497 1419 c 1,49,-1
 -801 1053 l 1,50,-1
 -956 861 l 1,51,52
 -1059 740 -1059 740 -1101 740 c 0,0,1
EndSplineSet
Validated: 33
EndChar

StartChar: Z
Encoding: 90 90 61
Width: 1236
Flags: W
LayerCount: 2
Fore
SplineSet
409 906 m 0,0,1
 496 906 496 906 663 883 c 0,2,3
 802 864 802 864 909 864 c 0,4,5
 983 864 983 864 1085 873 c 1,6,-1
 1102 922 l 2,7,8
 1218 1264 1218 1264 1280 1419 c 0,9,10
 1591 2198 1591 2198 2021 2561 c 0,11,12
 2070 2603 2070 2603 2104 2605 c 0,13,14
 2120 2605 2120 2605 2120 2591 c 0,15,16
 2120 2561 2120 2561 2048 2490 c 0,17,18
 1972 2417 1972 2417 1960 2404 c 0,19,20
 1684 2105 1684 2105 1468 1568 c 0,21,22
 1413 1432 1413 1432 1202 830 c 0,23,24
 1015 295 1015 295 936 112 c 0,25,26
 617 -618 617 -618 -64 -1349 c 1,27,-1
 -157 -1448 l 2,28,29
 -215 -1511 -215 -1511 -399 -1689 c 2,30,-1
 -747 -2016 l 1,31,32
 -829 -2086 -829 -2086 -853 -2097 c 0,33,34
 -866 -2102 -866 -2102 -879 -2102 c 0,35,36
 -882 -2102 -882 -2102 -884 -2102 c 0,37,38
 -892 -2102 -892 -2102 -893 -2090 c 0,39,40
 -894 -2061 -894 -2061 -835 -2003 c 2,41,-1
 -553 -1742 l 2,42,43
 -517 -1706 -517 -1706 -490 -1682 c 2,44,-1
 -255 -1447 l 2,45,46
 -137 -1329 -137 -1329 48 -1112 c 0,47,48
 150 -991 150 -991 231 -886 c 0,49,50
 560 -455 560 -455 757 -13 c 0,51,52
 803 91 803 91 843 197 c 0,53,54
 856 229 856 229 856 230 c 1,55,56
 854 230 854 230 837 214 c 0,57,58
 593 -5 593 -5 408 -16 c 0,59,60
 399 -16 399 -16 391 -16 c 0,61,62
 269 -16 269 -16 184 66 c 128,-1,63
 99 148 99 148 99 272 c 0,64,65
 99 376 99 376 177 504 c 0,66,67
 264 644 264 644 412 755 c 1,68,69
 412 760 412 760 321 762 c 2,70,-1
 289 762 l 2,71,72
 59 762 59 762 -89 660 c 1,73,-1
 -175 597 l 2,74,75
 -196 584 -196 584 -216 582 c 0,76,77
 -233 582 -233 582 -233 598 c 0,78,79
 -233 629 -233 629 -163 693 c 0,80,81
 -39 806 -39 806 140 864 c 0,82,83
 222 890 222 890 305 900 c 0,84,85
 352 906 352 906 409 906 c 0,0,1
1039 738 m 1,86,87
 924 723 924 723 795 721 c 0,88,89
 745 721 745 721 626 730 c 0,90,91
 610 731 610 731 599 731 c 0,92,93
 464 731 464 731 366 624 c 0,94,95
 285 535 285 535 275 427 c 0,96,97
 274 415 274 415 274 403 c 0,98,99
 274 283 274 283 364 207 c 0,100,101
 438 144 438 144 536 144 c 0,102,103
 614 144 614 144 714 206 c 0,104,105
 881 311 881 311 960 513 c 1,106,-1
 1039 738 l 1,86,87
EndSplineSet
Validated: 33
EndChar

StartChar: bracketleft
Encoding: 91 91 62
Width: 0
Flags: W
LayerCount: 2
Fore
SplineSet
-884 1082 m 0,0,1
 -884 1113 -884 1113 -823 1161 c 0,2,3
 -781 1194 -781 1194 -763 1194 c 0,4,5
 -759 1194 -759 1194 -729 1183 c 0,6,7
 -693 1169 -693 1169 -631 1162 c 0,8,9
 -619 1160 -619 1160 -373 1159 c 0,10,11
 -109 1159 -109 1159 -67 1165 c 0,12,13
 -34 1169 -34 1169 15 1187 c 0,14,15
 33 1194 33 1194 41 1194 c 0,16,17
 50 1194 50 1194 50 1184 c 0,18,19
 50 1158 50 1158 -1 1112 c 0,20,21
 -13 1101 -13 1101 -24 1093 c 0,22,23
 -77 1055 -77 1055 -183 1041 c 0,24,25
 -201 1038 -201 1038 -218 1037 c 0,26,27
 -234 1036 -234 1036 -473 1036 c 0,28,29
 -736 1036 -736 1036 -785 1044 c 0,30,31
 -814 1049 -814 1049 -865 1067 c 0,32,33
 -883 1073 -883 1073 -884 1082 c 0,0,1
EndSplineSet
Validated: 1
EndChar

StartChar: backslash
Encoding: 92 92 63
Width: 696
Flags: W
LayerCount: 2
Fore
SplineSet
255 551 m 0,0,1
 299 551 299 551 427 528 c 0,2,3
 508 514 508 514 556 514 c 0,4,5
 628 514 628 514 660 544 c 0,6,7
 681 563 681 563 695 565 c 0,8,9
 702 567 702 567 710 567 c 0,10,11
 720 567 720 567 720 556 c 0,12,13
 720 532 720 532 674 488 c 0,14,15
 584 402 584 402 463 393 c 0,16,17
 450 392 450 392 437 392 c 0,18,19
 409 392 409 392 251 416 c 0,20,21
 174 428 174 428 142 428 c 0,22,23
 75 428 75 428 33 396 c 0,24,25
 8 376 8 376 -11 375 c 0,26,27
 -23 375 -23 375 -23 386 c 0,28,29
 -23 407 -23 407 22 452 c 0,30,31
 110 539 110 539 227 550 c 0,32,33
 241 551 241 551 255 551 c 0,0,1
EndSplineSet
Validated: 1
EndChar

StartChar: bracketright
Encoding: 93 93 64
Width: 958
Flags: W
LayerCount: 2
Fore
SplineSet
1143 307 m 0,0,1
 1157 307 1157 307 1157 293 c 0,2,3
 1157 251 1157 251 1063 174 c 0,4,5
 952 83 952 83 813 29 c 0,6,7
 707 -13 707 -13 608 -16 c 0,8,9
 587 -17 587 -17 551 -17 c 0,10,11
 438 -17 438 -17 397 -11 c 0,12,13
 240 11 240 11 163 124 c 0,14,15
 109 202 109 202 107 304 c 2,16,-1
 107 318 l 2,17,18
 107 414 107 414 173 532 c 0,19,20
 259 684 259 684 421 789 c 0,21,22
 555 876 555 876 683 887 c 0,23,24
 699 888 699 888 714 888 c 0,25,26
 796 888 796 888 834 868 c 0,27,28
 866 852 866 852 881 821 c 0,29,30
 890 802 890 802 890 777 c 0,31,32
 890 691 890 691 807 655 c 0,33,34
 778 642 778 642 756 642 c 0,35,36
 711 642 711 642 679 677 c 0,37,38
 651 708 651 708 641 715 c 0,39,40
 619 729 619 729 587 729 c 0,41,42
 492 729 492 729 415 692 c 0,43,44
 383 676 383 676 362 655 c 0,45,46
 296 589 296 589 284 476 c 0,47,48
 281 455 281 455 281 435 c 0,49,50
 281 263 281 263 439 184 c 0,51,52
 508 149 508 149 575 144 c 0,53,54
 610 143 610 143 703 143 c 0,55,56
 891 143 891 143 1021 234 c 1,57,-1
 1098 292 l 2,58,59
 1123 307 1123 307 1143 307 c 0,0,1
EndSplineSet
Validated: 1
EndChar

StartChar: asciicircum
Encoding: 94 94 65
Width: 0
Flags: W
LayerCount: 2
Fore
SplineSet
-1344 741 m 0,0,1
 -1355 741 -1355 741 -1355 751 c 0,2,3
 -1355 767 -1355 767 -1333 793 c 0,4,5
 -1275 862 -1275 862 -932 1245 c 0,6,7
 -766 1429 -766 1429 -719 1477 c 0,8,9
 -451 1748 -451 1748 -257 1806 c 0,10,11
 -215 1819 -215 1819 -182 1819 c 0,12,13
 -174 1820 -174 1820 -160 1820 c 0,14,15
 -52 1820 -52 1820 7 1738 c 0,16,17
 46 1683 46 1683 46 1611 c 0,18,19
 46 1513 46 1513 -42 1405 c 0,20,21
 -127 1300 -127 1300 -232 1266 c 0,22,23
 -269 1254 -269 1254 -304 1254 c 0,24,25
 -386 1254 -386 1254 -427 1313 c 0,26,27
 -449 1345 -449 1345 -449 1384 c 0,28,29
 -449 1448 -449 1448 -381 1521 c 0,30,31
 -327 1579 -327 1579 -287 1581 c 0,32,33
 -276 1581 -276 1581 -276 1571 c 0,34,35
 -276 1557 -276 1557 -295 1534 c 0,36,37
 -314 1512 -314 1512 -314 1487 c 0,38,39
 -314 1430 -314 1430 -265 1397 c 0,40,41
 -234 1377 -234 1377 -194 1377 c 0,42,43
 -137 1377 -137 1377 -120 1401 c 0,44,45
 -88 1449 -88 1449 -88 1511 c 0,46,47
 -88 1600 -88 1600 -153 1655 c 0,48,49
 -204 1697 -204 1697 -273 1697 c 0,50,51
 -434 1697 -434 1697 -655 1470 c 1,52,-1
 -707 1414 l 1,53,-1
 -1050 1029 l 2,54,55
 -1248 805 -1248 805 -1266 787 c 0,56,57
 -1315 742 -1315 742 -1344 741 c 0,0,1
EndSplineSet
Validated: 1
EndChar

StartChar: underscore
Encoding: 95 95 66
Width: 1132
Flags: W
LayerCount: 2
Fore
SplineSet
-408 19 m 2,0,1
 -426 19 -426 19 -426 35 c 0,2,3
 -426 75 -426 75 -357 127 c 0,4,5
 -321 155 -321 155 -299 160 c 0,6,7
 -250 169 -250 169 -81 169 c 0,8,9
 -12 169 -12 169 278 156 c 0,10,11
 372 152 372 152 435 152 c 0,12,13
 613 152 613 152 713 36 c 0,14,15
 794 -59 794 -59 794 -200 c 0,16,17
 794 -327 794 -327 700 -460 c 0,18,19
 599 -601 599 -601 451 -658 c 0,20,21
 373 -688 373 -688 294 -688 c 0,22,23
 141 -688 141 -688 42 -593 c 0,24,25
 -12 -541 -12 -541 -29 -478 c 0,26,27
 -35 -454 -35 -454 -35 -426 c 0,28,29
 -35 -331 -35 -331 56 -250 c 0,30,31
 110 -201 110 -201 148 -197 c 0,32,33
 163 -197 163 -197 164 -213 c 0,34,35
 164 -232 164 -232 144 -256 c 0,36,37
 120 -285 120 -285 120 -318 c 0,38,39
 120 -395 120 -395 193 -463 c 0,40,41
 283 -546 283 -546 412 -546 c 0,42,43
 591 -546 591 -546 630 -388 c 0,44,45
 639 -351 639 -351 639 -307 c 0,46,47
 639 -200 639 -200 574 -110 c 0,48,49
 500 -7 500 -7 377 6 c 0,50,51
 273 17 273 17 -93 25 c 0,52,53
 -150 26 -150 26 -183 26 c 0,54,55
 -263 26 -263 26 -388 19 c 1,56,-1
 -408 19 l 2,0,1
EndSplineSet
Validated: 1
EndChar

StartChar: grave
Encoding: 96 96 67
Width: 479
Flags: W
LayerCount: 2
Fore
SplineSet
-174 675 m 0,0,1
 -174 705 -174 705 -119 761 c 0,2,3
 -16 862 -16 862 135 895 c 0,4,5
 174 903 174 903 214 906 c 2,6,-1
 243 906 l 2,7,8
 330 906 330 906 368 825 c 0,9,10
 389 781 389 781 389 723 c 0,11,12
 389 628 389 628 320 444 c 0,13,14
 229 201 229 201 112 75 c 0,15,16
 43 0 43 0 -7 -14 c 0,17,18
 -14 -16 -14 -16 -20 -16 c 0,19,20
 -36 -16 -36 -16 -36 -3 c 0,21,22
 -36 17 -36 17 15 78 c 0,23,24
 32 98 32 98 37 106 c 0,25,26
 123 234 123 234 183 435 c 0,27,28
 215 540 215 540 215 590 c 0,29,30
 215 689 215 689 154 729 c 0,31,32
 128 747 128 747 94 747 c 0,33,34
 -15 747 -15 747 -90 695 c 0,35,36
 -131 667 -131 667 -143 664 c 0,37,38
 -150 662 -150 662 -158 662 c 0,39,40
 -174 662 -174 662 -174 675 c 0,0,1
EndSplineSet
Validated: 1
EndChar

StartChar: a
Encoding: 97 97 68
Width: 1253
Flags: W
LayerCount: 2
Fore
SplineSet
406 -17 m 0,0,1
 283 -17 283 -17 195 73 c 0,2,3
 100 169 100 169 100 316 c 0,4,5
 100 542 100 542 328 744 c 0,6,7
 476 876 476 876 629 888 c 1,8,-1
 659 888 l 2,9,10
 795 888 795 888 812 797 c 0,11,12
 814 787 814 787 814 775 c 0,13,14
 814 720 814 720 768 678 c 0,15,16
 730 642 730 642 678 642 c 0,17,18
 634 642 634 642 596 683 c 0,19,20
 565 716 565 716 552 722 c 0,21,22
 540 729 540 729 527 729 c 0,23,24
 523 729 523 729 509 728 c 0,25,26
 383 728 383 728 327 634 c 0,27,28
 313 612 313 612 301 581 c 0,29,30
 275 515 275 515 275 447 c 0,31,32
 275 350 275 350 326 269 c 0,33,34
 377 189 377 189 468 157 c 0,35,36
 506 144 506 144 549 144 c 0,37,38
 645 144 645 144 748 221 c 0,39,40
 807 266 807 266 857 332 c 0,41,42
 901 390 901 390 975 532 c 0,43,44
 1048 670 1048 670 1103 730 c 0,45,46
 1145 777 1145 777 1196 806 c 0,47,48
 1223 821 1223 821 1239 821 c 0,49,50
 1253 821 1253 821 1253 806 c 0,51,52
 1253 784 1253 784 1207 733 c 0,53,54
 1187 711 1187 711 1182 703 c 0,55,56
 1130 623 1130 623 1024 317 c 0,57,58
 953 113 953 113 930 59 c 0,59,60
 597 -705 597 -705 -185 -1498 c 1,61,-1
 -471 -1777 l 1,62,63
 -705 -1997 -705 -1997 -781 -2061 c 0,64,65
 -829 -2099 -829 -2099 -862 -2102 c 0,66,67
 -877 -2102 -877 -2102 -877 -2089 c 0,68,69
 -877 -2054 -877 -2054 -792 -1978 c 2,70,-1
 -477 -1686 l 1,71,72
 521 -733 521 -733 819 100 c 1,73,-1
 862 228 l 1,74,75
 747 131 747 131 694 94 c 0,76,77
 533 -17 533 -17 406 -17 c 0,0,1
EndSplineSet
Validated: 1
EndChar

StartChar: b
Encoding: 98 98 69
Width: 1845
Flags: W
LayerCount: 2
Fore
SplineSet
-233 598 m 0,0,1
 -233 632 -233 632 -164 694 c 0,2,3
 -36 809 -36 809 170 869 c 0,4,5
 329 915 329 915 505 915 c 0,6,7
 679 915 679 915 917 893 c 0,8,9
 1254 861 1254 861 1674 858 c 0,10,11
 1724 858 1724 858 1777 858 c 0,12,13
 1913 858 1913 858 1970 889 c 0,14,15
 1992 901 1992 901 2008 901 c 0,16,17
 2025 901 2025 901 2025 885 c 0,18,19
 2025 835 2025 835 1939 782 c 0,20,21
 1866 739 1866 739 1776 720 c 1,22,23
 1707 513 1707 513 1697 476 c 0,24,25
 1656 329 1656 329 1639 148 c 0,26,27
 1637 124 1637 124 1634 114 c 0,28,29
 1612 60 1612 60 1541 12 c 0,30,31
 1499 -16 1499 -16 1477 -16 c 1,32,33
 1465 -10 1465 -10 1464 0 c 0,34,35
 1464 65 1464 65 1492 218 c 0,36,37
 1494 230 1494 230 1496 238 c 1,38,39
 1494 238 1494 238 1477 222 c 0,40,41
 1268 13 1268 13 1101 -13 c 0,42,43
 1079 -16 1079 -16 1059 -16 c 0,44,45
 862 -16 862 -16 798 214 c 0,46,47
 796 224 796 224 795 224 c 2,48,-1
 779 208 l 2,49,50
 649 82 649 82 513 22 c 0,51,52
 426 -16 426 -16 353 -16 c 0,53,54
 239 -16 239 -16 162 67 c 0,55,56
 86 150 86 150 86 277 c 0,57,58
 86 507 86 507 373 757 c 2,59,-1
 390 772 l 1,60,-1
 387 772 l 2,61,62
 128 772 128 772 -42 686 c 0,63,64
 -96 659 -96 659 -137 624 c 0,65,66
 -184 583 -184 583 -216 583 c 0,67,68
 -233 583 -233 583 -233 598 c 0,0,1
1039 730 m 2,69,70
 1027 730 1027 730 716 757 c 0,71,72
 591 768 591 768 553 768 c 0,73,74
 464 768 464 768 362 651 c 0,75,76
 317 601 317 601 296 559 c 0,77,78
 260 482 260 482 260 406 c 0,79,80
 260 273 260 273 354 196 c 0,81,82
 394 164 394 164 440 151 c 0,83,84
 468 144 468 144 497 144 c 0,85,86
 598 144 598 144 694 225 c 0,87,88
 713 240 713 240 726 255 c 0,89,90
 780 317 780 317 812 402 c 0,91,92
 845 491 845 491 871 534 c 0,93,94
 922 619 922 619 1031 721 c 0,95,96
 1040 729 1040 729 1040 730 c 2,97,-1
 1039 730 l 2,69,70
966 411 m 0,98,99
 966 244 966 244 1097 174 c 0,100,101
 1155 144 1155 144 1203 144 c 0,102,103
 1274 144 1274 144 1342 196 c 0,104,105
 1459 286 1459 286 1522 410 c 0,106,107
 1537 441 1537 441 1596 586 c 2,108,-1
 1610 621 l 2,109,110
 1632 673 1632 673 1661 714 c 1,111,-1
 1573 715 l 1,112,-1
 1237 721 l 2,113,114
 1072 721 1072 721 1001 562 c 0,115,116
 966 484 966 484 966 411 c 0,98,99
EndSplineSet
Validated: 1
EndChar

StartChar: c
Encoding: 99 99 70
Width: 1247
Flags: W
LayerCount: 2
Fore
SplineSet
427 753 m 0,0,1
 427 759 427 759 315 763 c 0,2,3
 299 763 299 763 286 763 c 0,4,5
 64 763 64 763 -88 662 c 0,6,7
 -112 646 -112 646 -133 628 c 0,8,9
 -186 582 -186 582 -216 582 c 0,10,11
 -233 582 -233 582 -233 598 c 0,12,13
 -233 631 -233 631 -171 687 c 0,14,15
 76 903 76 903 410 906 c 0,16,17
 486 906 486 906 664 883 c 0,18,19
 810 864 810 864 916 864 c 0,20,21
 1026 864 1026 864 1069 872 c 0,22,23
 1073 872 1073 872 1074 873 c 2,24,-1
 1122 1031 l 1,25,26
 1341 1729 1341 1729 1682 2179 c 0,27,28
 1762 2285 1762 2285 1851 2382 c 0,29,30
 2055 2605 2055 2605 2117 2605 c 0,31,32
 2133 2605 2133 2605 2133 2590 c 0,33,34
 2133 2562 2133 2562 2081 2511 c 0,35,36
 1787 2245 1787 2245 1581 1851 c 0,37,38
 1257 1235 1257 1235 1042 138 c 0,39,40
 1030 76 1030 76 952 19 c 0,41,42
 906 -16 906 -16 881 -16 c 0,43,44
 866 -16 866 -16 866 -4 c 128,-1,45
 866 8 866 8 920 257 c 0,46,47
 923 272 923 272 923 273 c 2,48,-1
 923 274 l 2,49,50
 922 274 922 274 893 245 c 0,51,52
 846 201 846 201 772 146 c 0,53,54
 578 1 578 1 449 -14 c 0,55,56
 430 -16 430 -16 409 -16 c 0,57,58
 285 -16 285 -16 201 67 c 0,59,60
 116 148 116 148 116 273 c 0,61,62
 116 381 116 381 197 510 c 0,63,64
 229 562 229 562 272 611 c 0,65,66
 328 676 328 676 405 736 c 2,67,-1
 422 749 l 2,68,69
 427 752 427 752 427 753 c 0,0,1
789 721 m 2,70,-1
 617 729 l 1,71,72
 475 729 475 729 377 618 c 0,73,74
 299 528 299 528 292 420 c 0,75,76
 292 412 292 412 292 403 c 0,77,78
 292 242 292 242 432 174 c 0,79,80
 495 143 495 143 553 143 c 0,81,82
 657 143 657 143 781 239 c 0,83,84
 906 335 906 335 961 460 c 0,85,86
 968 475 968 475 973 491 c 2,87,-1
 1037 738 l 1,88,-1
 1037 739 l 1,89,90
 988 727 988 727 818 721 c 0,91,92
 800 721 800 721 789 721 c 2,70,-1
EndSplineSet
Validated: 1
EndChar

StartChar: d
Encoding: 100 100 71
Width: 1236
Flags: W
LayerCount: 2
Fore
SplineSet
674 642 m 0,0,1
 631 642 631 642 591 683 c 0,2,3
 559 716 559 716 545 722 c 0,4,5
 532 728 532 728 518 728 c 0,6,7
 513 728 513 728 505 728 c 0,8,9
 352 728 352 728 296 584 c 0,10,11
 271 520 271 520 271 446 c 0,12,13
 271 295 271 295 384 203 c 0,14,15
 409 182 409 182 434 170 c 0,16,17
 489 144 489 144 545 144 c 0,18,19
 647 144 647 144 770 240 c 0,20,21
 891 335 891 335 945 453 c 0,22,23
 953 471 953 471 959 489 c 2,24,-1
 1051 839 l 2,25,26
 1078 935 1078 935 1108 1031 c 0,27,28
 1327 1732 1327 1732 1674 2187 c 0,29,30
 1752 2288 1752 2288 1838 2382 c 0,31,32
 2042 2605 2042 2605 2103 2605 c 0,33,34
 2119 2605 2119 2605 2119 2591 c 0,35,36
 2119 2558 2119 2558 2054 2498 c 0,37,38
 1769 2239 1769 2239 1563 1841 c 0,39,40
 1248 1230 1248 1230 1029 138 c 0,41,42
 1016 71 1016 71 935 15 c 0,43,44
 890 -16 890 -16 868 -16 c 0,45,46
 853 -16 853 -16 853 -4 c 0,47,48
 853 22 853 22 900 231 c 0,49,50
 908 266 908 266 910 273 c 1,51,52
 908 273 908 273 894 259 c 0,53,54
 670 45 670 45 489 -4 c 0,55,56
 443 -16 443 -16 401 -16 c 0,57,58
 282 -16 282 -16 194 70 c 0,59,60
 97 165 97 165 97 312 c 0,61,62
 97 492 97 492 237 659 c 0,63,64
 350 793 350 793 496 855 c 0,65,66
 575 888 575 888 643 888 c 0,67,68
 808 888 808 888 808 778 c 0,69,70
 808 776 808 776 808 775 c 0,71,72
 808 703 808 703 743 663 c 0,73,74
 709 642 709 642 674 642 c 0,0,1
EndSplineSet
Validated: 1
EndChar

StartChar: e
Encoding: 101 101 72
Width: 1253
Flags: W
LayerCount: 2
Fore
SplineSet
-20 -16 m 0,0,1
 -35 -16 -35 -16 -35 -3 c 0,2,3
 -35 19 -35 19 -16 40 c 0,4,5
 34 97 34 97 74 180 c 0,6,7
 100 235 100 235 128 309 c 0,8,9
 169 418 169 418 229 618 c 2,10,-1
 365 1050 l 1,11,12
 506 1471 506 1471 669 1766 c 0,13,14
 829 2058 829 2058 1025 2272 c 0,15,16
 1214 2478 1214 2478 1276 2478 c 0,17,18
 1290 2478 1290 2478 1290 2465 c 0,19,20
 1290 2436 1290 2436 1222 2368 c 0,21,22
 1124 2271 1124 2271 1116 2263 c 2,23,-1
 1094 2238 l 2,24,25
 925 2045 925 2045 803 1807 c 0,26,27
 617 1445 617 1445 402 734 c 2,28,-1
 359 593 l 2,29,30
 359 605 359 605 501 716 c 0,31,32
 562 765 562 765 593 785 c 0,33,34
 752 889 752 889 875 889 c 0,35,36
 997 889 997 889 1082 807 c 0,37,38
 1166 725 1166 725 1166 601 c 0,39,40
 1166 481 1166 481 1079 348 c 0,41,42
 1015 251 1015 251 913 166 c 0,43,44
 908 161 908 161 908 160 c 0,45,46
 911 157 911 157 986 157 c 0,47,48
 1208 157 1208 157 1323 238 c 1,49,-1
 1385 285 l 2,50,51
 1406 298 1406 298 1428 298 c 2,52,-1
 1432 298 l 2,53,54
 1445 298 1445 298 1445 284 c 0,55,56
 1445 251 1445 251 1380 192 c 0,57,58
 1261 86 1261 86 1080 40 c 0,59,60
 978 14 978 14 870 14 c 0,61,62
 786 14 786 14 598 34 c 0,63,64
 481 46 481 46 398 46 c 0,65,66
 204 46 204 46 18 -8 c 0,67,68
 -11 -16 -11 -16 -20 -16 c 0,0,1
513 189 m 1,69,-1
 690 182 l 1,70,71
 819 182 819 182 882 233 c 0,72,73
 889 238 889 238 894 243 c 0,74,75
 974 322 974 322 989 433 c 0,76,77
 992 452 992 452 992 470 c 0,78,79
 992 587 992 587 909 662 c 0,80,81
 835 728 835 728 725 728 c 0,82,83
 716 728 716 728 713 728 c 0,84,85
 630 728 630 728 522 644 c 0,86,87
 363 521 363 521 238 272 c 0,88,89
 196 186 196 186 173 152 c 0,90,91
 170 148 170 148 170 147 c 2,92,-1
 287 171 l 1,93,94
 396 189 396 189 513 189 c 1,69,-1
EndSplineSet
Validated: 5
EndChar

StartChar: f
Encoding: 102 102 73
Width: 1863
Flags: W
LayerCount: 2
Fore
SplineSet
1480 -3 m 2,0,-1
 1531 248 l 1,1,-1
 1531 249 l 2,2,3
 1530 249 1530 249 1512 231 c 0,4,5
 1261 -16 1261 -16 1087 -16 c 0,6,7
 970 -16 970 -16 892 79 c 0,8,9
 843 140 843 140 820 232 c 1,10,-1
 805 217 l 2,11,12
 628 44 628 44 467 -2 c 0,13,14
 417 -16 417 -16 372 -16 c 0,15,16
 262 -16 262 -16 183 73 c 0,17,18
 99 168 99 168 99 314 c 0,19,20
 99 478 99 478 222 642 c 0,21,22
 327 782 327 782 466 849 c 0,23,24
 526 878 526 878 582 886 c 0,25,26
 594 888 594 888 625 888 c 0,27,28
 760 888 760 888 778 800 c 0,29,30
 781 789 781 789 781 776 c 0,31,32
 781 705 781 705 717 664 c 0,33,34
 682 642 682 642 647 642 c 0,35,36
 600 642 600 642 568 678 c 0,37,38
 541 708 541 708 531 715 c 0,39,40
 509 729 509 729 477 729 c 0,41,42
 383 729 383 729 337 660 c 0,43,44
 326 643 326 643 314 617 c 0,45,46
 273 535 273 535 273 443 c 0,47,48
 273 292 273 292 378 199 c 0,49,50
 405 176 405 176 431 163 c 0,51,52
 473 143 473 143 519 143 c 0,53,54
 611 143 611 143 697 213 c 0,55,56
 793 291 793 291 828 428 c 0,57,58
 865 573 865 573 992 707 c 0,59,60
 1120 841 1120 841 1257 878 c 0,61,62
 1297 889 1297 889 1334 889 c 0,63,64
 1481 889 1481 889 1495 793 c 0,65,66
 1496 784 1496 784 1496 775 c 0,67,68
 1496 722 1496 722 1450 679 c 0,69,70
 1411 642 1411 642 1360 642 c 0,71,72
 1316 642 1316 642 1283 677 c 0,73,74
 1255 708 1255 708 1245 715 c 0,75,76
 1223 729 1223 729 1193 729 c 0,77,78
 1099 729 1099 729 1053 661 c 0,79,80
 1040 642 1040 642 1026 613 c 0,81,82
 987 530 987 530 987 443 c 0,83,84
 987 319 987 319 1060 230 c 0,85,86
 1088 196 1088 196 1125 174 c 0,87,88
 1175 144 1175 144 1231 144 c 0,89,90
 1334 144 1334 144 1448 265 c 0,91,92
 1537 360 1537 360 1578 467 c 0,93,94
 1589 497 1589 497 1623 636 c 0,95,96
 1666 809 1666 809 1735 1031 c 0,97,98
 1953 1729 1953 1729 2297 2182 c 0,99,100
 2376 2286 2376 2286 2465 2382 c 0,101,102
 2669 2605 2669 2605 2730 2605 c 0,103,104
 2746 2605 2746 2605 2746 2591 c 0,105,106
 2746 2558 2746 2558 2681 2498 c 0,107,108
 2534 2365 2534 2365 2418 2208 c 0,109,110
 2177 1885 2177 1885 1998 1406 c 0,111,112
 1803 886 1803 886 1656 138 c 0,113,114
 1643 71 1643 71 1562 15 c 0,115,116
 1517 -16 1517 -16 1495 -16 c 0,117,118
 1480 -16 1480 -16 1480 -3 c 2,0,-1
EndSplineSet
Validated: 1
EndChar

StartChar: g
Encoding: 103 103 74
Width: 1880
Flags: W
LayerCount: 2
Fore
SplineSet
1493 64 m 0,0,1
 1493 166 1493 166 1504 218 c 1,2,-1
 1503 219 l 1,3,-1
 1471 190 l 2,4,5
 1428 148 1428 148 1363 99 c 0,6,7
 1209 -16 1209 -16 1092 -16 c 0,8,9
 992 -16 992 -16 914 59 c 0,10,11
 846 126 846 126 824 232 c 0,12,13
 821 232 821 232 796 206 c 0,14,15
 748 158 748 158 674 104 c 0,16,17
 508 -16 508 -16 377 -16 c 0,18,19
 278 -16 278 -16 201 60 c 0,20,21
 131 128 131 128 110 235 c 0,22,23
 102 269 102 269 102 310 c 0,24,25
 102 521 102 521 290 715 c 0,26,27
 418 848 418 848 554 880 c 0,28,29
 577 886 577 886 603 888 c 0,30,31
 606 888 606 888 616 888 c 0,32,33
 767 888 767 888 782 798 c 0,34,35
 784 787 784 787 784 775 c 0,36,37
 784 709 784 709 724 667 c 0,38,39
 688 642 688 642 649 642 c 0,40,41
 605 642 605 642 572 677 c 0,42,43
 544 708 544 708 534 715 c 0,44,45
 513 729 513 729 482 729 c 0,46,47
 395 729 395 729 353 675 c 0,48,49
 279 570 279 570 277 443 c 0,50,51
 277 335 277 335 340 246 c 0,52,53
 412 143 412 143 521 143 c 0,54,55
 624 143 624 143 711 222 c 0,56,57
 793 296 793 296 830 421 c 0,58,59
 879 588 879 588 1014 724 c 0,60,61
 1148 860 1148 860 1290 884 c 0,62,63
 1316 889 1316 889 1341 889 c 0,64,65
 1470 889 1470 889 1494 807 c 0,66,67
 1499 792 1499 792 1499 776 c 0,68,69
 1499 708 1499 708 1438 666 c 0,70,71
 1403 642 1403 642 1367 642 c 0,72,73
 1319 642 1319 642 1286 678 c 0,74,75
 1258 709 1258 709 1248 715 c 0,76,77
 1227 729 1227 729 1196 729 c 0,78,79
 1130 729 1130 729 1089 698 c 0,80,81
 1083 694 1083 694 1079 689 c 0,82,83
 1004 606 1004 606 992 472 c 0,84,85
 991 456 991 456 991 443 c 0,86,87
 991 257 991 257 1125 179 c 0,88,89
 1184 144 1184 144 1236 144 c 0,90,91
 1342 144 1342 144 1443 263 c 0,92,93
 1466 290 1466 290 1485 320 c 0,94,95
 1527 385 1527 385 1596 524 c 0,96,97
 1656 645 1656 645 1719 716 c 0,98,99
 1740 740 1740 740 1764 763 c 0,100,101
 1824 816 1824 816 1864 821 c 0,102,103
 1879 821 1879 821 1879 806 c 0,104,105
 1879 787 1879 787 1854 758 c 0,106,107
 1797 693 1797 693 1761 619 c 0,108,109
 1745 584 1745 584 1730 544 c 0,110,111
 1667 379 1667 379 1667 191 c 1,112,-1
 1670 129 l 2,113,114
 1670 88 1670 88 1596 30 c 0,115,116
 1539 -16 1539 -16 1512 -16 c 0,117,118
 1498 -16 1498 -16 1495 -4 c 0,119,120
 1493 6 1493 6 1493 64 c 0,0,1
EndSplineSet
Validated: 1
EndChar

StartChar: h
Encoding: 104 104 75
Width: 1253
Flags: W
LayerCount: 2
Fore
SplineSet
405 -16 m 0,0,1
 284 -16 284 -16 196 72 c 0,2,3
 101 168 101 168 101 312 c 0,4,5
 101 484 101 484 235 651 c 0,6,7
 346 787 346 787 489 852 c 0,8,9
 571 888 571 888 641 888 c 0,10,11
 777 888 777 888 805 823 c 0,12,13
 814 802 814 802 814 775 c 0,14,15
 814 720 814 720 768 678 c 0,16,17
 729 642 729 642 679 642 c 0,18,19
 634 642 634 642 601 678 c 0,20,21
 572 709 572 709 562 716 c 0,22,23
 540 729 540 729 511 729 c 0,24,25
 356 729 356 729 299 583 c 0,26,27
 275 520 275 520 275 446 c 0,28,29
 275 296 275 296 387 203 c 0,30,31
 413 182 413 182 438 170 c 0,32,33
 493 143 493 143 550 143 c 0,34,35
 645 143 645 143 745 219 c 0,36,37
 820 275 820 275 881 366 c 0,38,39
 919 423 919 423 987 553 c 0,40,41
 1045 665 1045 665 1109 733 c 0,42,43
 1123 748 1123 748 1139 763 c 0,44,45
 1199 818 1199 818 1239 821 c 0,46,47
 1253 821 1253 821 1253 806 c 0,48,49
 1253 784 1253 784 1227 755 c 0,50,51
 1174 695 1174 695 1144 635 c 0,52,53
 1123 595 1123 595 1104 544 c 0,54,55
 1042 375 1042 375 1042 194 c 1,56,-1
 1044 129 l 2,57,58
 1044 89 1044 89 971 30 c 0,59,60
 913 -16 913 -16 887 -16 c 0,61,62
 873 -16 873 -16 870 -4 c 128,-1,63
 867 8 867 8 867 68 c 0,64,65
 867 156 867 156 883 250 c 1,66,-1
 866 233 l 2,67,68
 745 114 745 114 610 44 c 0,69,70
 496 -16 496 -16 405 -16 c 0,0,1
EndSplineSet
Validated: 1
EndChar

StartChar: i
Encoding: 105 105 76
Width: 1148
Flags: W
LayerCount: 2
Fore
SplineSet
201 124 m 0,0,1
 128 124 128 124 92 206 c 0,2,3
 70 256 70 256 70 324 c 0,4,5
 70 518 70 518 231 679 c 0,6,7
 361 809 361 809 535 863 c 0,8,9
 604 884 604 884 666 888 c 1,10,-1
 701 888 l 2,11,12
 841 888 841 888 940 782 c 0,13,14
 1039 675 1039 675 1044 519 c 1,15,-1
 1044 503 l 2,16,17
 1044 242 1044 242 683 -272 c 0,18,19
 344 -754 344 -754 -194 -1296 c 0,20,21
 -378 -1481 -378 -1481 -567 -1653 c 0,22,23
 -647 -1725 -647 -1725 -684 -1725 c 0,24,25
 -698 -1725 -698 -1725 -698 -1711 c 0,26,27
 -698 -1678 -698 -1678 -612 -1600 c 0,28,29
 -89 -1124 -89 -1124 311 -634 c 0,30,31
 734 -114 734 -114 839 208 c 0,32,33
 870 302 870 302 870 373 c 0,34,35
 870 495 870 495 801 595 c 0,36,37
 723 706 723 706 590 727 c 0,38,39
 578 728 578 728 551 728 c 0,40,41
 317 728 317 728 260 568 c 0,42,43
 244 524 244 524 244 472 c 0,44,45
 244 408 244 408 287 354 c 0,46,47
 321 313 321 313 327 299 c 0,48,49
 336 279 336 279 336 257 c 0,50,51
 336 186 336 186 273 146 c 0,52,53
 238 124 238 124 201 124 c 0,0,1
EndSplineSet
Validated: 1
EndChar

StartChar: j
Encoding: 106 106 77
Width: 1740
Flags: W
LayerCount: 2
Fore
SplineSet
1196 797 m 0,0,1
 1410 797 1410 797 1523 881 c 1,2,-1
 1591 936 l 2,3,4
 1614 951 1614 951 1638 951 c 0,5,6
 1654 951 1654 951 1654 937 c 0,7,8
 1654 896 1654 896 1552 814 c 0,9,10
 1513 781 1513 781 1470 754 c 0,11,12
 1298 644 1298 644 1083 637 c 0,13,14
 1066 637 1066 637 1048 637 c 0,15,16
 949 637 949 637 808 658 c 0,17,18
 788 661 788 661 776 662 c 0,19,20
 527 618 527 618 357 487 c 0,21,22
 146 324 146 324 146 80 c 0,23,24
 146 -132 146 -132 292 -283 c 0,25,26
 437 -435 437 -435 672 -468 c 0,27,28
 729 -476 729 -476 788 -476 c 0,29,30
 1036 -476 1036 -476 1187 -362 c 0,31,32
 1253 -312 1253 -312 1293 -243 c 128,-1,33
 1333 -174 1333 -174 1333 -116 c 0,34,35
 1333 -83 1333 -83 1300 -41 c 0,36,37
 1266 3 1266 3 1261 31 c 0,38,39
 1260 39 1260 39 1260 48 c 0,40,41
 1260 114 1260 114 1318 156 c 0,42,43
 1355 181 1355 181 1394 181 c 0,44,45
 1446 181 1446 181 1479 133 c 0,46,47
 1508 91 1508 91 1508 24 c 0,48,49
 1508 -135 1508 -135 1327 -329 c 0,50,51
 1294 -364 1294 -364 1261 -394 c 0,52,53
 1003 -624 1003 -624 678 -635 c 0,54,55
 663 -636 663 -636 647 -636 c 0,56,57
 371 -636 371 -636 183 -489 c 0,58,59
 23 -363 23 -363 -16 -175 c 0,60,61
 -27 -122 -27 -122 -27 -68 c 0,62,63
 -27 89 -27 89 46 227 c 2,64,-1
 61 255 l 1,65,66
 184 470 184 470 431 631 c 0,67,68
 493 671 493 671 552 701 c 1,69,70
 552 711 552 711 330 736 c 0,71,72
 215 748 215 748 170 748 c 0,73,74
 6 748 6 748 -78 687 c 2,75,-1
 -122 654 l 2,76,77
 -139 644 -139 644 -158 644 c 0,78,79
 -174 644 -174 644 -174 657 c 0,80,81
 -174 685 -174 685 -115 743 c 0,82,83
 -7 847 -7 847 141 888 c 0,84,85
 183 899 183 899 226 904 c 0,86,87
 269 908 269 908 317 908 c 0,88,89
 469 908 469 908 720 859 c 0,90,91
 963 812 963 812 1068 803 c 0,92,93
 1134 797 1134 797 1196 797 c 0,0,1
EndSplineSet
Validated: 1
EndChar

StartChar: k
Encoding: 107 107 78
Width: 1044
Flags: W
LayerCount: 2
Fore
SplineSet
131 40 m 1,0,1
 48 115 48 115 37 249 c 0,2,3
 36 267 36 267 36 286 c 0,4,5
 36 574 36 574 462 1152 c 0,6,7
 808 1620 808 1620 1317 2128 c 1,8,-1
 1527 2332 l 2,9,10
 1651 2448 1651 2448 1680 2472 c 0,11,12
 1744 2525 1744 2525 1773 2525 c 0,13,14
 1788 2525 1788 2525 1788 2511 c 0,15,16
 1788 2478 1788 2478 1707 2404 c 0,17,18
 1186 1932 1186 1932 784 1441 c 0,19,20
 355 918 355 918 244 591 c 0,21,22
 209 490 209 490 209 415 c 0,23,24
 209 342 209 342 244 267 c 0,25,26
 301 143 301 143 422 143 c 0,27,28
 510 143 510 143 587 197 c 0,29,30
 633 230 633 230 645 234 c 0,31,32
 655 238 655 238 663 238 c 0,33,34
 679 238 679 238 679 224 c 0,35,36
 679 198 679 198 624 141 c 0,37,38
 522 36 522 36 381 -1 c 0,39,40
 350 -10 350 -10 318 -14 c 0,41,42
 196 -29 196 -29 67 -92 c 0,43,44
 -29 -139 -29 -139 -89 -200 c 0,45,46
 -174 -284 -174 -284 -174 -395 c 0,47,48
 -174 -534 -174 -534 -71 -630 c 0,49,50
 36 -725 36 -725 181 -727 c 0,51,52
 297 -727 297 -727 389 -688 c 0,53,54
 433 -670 433 -670 444 -650 c 0,55,56
 470 -607 470 -607 470 -548 c 0,57,58
 470 -494 470 -494 430 -442 c 0,59,60
 397 -399 397 -399 391 -379 c 0,61,62
 386 -364 386 -364 386 -347 c 0,63,64
 386 -260 386 -260 469 -225 c 0,65,66
 498 -213 498 -213 521 -213 c 0,67,68
 589 -213 589 -213 623 -294 c 0,69,70
 644 -344 644 -344 644 -409 c 0,71,72
 644 -535 644 -535 537 -660 c 0,73,74
 418 -800 418 -800 235 -856 c 0,75,76
 139 -887 139 -887 38 -887 c 0,77,78
 -133 -887 -133 -887 -244 -776 c 0,79,80
 -344 -678 -344 -678 -348 -540 c 0,81,82
 -348 -535 -348 -535 -348 -529 c 0,83,84
 -348 -365 -348 -365 -174 -184 c 0,85,86
 -45 -50 -45 -50 131 40 c 1,0,1
EndSplineSet
Validated: 1
EndChar

StartChar: l
Encoding: 108 108 79
Width: 958
Flags: W
LayerCount: 2
Fore
SplineSet
-157 644 m 0,0,1
 -173 644 -173 644 -173 657 c 0,2,3
 -173 682 -173 682 -120 738 c 0,4,5
 -18 846 -18 846 124 887 c 0,6,7
 193 907 193 907 265 906 c 0,8,9
 358 905 358 905 419 838 c 0,10,11
 477 774 477 774 563 578 c 2,12,-1
 658 365 l 1,13,14
 749 183 749 183 831 164 c 0,15,16
 844 161 844 161 860 161 c 0,17,18
 932 161 932 161 1027 235 c 0,19,20
 1097 288 1097 288 1107 294 c 0,21,22
 1129 307 1129 307 1144 307 c 1,23,24
 1157 300 1157 300 1158 291 c 0,25,26
 1158 260 1158 260 1079 186 c 0,27,28
 963 76 963 76 837 27 c 0,29,30
 770 1 770 1 716 1 c 0,31,32
 628 1 628 1 563 87 c 0,33,34
 511 156 511 156 425 353 c 2,35,-1
 378 463 l 1,36,37
 306 360 306 360 182 241 c 0,38,39
 -58 11 -58 11 -223 11 c 0,40,41
 -315 11 -315 11 -376 68 c 0,42,43
 -399 90 -399 90 -399 102 c 0,44,45
 -399 134 -399 134 -339 190 c 0,46,47
 -280 247 -280 247 -243 248 c 0,48,49
 -230 248 -230 248 -218 233 c 0,50,51
 -195 205 -195 205 -162 189 c 0,52,53
 -124 171 -124 171 -81 171 c 0,54,55
 -2 171 -2 171 82 246 c 0,56,57
 246 392 246 392 286 504 c 0,58,59
 298 538 298 538 298 568 c 0,60,61
 298 634 298 634 246 689 c 0,62,63
 192 746 192 746 115 746 c 0,64,65
 6 746 6 746 -76 687 c 0,66,67
 -123 654 -123 654 -132 650 c 0,68,69
 -145 644 -145 644 -157 644 c 0,0,1
EndSplineSet
Validated: 33
EndChar

StartChar: m
Encoding: 109 109 80
Width: 1462
Flags: W
LayerCount: 2
Fore
SplineSet
1193 797 m 0,0,1
 1410 797 1410 797 1524 882 c 1,2,-1
 1591 936 l 2,3,4
 1614 951 1614 951 1638 951 c 0,5,6
 1654 951 1654 951 1654 937 c 0,7,8
 1654 896 1654 896 1552 814 c 0,9,10
 1513 781 1513 781 1470 754 c 0,11,12
 1302 647 1302 647 1092 638 c 0,13,14
 1069 637 1069 637 1045 637 c 0,15,16
 934 637 934 637 797 659 c 0,17,18
 705 674 705 674 632 674 c 0,19,20
 317 674 317 674 227 471 c 0,21,22
 196 402 196 402 196 316 c 0,23,24
 196 176 196 176 289 92 c 0,25,26
 363 24 363 24 468 24 c 0,27,28
 513 24 513 24 631 42 c 0,29,30
 700 53 700 53 750 53 c 0,31,32
 895 53 895 53 976 -48 c 0,33,34
 1039 -127 1039 -127 1039 -244 c 0,35,36
 1039 -353 1039 -353 953 -549 c 0,37,38
 937 -585 937 -585 920 -620 c 0,39,40
 669 -1124 669 -1124 -30 -1588 c 1,41,-1
 -128 -1652 l 1,42,-1
 -325 -1777 l 2,43,44
 -375 -1806 -375 -1806 -408 -1806 c 0,45,46
 -428 -1806 -428 -1806 -428 -1793 c 0,47,48
 -428 -1767 -428 -1767 -370 -1725 c 2,49,-1
 -302 -1680 l 1,50,51
 116 -1419 116 -1419 340 -1223 c 0,52,53
 695 -913 695 -913 820 -567 c 0,54,55
 839 -515 839 -515 853 -461 c 0,56,57
 865 -414 865 -414 865 -374 c 0,58,59
 865 -246 865 -246 780 -170 c 0,60,61
 710 -107 710 -107 604 -107 c 0,62,63
 558 -107 558 -107 441 -126 c 0,64,65
 375 -136 375 -136 328 -136 c 0,66,67
 183 -136 183 -136 97 -35 c 0,68,69
 22 52 22 52 22 185 c 0,70,71
 22 379 22 379 183 560 c 0,72,73
 270 658 270 658 382 725 c 0,74,75
 387 728 387 728 387 729 c 0,76,77
 366 739 366 739 217 747 c 0,78,79
 189 748 189 748 174 748 c 0,80,81
 6 748 6 748 -79 686 c 2,82,-1
 -123 654 l 2,83,84
 -140 644 -140 644 -158 644 c 0,85,86
 -174 644 -174 644 -174 657 c 0,87,88
 -174 685 -174 685 -115 743 c 0,89,90
 -7 847 -7 847 141 888 c 0,91,92
 183 899 183 899 226 904 c 0,93,94
 269 908 269 908 317 908 c 0,95,96
 474 908 474 908 722 859 c 0,97,98
 959 813 959 813 1059 804 c 0,99,100
 1128 797 1128 797 1193 797 c 0,0,1
EndSplineSet
Validated: 1
EndChar

StartChar: n
Encoding: 110 110 81
Width: 1253
Flags: W
LayerCount: 2
Fore
SplineSet
438 762 m 1,0,1
 398 768 398 768 311 768 c 0,2,3
 75 768 75 768 -69 673 c 1,4,-1
 -168 601 l 2,5,6
 -174 597 -174 597 -180 594 c 0,7,8
 -202 582 -202 582 -216 582 c 0,9,10
 -233 582 -233 582 -233 598 c 0,11,12
 -233 631 -233 631 -164 694 c 0,13,14
 -39 808 -39 808 151 868 c 0,15,16
 271 905 271 905 398 911 c 1,17,-1
 450 911 l 2,18,19
 545 910 545 910 742 886 c 0,20,21
 978 858 978 858 1227 858 c 0,22,23
 1315 858 1315 858 1378 889 c 0,24,25
 1403 901 1403 901 1416 901 c 0,26,27
 1433 901 1433 901 1433 885 c 0,28,29
 1433 835 1433 835 1347 782 c 0,30,31
 1274 739 1274 739 1184 720 c 1,32,33
 1115 513 1115 513 1105 476 c 0,34,35
 1064 329 1064 329 1047 148 c 0,36,37
 1045 124 1045 124 1042 114 c 0,38,39
 1020 60 1020 60 949 12 c 0,40,41
 907 -16 907 -16 885 -16 c 1,42,43
 873 -10 873 -10 872 0 c 0,44,45
 872 61 872 61 899 200 c 0,46,47
 909 247 909 247 909 265 c 1,48,49
 794 150 794 150 659 70 c 0,50,51
 515 -16 515 -16 407 -16 c 0,52,53
 279 -16 279 -16 194 73 c 0,54,55
 117 154 117 154 117 271 c 0,56,57
 117 467 117 467 326 667 c 0,58,59
 378 717 378 717 438 762 c 1,0,1
292 403 m 0,60,61
 292 283 292 283 378 208 c 0,62,63
 451 144 451 144 553 144 c 0,64,65
 679 144 679 144 809 266 c 0,66,67
 928 378 928 378 982 526 c 0,68,69
 1027 657 1027 657 1069 714 c 1,70,-1
 956 718 l 2,71,72
 810 722 810 722 657 738 c 0,73,74
 629 741 629 741 610 741 c 0,75,76
 519 741 519 741 426 666 c 0,77,78
 320 580 320 580 297 459 c 0,79,80
 292 431 292 431 292 403 c 0,60,61
EndSplineSet
Validated: 1
EndChar

StartChar: o
Encoding: 111 111 82
Width: 1566
Flags: W
LayerCount: 2
Fore
SplineSet
451 -34 m 0,0,1
 291 -34 291 -34 187 60 c 0,2,3
 87 150 87 150 87 287 c 0,4,5
 87 462 87 462 266 604 c 0,6,7
 368 684 368 684 470 716 c 0,8,9
 477 718 477 718 483 720 c 0,10,11
 536 734 536 734 590 734 c 0,12,13
 710 734 710 734 799 651 c 0,14,15
 870 586 870 586 969 422 c 2,16,-1
 994 381 l 1,17,-1
 1005 398 l 1,18,19
 1134 614 1134 614 1233 965 c 1,20,-1
 1361 1442 l 1,21,22
 1465 1804 1465 1804 1608 2035 c 0,23,24
 1681 2153 1681 2153 1772 2255 c 0,25,26
 1926 2428 1926 2428 1985 2428 c 0,27,28
 2001 2428 2001 2428 2001 2415 c 0,29,30
 2001 2389 2001 2389 1950 2337 c 0,31,32
 1868 2251 1868 2251 1845 2225 c 0,33,34
 1811 2184 1811 2184 1783 2141 c 0,35,36
 1644 1930 1644 1930 1545 1597 c 0,37,38
 1533 1557 1533 1557 1440 1216 c 0,39,40
 1392 1036 1392 1036 1350 911 c 0,41,42
 1245 596 1245 596 1115 404 c 0,43,44
 1085 358 1085 358 1052 318 c 0,45,46
 1043 307 1043 307 1043 305 c 2,47,-1
 1044 303 l 1,48,-1
 1076 260 l 2,49,50
 1144 175 1144 175 1218 146 c 0,51,52
 1267 126 1267 126 1321 126 c 0,53,54
 1485 126 1485 126 1615 222 c 2,55,-1
 1701 288 l 2,56,57
 1729 307 1729 307 1751 307 c 0,58,59
 1765 307 1765 307 1765 294 c 0,60,61
 1765 253 1765 253 1675 175 c 0,62,63
 1547 64 1547 64 1383 5 c 0,64,65
 1299 -24 1299 -24 1222 -32 c 0,66,67
 1207 -33 1207 -33 1179 -33 c 0,68,69
 1012 -33 1012 -33 898 122 c 0,70,71
 888 136 888 136 881 142 c 0,72,73
 879 142 879 142 833 107 c 0,74,75
 649 -34 649 -34 451 -34 c 0,0,1
795 280 m 2,76,77
 688 457 688 457 612 517 c 0,78,79
 541 573 541 573 452 573 c 2,80,-1
 420 573 l 1,81,82
 331 563 331 563 299 534 c 0,83,84
 261 499 261 499 261 415 c 0,85,86
 261 338 261 338 303 273 c 0,87,88
 370 173 370 173 497 139 c 0,89,90
 545 126 545 126 595 126 c 0,91,92
 728 126 728 126 831 196 c 0,93,94
 841 202 841 202 841 204 c 2,95,-1
 795 280 l 2,76,77
EndSplineSet
Validated: 1
EndChar

StartChar: p
Encoding: 112 112 83
Width: 0
Flags: W
LayerCount: 2
Fore
SplineSet
-142 1147 m 0,0,1
 -41 1147 -41 1147 1 1181 c 2,2,-1
 33 1207 l 2,3,4
 47 1216 47 1216 65 1221 c 1,5,-1
 74 1221 l 2,6,7
 84 1220 84 1220 84 1211 c 0,8,9
 84 1187 84 1187 35 1140 c 0,10,11
 -62 1049 -62 1049 -193 1029 c 0,12,13
 -223 1024 -223 1024 -254 1024 c 0,14,15
 -330 1024 -330 1024 -478 1052 c 0,16,17
 -600 1076 -600 1076 -673 1076 c 0,18,19
 -776 1076 -776 1076 -837 1030 c 0,20,21
 -868 1006 -868 1006 -879 1003 c 0,22,23
 -884 1002 -884 1002 -891 1002 c 0,24,25
 -902 1002 -902 1002 -902 1012 c 0,26,27
 -902 1037 -902 1037 -852 1085 c 0,28,29
 -756 1175 -756 1175 -624 1195 c 0,30,31
 -593 1199 -593 1199 -563 1199 c 0,32,33
 -490 1199 -490 1199 -336 1170 c 0,34,35
 -213 1147 -213 1147 -142 1147 c 0,0,1
EndSplineSet
Validated: 1
EndChar

StartChar: q
Encoding: 113 113 84
Width: 1271
Flags: W
LayerCount: 2
Fore
SplineSet
913 160 m 1,0,-1
 1010 157 l 1,1,2
 1228 157 1228 157 1340 238 c 2,3,-1
 1402 285 l 2,4,5
 1423 298 1423 298 1444 298 c 2,6,-1
 1448 298 l 2,7,8
 1461 298 1461 298 1461 283 c 0,9,10
 1461 252 1461 252 1400 194 c 0,11,12
 1284 86 1284 86 1104 40 c 0,13,14
 1002 14 1002 14 892 14 c 0,15,16
 810 14 810 14 634 33 c 0,17,18
 577 39 577 39 532 42 c 0,19,20
 486 45 486 45 397 45 c 0,21,22
 272 45 272 45 115 10 c 1,23,-1
 102 -15 l 1,24,25
 -255 -676 -255 -676 -625 -1176 c 0,26,27
 -882 -1524 -882 -1524 -1161 -1822 c 2,28,-1
 -1205 -1869 l 2,29,30
 -1275 -1946 -1275 -1946 -1462 -2122 c 0,31,32
 -1537 -2193 -1537 -2193 -1564 -2215 c 0,33,34
 -1613 -2255 -1613 -2255 -1642 -2255 c 0,35,36
 -1657 -2255 -1657 -2255 -1657 -2241 c 0,37,38
 -1657 -2213 -1657 -2213 -1595 -2152 c 2,39,-1
 -1409 -1974 l 1,40,-1
 -1385 -1951 l 1,41,42
 -692 -1258 -692 -1258 -102 -182 c 1,43,-1
 11 31 l 1,44,45
 58 109 58 109 135 312 c 0,46,47
 216 523 216 523 216 595 c 0,48,49
 216 669 216 669 175 713 c 0,50,51
 143 746 143 746 93 746 c 0,52,53
 -16 746 -16 746 -91 695 c 0,54,55
 -131 667 -131 667 -142 664 c 0,56,57
 -150 662 -150 662 -158 662 c 0,58,59
 -174 662 -174 662 -174 675 c 0,60,61
 -174 704 -174 704 -120 759 c 0,62,63
 -20 861 -20 861 126 894 c 0,64,65
 168 904 168 904 212 906 c 0,66,67
 304 911 304 911 344 866 c 0,68,69
 376 831 376 831 388 763 c 0,70,71
 390 754 390 754 390 731 c 0,72,73
 390 674 390 674 366 593 c 1,74,75
 437 672 437 672 554 755 c 0,76,77
 744 889 744 889 880 889 c 0,78,79
 1006 889 1006 889 1091 803 c 0,80,81
 1172 722 1172 722 1172 601 c 0,82,83
 1172 435 1172 435 1010 254 c 0,84,85
 964 203 964 203 913 160 c 1,0,-1
527 189 m 2,86,-1
 701 185 l 2,87,88
 841 185 841 185 906 249 c 0,89,90
 915 257 915 257 923 267 c 0,91,92
 998 358 998 358 998 469 c 0,93,94
 998 590 998 590 911 664 c 0,95,96
 837 728 837 728 727 728 c 0,97,98
 593 728 593 728 429 553 c 0,99,100
 372 493 372 493 336 439 c 0,101,102
 282 357 282 357 200 174 c 0,103,104
 189 150 189 150 185 142 c 1,105,106
 306 178 306 178 465 187 c 0,107,108
 497 189 497 189 527 189 c 2,86,-1
EndSplineSet
Validated: 33
EndChar

StartChar: r
Encoding: 114 114 85
Width: 1908
Flags: W
LayerCount: 2
Fore
SplineSet
-20 -16 m 0,0,1
 -35 -16 -35 -16 -35 -3 c 0,2,3
 -35 19 -35 19 -16 40 c 0,4,5
 34 97 34 97 74 180 c 0,6,7
 100 235 100 235 128 309 c 0,8,9
 169 418 169 418 229 618 c 2,10,-1
 365 1050 l 1,11,12
 506 1471 506 1471 669 1766 c 0,13,14
 829 2058 829 2058 1025 2272 c 0,15,16
 1214 2478 1214 2478 1276 2478 c 0,17,18
 1290 2478 1290 2478 1290 2465 c 0,19,20
 1290 2436 1290 2436 1222 2368 c 0,21,22
 1124 2271 1124 2271 1116 2263 c 2,23,-1
 1094 2238 l 2,24,25
 920 2038 920 2038 790 1780 c 0,26,27
 608 1418 608 1418 404 741 c 0,28,29
 378 657 378 657 369 624 c 1,30,-1
 479 724 l 1,31,32
 671 889 671 889 813 889 c 0,33,34
 965 889 965 889 1041 751 c 0,35,36
 1080 681 1080 681 1081 621 c 0,37,38
 1081 618 1081 618 1082 615 c 2,39,-1
 1165 695 l 1,40,41
 1278 798 1278 798 1379 848 c 0,42,43
 1463 889 1463 889 1533 889 c 0,44,45
 1646 889 1646 889 1723 806 c 128,-1,46
 1800 723 1800 723 1800 595 c 0,47,48
 1800 426 1800 426 1636 236 c 0,49,50
 1599 193 1599 193 1558 155 c 1,51,-1
 1596 156 l 2,52,53
 1871 161 1871 161 1990 245 c 1,54,-1
 2045 287 l 2,55,56
 2064 298 2064 298 2084 298 c 2,57,-1
 2088 298 l 2,58,59
 2101 298 2101 298 2101 281 c 0,60,61
 2099 249 2099 249 2044 198 c 0,62,63
 1887 60 1887 60 1662 27 c 0,64,65
 1567 12 1567 12 1434 12 c 0,66,67
 1314 12 1314 12 1022 33 c 0,68,69
 820 47 820 47 675 47 c 0,70,71
 332 47 332 47 2 -13 c 0,72,73
 -14 -16 -14 -16 -20 -16 c 0,0,1
908 462 m 0,74,75
 908 579 908 579 833 657 c 0,76,77
 765 728 765 728 666 728 c 0,78,79
 497 728 497 728 310 404 c 0,80,81
 295 379 295 379 202 204 c 0,82,83
 182 166 182 166 171 149 c 2,84,-1
 164 138 l 1,85,-1
 308 161 l 1,86,87
 429 176 429 176 628 187 c 0,88,89
 791 195 791 195 812 219 c 0,90,91
 899 318 899 318 907 443 c 0,92,93
 908 453 908 453 908 462 c 0,74,75
1627 467 m 0,94,95
 1627 528 1627 528 1593 597 c 0,96,97
 1527 729 1527 729 1387 729 c 0,98,99
 1379 729 1379 729 1376 728 c 0,100,101
 1242 728 1242 728 1086 482 c 0,102,103
 1062 445 1062 445 1034 395 c 0,104,105
 971 286 971 286 898 207 c 2,106,-1
 882 189 l 1,107,-1
 888 189 l 2,108,109
 952 189 952 189 1235 169 c 0,110,111
 1318 163 1318 163 1352 163 c 0,112,113
 1485 163 1485 163 1550 248 c 0,114,115
 1566 268 1566 268 1582 299 c 0,116,117
 1627 379 1627 379 1627 467 c 0,94,95
EndSplineSet
Validated: 1
EndChar

StartChar: s
Encoding: 115 115 86
Width: 1880
Flags: W
LayerCount: 2
Fore
SplineSet
1477 193 m 1,0,1
 1373 104 1373 104 1328 73 c 0,2,3
 1199 -16 1199 -16 1094 -16 c 0,4,5
 991 -16 991 -16 913 62 c 0,6,7
 847 128 847 128 825 232 c 0,8,9
 823 232 823 232 799 207 c 0,10,11
 758 166 758 166 697 120 c 0,12,13
 516 -16 516 -16 378 -16 c 0,14,15
 279 -16 279 -16 202 60 c 0,16,17
 132 128 132 128 111 235 c 0,18,19
 103 269 103 269 103 310 c 0,20,21
 103 479 103 479 229 645 c 0,22,23
 336 785 336 785 476 851 c 0,24,25
 539 881 539 881 598 888 c 0,26,27
 603 888 603 888 614 888 c 0,28,29
 769 888 769 888 784 799 c 0,30,31
 786 789 786 789 786 777 c 0,32,33
 786 692 786 692 703 655 c 0,34,35
 673 642 673 642 651 642 c 0,36,37
 606 642 606 642 575 676 c 0,38,39
 548 707 548 707 539 713 c 0,40,41
 514 729 514 729 477 729 c 0,42,43
 393 728 393 728 354 675 c 0,44,45
 280 570 280 570 278 443 c 0,46,47
 278 335 278 335 341 246 c 0,48,49
 413 143 413 143 522 143 c 0,50,51
 630 143 630 143 718 228 c 0,52,53
 797 303 797 303 833 429 c 0,54,55
 878 585 878 585 1009 719 c 0,56,57
 1141 853 1141 853 1280 882 c 0,58,59
 1312 889 1312 889 1342 889 c 0,60,61
 1470 889 1470 889 1495 808 c 0,62,63
 1500 793 1500 793 1500 776 c 0,64,65
 1500 708 1500 708 1439 667 c 0,66,67
 1403 642 1403 642 1365 642 c 0,68,69
 1321 642 1321 642 1287 679 c 0,70,71
 1256 711 1256 711 1243 718 c 0,72,73
 1223 729 1223 729 1197 729 c 0,74,75
 1093 729 1093 729 1035 624 c 0,76,77
 992 546 992 546 992 443 c 0,78,79
 992 302 992 302 1082 212 c 0,80,81
 1104 190 1104 190 1129 174 c 0,82,83
 1176 144 1176 144 1236 144 c 0,84,85
 1388 144 1388 144 1531 395 c 2,86,-1
 1542 414 l 1,87,-1
 1623 576 l 1,88,89
 1697 711 1697 711 1788 782 c 0,90,91
 1837 821 1837 821 1865 821 c 0,92,93
 1868 821 1868 821 1870 820 c 0,94,95
 1880 820 1880 820 1880 806 c 0,96,97
 1880 786 1880 786 1857 761 c 0,98,99
 1804 702 1804 702 1769 630 c 0,100,101
 1750 592 1750 592 1731 545 c 0,102,103
 1712 495 1712 495 1645 292 c 0,104,105
 1604 168 1604 168 1557 59 c 0,106,107
 1224 -705 1224 -705 442 -1498 c 1,108,-1
 156 -1777 l 1,109,110
 -81 -2001 -81 -2001 -154 -2061 c 0,111,112
 -201 -2099 -201 -2099 -235 -2102 c 0,113,114
 -250 -2102 -250 -2102 -250 -2089 c 0,115,116
 -250 -2054 -250 -2054 -165 -1978 c 2,117,-1
 149 -1686 l 1,118,119
 1087 -793 1087 -793 1407 -1 c 1,120,-1
 1429 55 l 1,121,-1
 1477 193 l 1,0,1
EndSplineSet
Validated: 1
EndChar

StartChar: t
Encoding: 116 116 87
Width: 1910
Flags: W
LayerCount: 2
Fore
SplineSet
-174 675 m 0,0,1
 -174 705 -174 705 -119 761 c 0,2,3
 -16 862 -16 862 135 895 c 0,4,5
 174 903 174 903 214 906 c 2,6,-1
 243 906 l 2,7,8
 330 906 330 906 368 825 c 0,9,10
 389 781 389 781 389 723 c 0,11,12
 389 689 389 689 376 627 c 1,13,14
 377 627 377 627 402 650 c 0,15,16
 644 889 644 889 821 889 c 0,17,18
 971 889 971 889 1047 751 c 0,19,20
 1086 681 1086 681 1087 621 c 0,21,22
 1087 618 1087 618 1088 615 c 1,23,24
 1101 625 1101 625 1182 701 c 0,25,26
 1320 831 1320 831 1430 869 c 0,27,28
 1487 888 1487 888 1543 888 c 0,29,30
 1650 888 1650 888 1727 808 c 0,31,32
 1807 724 1807 724 1807 598 c 0,33,34
 1807 415 1807 415 1624 215 c 0,35,36
 1595 184 1595 184 1564 155 c 1,37,-1
 1600 156 l 2,38,39
 1878 162 1878 162 1993 246 c 2,40,-1
 2047 287 l 2,41,42
 2065 298 2065 298 2085 298 c 2,43,-1
 2089 298 l 2,44,45
 2102 298 2102 298 2102 281 c 0,46,47
 2100 243 2100 243 2030 183 c 0,48,49
 1906 77 1906 77 1713 36 c 0,50,51
 1666 26 1666 26 1617 21 c 0,52,53
 1550 13 1550 13 1435 13 c 0,54,55
 1313 13 1313 13 1023 33 c 0,56,57
 823 47 823 47 675 47 c 0,58,59
 336 47 336 47 4 -13 c 0,60,61
 -15 -16 -15 -16 -21 -16 c 0,62,63
 -36 -16 -36 -16 -36 -3 c 0,64,65
 -36 20 -36 20 5 67 c 0,66,67
 29 93 29 93 37 105 c 0,68,69
 122 231 122 231 182 431 c 0,70,71
 215 538 215 538 215 590 c 0,72,73
 215 689 215 689 154 729 c 0,74,75
 128 747 128 747 94 747 c 0,76,77
 -15 747 -15 747 -90 695 c 0,78,79
 -131 667 -131 667 -143 664 c 0,80,81
 -150 662 -150 662 -158 662 c 0,82,83
 -174 662 -174 662 -174 675 c 0,0,1
914 462 m 0,84,85
 914 524 914 524 880 594 c 0,86,87
 814 729 814 729 675 729 c 0,88,89
 529 729 529 729 369 487 c 0,90,91
 328 425 328 425 222 236 c 0,92,93
 185 170 185 170 164 138 c 1,94,95
 221 157 221 157 489 175 c 0,96,97
 754 193 754 193 812 212 c 1,98,99
 914 325 914 325 914 462 c 0,84,85
891 189 m 2,100,101
 964 189 964 189 1243 169 c 0,102,103
 1322 163 1322 163 1355 163 c 0,104,105
 1481 163 1481 163 1540 231 c 0,106,107
 1624 326 1624 326 1633 444 c 1,108,-1
 1633 466 l 2,109,110
 1633 591 1633 591 1544 670 c 0,111,112
 1491 716 1491 716 1427 727 c 0,113,114
 1413 728 1413 728 1392 728 c 0,115,116
 1280 728 1280 728 1175 596 c 0,117,118
 1137 549 1137 549 1043 399 c 0,119,120
 959 265 959 265 902 204 c 0,121,122
 890 191 890 191 890 189 c 2,123,-1
 891 189 l 2,100,101
EndSplineSet
Validated: 1
EndChar

StartChar: u
Encoding: 117 117 88
Width: 1009
Flags: W
LayerCount: 2
Fore
SplineSet
369 740 m 1,0,1
 423 794 423 794 522 845 c 0,2,3
 639 906 639 906 733 906 c 0,4,5
 882 906 882 906 912 807 c 0,6,7
 921 777 921 777 921 734 c 0,8,9
 921 524 921 524 609 -6 c 0,10,11
 132 -815 132 -815 -702 -1602 c 2,12,-1
 -841 -1733 l 2,13,14
 -938 -1819 -938 -1819 -978 -1819 c 0,15,16
 -991 -1819 -991 -1819 -991 -1806 c 0,17,18
 -991 -1776 -991 -1776 -931 -1718 c 2,19,-1
 -697 -1503 l 1,20,21
 -466 -1283 -466 -1283 -213 -996 c 0,22,23
 -80 -843 -80 -843 -62 -815 c 0,24,25
 -62 -812 -62 -812 -78 -799 c 0,26,27
 -138 -754 -138 -754 -138 -637 c 0,28,29
 -138 -463 -138 -463 80 -163 c 1,30,-1
 251 64 l 2,31,32
 297 131 297 131 317 164 c 1,33,-1
 310 185 l 2,34,35
 294 235 294 235 240 443 c 0,36,37
 194 619 194 619 151 674 c 0,38,39
 145 682 145 682 138 689 c 0,40,41
 99 728 99 728 55 728 c 0,42,43
 51 728 51 728 46 728 c 0,44,45
 -19 728 -19 728 -89 679 c 0,46,47
 -134 647 -134 647 -151 645 c 0,48,49
 -154 644 -154 644 -158 644 c 0,50,51
 -174 644 -174 644 -174 657 c 0,52,53
 -174 699 -174 699 -94 766 c 0,54,55
 9 852 9 852 122 879 c 0,56,57
 158 888 158 888 190 888 c 0,58,59
 289 888 289 888 349 781 c 0,60,61
 359 763 359 763 369 740 c 1,0,1
747 604 m 0,62,63
 747 725 747 725 632 743 c 0,64,65
 608 746 608 746 579 746 c 0,66,67
 489 747 489 747 394 669 c 1,68,69
 474 338 474 338 516 244 c 0,70,71
 541 189 541 189 579 141 c 1,72,73
 629 217 629 217 691 383 c 0,74,75
 747 534 747 534 747 604 c 0,62,63
463 -66 m 1,76,77
 397 -6 397 -6 359 70 c 1,78,79
 134 -230 134 -230 80 -336 c 0,80,81
 38 -418 38 -418 35 -506 c 0,82,83
 35 -586 35 -586 79 -638 c 1,84,85
 122 -595 122 -595 332 -274 c 0,86,87
 413 -151 413 -151 448 -91 c 2,88,-1
 463 -66 l 1,76,77
EndSplineSet
Validated: 33
EndChar

StartChar: v
Encoding: 118 118 89
Width: 1839
Flags: W
LayerCount: 2
Fore
SplineSet
1309 861 m 0,0,1
 1489 861 1489 861 1623 874 c 0,2,3
 1645 876 1645 876 1664 876 c 1,4,-1
 1667 877 l 1,5,-1
 1672 892 l 1,6,7
 1944 1832 1944 1832 2416 2354 c 0,8,9
 2497 2444 2497 2444 2594 2533 c 0,10,11
 2672 2605 2672 2605 2708 2605 c 0,12,13
 2724 2605 2724 2605 2724 2591 c 0,14,15
 2724 2558 2724 2558 2664 2502 c 0,16,17
 2376 2240 2376 2240 2172 1848 c 0,18,19
 1851 1234 1851 1234 1634 138 c 0,20,21
 1621 71 1621 71 1540 15 c 0,22,23
 1496 -16 1496 -16 1473 -16 c 0,24,25
 1458 -16 1458 -16 1458 -3 c 2,26,-1
 1510 253 l 1,27,-1
 1492 235 l 2,28,29
 1237 -16 1237 -16 1059 -16 c 0,30,31
 862 -16 862 -16 798 214 c 0,32,33
 796 224 796 224 795 224 c 2,34,-1
 779 208 l 2,35,36
 633 67 633 67 488 12 c 0,37,38
 415 -16 415 -16 352 -16 c 0,39,40
 239 -16 239 -16 162 67 c 0,41,42
 86 150 86 150 86 277 c 0,43,44
 86 454 86 454 255 639 c 0,45,46
 308 697 308 697 385 766 c 1,47,-1
 351 766 l 1,48,49
 21 758 21 758 -133 628 c 0,50,51
 -185 583 -185 583 -217 583 c 0,52,53
 -233 583 -233 583 -233 598 c 0,54,55
 -233 631 -233 631 -167 691 c 0,56,57
 -40 806 -40 806 170 865 c 0,58,59
 328 909 328 909 506 909 c 0,60,61
 628 909 628 909 889 884 c 0,62,63
 1130 861 1130 861 1309 861 c 0,0,1
1023 722 m 0,64,65
 978 722 978 722 660 751 c 0,66,67
 573 759 573 759 551 759 c 0,68,69
 491 759 491 759 438 719 c 0,70,71
 260 585 260 585 260 408 c 0,72,73
 260 243 260 243 390 174 c 0,74,75
 448 144 448 144 498 144 c 0,76,77
 598 144 598 144 693 225 c 0,78,79
 730 257 730 257 756 294 c 0,80,81
 788 342 788 342 821 427 c 0,82,83
 856 520 856 520 915 596 c 0,84,85
 934 621 934 621 958 648 c 0,86,87
 1004 696 1004 696 1022 712 c 0,88,89
 1030 720 1030 720 1030 721 c 128,-1,90
 1030 722 1030 722 1023 722 c 0,64,65
966 411 m 0,91,92
 966 251 966 251 1092 178 c 0,93,94
 1152 144 1152 144 1203 144 c 0,95,96
 1274 144 1274 144 1348 201 c 2,97,-1
 1377 224 l 1,98,99
 1521 346 1521 346 1567 502 c 0,100,101
 1572 518 1572 518 1587 578 c 2,102,-1
 1617 695 l 2,103,104
 1629 734 1629 734 1629 739 c 2,105,-1
 1629 741 l 1,106,107
 1560 734 1560 734 1304 718 c 0,108,109
 1161 709 1161 709 1107 684 c 0,110,111
 1051 657 1051 657 1015 587 c 0,112,113
 966 491 966 491 966 411 c 0,91,92
EndSplineSet
Validated: 1
EndChar

StartChar: w
Encoding: 119 119 90
Width: 1921
Flags: W
LayerCount: 2
Fore
SplineSet
-174 675 m 0,0,1
 -174 704 -174 704 -120 759 c 0,2,3
 -20 861 -20 861 126 894 c 0,4,5
 168 904 168 904 212 906 c 0,6,7
 288 910 288 910 323 883 c 0,8,9
 348 865 348 865 367 828 c 0,10,11
 390 784 390 784 390 727 c 0,12,13
 390 685 390 685 374 625 c 1,14,-1
 374 624 l 2,15,16
 376 624 376 624 429 675 c 0,17,18
 651 888 651 888 823 888 c 0,19,20
 979 888 979 888 1052 744 c 0,21,22
 1084 682 1084 682 1088 626 c 0,23,24
 1089 615 1089 615 1090 615 c 2,25,-1
 1178 700 l 1,26,27
 1384 888 1384 888 1530 888 c 2,28,-1
 1544 888 l 2,29,30
 1653 888 1653 888 1730 806 c 0,31,32
 1808 722 1808 722 1808 592 c 0,33,34
 1808 487 1808 487 1733 359 c 0,35,36
 1682 272 1682 272 1601 191 c 2,37,-1
 1566 156 l 1,38,-1
 1575 156 l 2,39,40
 1578 156 1578 156 1587 156 c 0,41,42
 1881 156 1881 156 2006 250 c 1,43,-1
 2017 259 l 2,44,45
 2062 298 2062 298 2093 298 c 2,46,-1
 2097 298 l 2,47,48
 2110 298 2110 298 2110 284 c 0,49,50
 2110 252 2110 252 2052 196 c 0,51,52
 1937 87 1937 87 1746 41 c 0,53,54
 1689 27 1689 27 1628 21 c 0,55,56
 1553 13 1553 13 1459 13 c 0,57,58
 1312 13 1312 13 1042 33 c 0,59,60
 860 46 860 46 715 46 c 2,61,-1
 591 46 l 1,62,63
 362 39 362 39 146 5 c 2,64,-1
 110 0 l 1,65,-1
 99 -20 l 1,66,67
 -240 -665 -240 -665 -673 -1239 c 0,68,69
 -889 -1526 -889 -1526 -1111 -1768 c 2,70,-1
 -1205 -1869 l 2,71,72
 -1275 -1946 -1275 -1946 -1462 -2122 c 0,73,74
 -1537 -2193 -1537 -2193 -1564 -2215 c 0,75,76
 -1613 -2255 -1613 -2255 -1642 -2255 c 0,77,78
 -1657 -2255 -1657 -2255 -1657 -2241 c 0,79,80
 -1657 -2213 -1657 -2213 -1595 -2152 c 2,81,-1
 -1409 -1974 l 1,82,-1
 -1385 -1951 l 1,83,84
 -692 -1258 -692 -1258 -102 -182 c 1,85,-1
 11 31 l 1,86,87
 58 109 58 109 135 312 c 0,88,89
 216 523 216 523 216 595 c 0,90,91
 216 669 216 669 175 713 c 0,92,93
 143 746 143 746 93 746 c 0,94,95
 -16 746 -16 746 -91 695 c 0,96,97
 -131 667 -131 667 -142 664 c 0,98,99
 -150 662 -150 662 -158 662 c 0,100,101
 -174 662 -174 662 -174 675 c 0,0,1
915 462 m 1,102,103
 915 628 915 628 784 698 c 0,104,105
 727 729 727 729 677 729 c 0,106,107
 526 729 526 729 367 494 c 0,108,109
 296 389 296 389 238 257 c 2,110,-1
 189 151 l 1,111,-1
 182 136 l 1,112,-1
 183 136 l 2,113,114
 187 136 187 136 274 150 c 0,115,116
 414 174 414 174 643 186 c 0,117,118
 783 194 783 194 812 214 c 0,119,120
 818 217 818 217 822 222 c 0,121,122
 911 335 911 335 915 462 c 1,102,103
1634 466 m 0,123,124
 1634 580 1634 580 1562 656 c 0,125,126
 1494 728 1494 728 1393 728 c 0,127,128
 1259 728 1259 728 1120 523 c 0,129,130
 1084 470 1084 470 1027 371 c 0,131,132
 979 286 979 286 906 208 c 2,133,-1
 890 190 l 1,134,-1
 919 189 l 2,135,136
 975 188 975 188 1256 169 c 0,137,138
 1326 164 1326 164 1358 164 c 0,139,140
 1478 164 1478 164 1541 229 c 0,141,142
 1577 267 1577 267 1604 331 c 0,143,144
 1634 399 1634 399 1634 466 c 0,123,124
EndSplineSet
Validated: 33
EndChar

StartChar: x
Encoding: 120 120 91
Width: 1845
Flags: W
LayerCount: 2
Fore
SplineSet
-234 598 m 0,0,1
 -234 632 -234 632 -165 694 c 0,2,3
 -37 809 -37 809 169 869 c 0,4,5
 328 915 328 915 504 915 c 0,6,7
 678 915 678 915 916 893 c 0,8,9
 1254 861 1254 861 1675 858 c 0,10,11
 1725 858 1725 858 1777 858 c 0,12,13
 1912 858 1912 858 1969 889 c 0,14,15
 1991 901 1991 901 2007 901 c 0,16,17
 2024 901 2024 901 2024 886 c 0,18,19
 2024 854 2024 854 1976 811 c 0,20,21
 1900 743 1900 743 1775 719 c 0,22,23
 1772 716 1772 716 1741 632 c 2,24,-1
 1668 434 l 2,25,26
 1571 169 1571 169 1512 37 c 0,27,28
 1177 -718 1177 -718 400 -1505 c 1,29,-1
 121 -1777 l 1,30,31
 -116 -2001 -116 -2001 -189 -2061 c 0,32,33
 -236 -2099 -236 -2099 -270 -2102 c 0,34,35
 -285 -2102 -285 -2102 -285 -2089 c 0,36,37
 -285 -2054 -285 -2054 -200 -1978 c 2,38,-1
 115 -1686 l 1,39,40
 441 -1374 441 -1374 658 -1120 c 0,41,42
 1162 -530 1162 -530 1399 65 c 0,43,44
 1450 194 1450 194 1450 197 c 1,45,46
 1447 197 1447 197 1395 151 c 0,47,48
 1205 -16 1205 -16 1058 -16 c 0,49,50
 898 -16 898 -16 824 137 c 0,51,52
 810 165 810 165 793 225 c 1,53,-1
 778 211 l 1,54,55
 670 103 670 103 545 39 c 0,56,57
 439 -16 439 -16 352 -16 c 0,58,59
 238 -16 238 -16 160 67 c 0,60,61
 84 150 84 150 84 277 c 0,62,63
 84 438 84 438 233 618 c 0,64,65
 293 690 293 690 375 760 c 0,66,67
 386 771 386 771 388 771 c 1,68,69
 388 772 388 772 380 772 c 0,70,71
 129 772 129 772 -39 689 c 0,72,73
 -96 661 -96 661 -138 624 c 0,74,75
 -185 583 -185 583 -217 583 c 0,76,77
 -234 583 -234 583 -234 598 c 0,0,1
1037 730 m 2,78,79
 1024 730 1024 730 727 756 c 0,80,81
 595 768 595 768 552 768 c 0,82,83
 492 768 492 768 427 713 c 0,84,85
 413 702 413 702 376 668 c 0,86,87
 288 589 288 589 264 467 c 0,88,89
 257 436 257 436 257 406 c 0,90,91
 257 266 257 266 366 187 c 0,92,93
 392 168 392 168 417 158 c 0,94,95
 454 144 454 144 495 144 c 0,96,97
 588 144 588 144 680 217 c 0,98,99
 727 255 727 255 758 302 c 0,100,101
 774 327 774 327 815 423 c 0,102,103
 874 560 874 560 960 654 c 0,104,105
 992 689 992 689 1030 722 c 0,106,107
 1038 729 1038 729 1038 730 c 2,108,-1
 1037 730 l 2,78,79
1236 720 m 2,109,110
 1069 720 1069 720 998 561 c 0,111,112
 964 484 964 484 964 412 c 0,113,114
 964 290 964 290 1044 211 c 0,115,116
 1059 196 1059 196 1077 184 c 0,117,118
 1135 144 1135 144 1202 144 c 0,119,120
 1335 144 1335 144 1460 319 c 0,121,122
 1528 414 1528 414 1575 535 c 0,123,124
 1613 632 1613 632 1628 660 c 0,125,126
 1642 688 1642 688 1660 714 c 1,127,-1
 1572 715 l 1,128,-1
 1236 720 l 2,109,110
EndSplineSet
Validated: 1
EndChar

StartChar: y
Encoding: 121 121 92
Width: 1261
Flags: W
LayerCount: 2
Fore
SplineSet
-174 675 m 0,0,1
 -174 705 -174 705 -119 761 c 0,2,3
 -16 862 -16 862 135 895 c 0,4,5
 174 903 174 903 214 906 c 2,6,-1
 243 906 l 2,7,8
 330 906 330 906 368 825 c 0,9,10
 389 781 389 781 389 723 c 0,11,12
 389 677 389 677 373 617 c 0,13,14
 369 604 369 604 369 596 c 1,15,-1
 392 619 l 2,16,17
 548 772 548 772 700 843 c 0,18,19
 797 889 797 889 877 889 c 0,20,21
 1057 889 1057 889 1135 743 c 0,22,23
 1171 673 1171 673 1171 610 c 0,24,25
 1171 503 1171 503 1098 375 c 0,26,27
 1034 263 1034 263 926 172 c 0,28,29
 913 162 913 162 913 160 c 0,30,31
 913 157 913 157 991 157 c 0,32,33
 1217 157 1217 157 1333 239 c 1,34,-1
 1395 286 l 2,35,36
 1416 298 1416 298 1436 298 c 2,37,-1
 1440 298 l 2,38,39
 1453 298 1453 298 1453 281 c 0,40,41
 1451 249 1451 249 1389 191 c 0,42,43
 1268 81 1268 81 1081 37 c 0,44,45
 983 13 983 13 877 13 c 0,46,47
 811 13 811 13 586 36 c 0,48,49
 515 42 515 42 451 45 c 0,50,51
 427 46 427 46 396 46 c 0,52,53
 200 46 200 46 15 -8 c 0,54,55
 -12 -16 -12 -16 -21 -16 c 0,56,57
 -36 -16 -36 -16 -36 -3 c 0,58,59
 -36 20 -36 20 2 63 c 0,60,61
 28 91 28 91 37 105 c 0,62,63
 122 231 122 231 182 431 c 0,64,65
 215 538 215 538 215 590 c 0,66,67
 215 689 215 689 154 729 c 0,68,69
 128 747 128 747 94 747 c 0,70,71
 -15 747 -15 747 -90 695 c 0,72,73
 -131 667 -131 667 -143 664 c 0,74,75
 -150 662 -150 662 -158 662 c 0,76,77
 -174 662 -174 662 -174 675 c 0,0,1
521 189 m 1,78,-1
 689 182 l 1,79,80
 839 182 839 182 903 246 c 0,81,82
 987 333 987 333 996 447 c 0,83,84
 997 459 997 459 997 470 c 0,85,86
 997 583 997 583 914 660 c 0,87,88
 853 715 853 715 769 727 c 0,89,90
 757 729 757 729 735 729 c 0,91,92
 655 729 655 729 556 665 c 0,93,94
 477 614 477 614 411 533 c 0,95,96
 341 447 341 447 242 269 c 0,97,98
 199 189 199 189 171 148 c 1,99,-1
 171 148 l 1,100,-1
 305 173 l 2,101,102
 408 189 408 189 521 189 c 1,78,-1
EndSplineSet
Validated: 5
EndChar

StartChar: z
Encoding: 122 122 93
Width: 1253
Flags: W
LayerCount: 2
Fore
SplineSet
435 762 m 1,0,1
 401 768 401 768 312 768 c 0,2,3
 32 768 32 768 -134 628 c 0,4,5
 -186 582 -186 582 -217 582 c 0,6,7
 -234 582 -234 582 -234 598 c 0,8,9
 -234 631 -234 631 -165 694 c 0,10,11
 -40 808 -40 808 150 868 c 0,12,13
 270 905 270 905 397 911 c 1,14,-1
 449 911 l 2,15,16
 544 910 544 910 741 886 c 0,17,18
 977 858 977 858 1226 858 c 0,19,20
 1314 858 1314 858 1377 889 c 0,21,22
 1402 901 1402 901 1415 901 c 0,23,24
 1432 901 1432 901 1432 885 c 0,25,26
 1432 835 1432 835 1347 782 c 0,27,28
 1278 738 1278 738 1198 722 c 0,29,30
 1185 719 1185 719 1180 711 c 0,31,32
 1179 709 1179 709 1149 632 c 2,33,-1
 1076 434 l 2,34,35
 979 169 979 169 920 37 c 0,36,37
 585 -718 585 -718 -192 -1505 c 1,38,-1
 -471 -1777 l 1,39,40
 -705 -1997 -705 -1997 -781 -2061 c 0,41,42
 -829 -2099 -829 -2099 -862 -2102 c 0,43,44
 -877 -2102 -877 -2102 -877 -2089 c 0,45,46
 -877 -2054 -877 -2054 -792 -1978 c 2,47,-1
 -477 -1686 l 1,48,49
 -155 -1378 -155 -1378 56 -1133 c 0,50,51
 567 -539 567 -539 807 65 c 0,52,53
 870 221 870 221 870 230 c 1,54,-1
 790 162 l 2,55,56
 720 107 720 107 649 64 c 0,57,58
 515 -17 515 -17 407 -17 c 0,59,60
 279 -17 279 -17 194 71 c 0,61,62
 115 154 115 154 115 273 c 0,63,64
 115 390 115 390 204 526 c 0,65,66
 283 645 283 645 419 749 c 1,67,-1
 435 762 l 1,0,1
290 403 m 0,68,69
 290 281 290 281 376 207 c 0,70,71
 449 144 449 144 557 144 c 0,72,73
 643 144 643 144 747 217 c 0,74,75
 837 281 837 281 904 380 c 0,76,77
 952 452 952 452 997 569 c 0,78,79
 1031 661 1031 661 1068 714 c 0,80,81
 1067 715 1067 715 989 716 c 0,82,83
 850 718 850 718 647 739 c 0,84,85
 628 741 628 741 612 741 c 0,86,87
 523 741 523 741 431 670 c 0,88,89
 321 585 321 585 296 463 c 0,90,91
 290 433 290 433 290 403 c 0,68,69
EndSplineSet
Validated: 1
EndChar

StartChar: braceleft
Encoding: 123 123 94
Width: 0
Flags: W
LayerCount: 2
Fore
SplineSet
-1546 1081 m 0,0,1
 -1546 1111 -1546 1111 -1485 1160 c 0,2,3
 -1443 1194 -1443 1194 -1425 1194 c 2,4,-1
 -1308 1173 l 2,5,6
 -1233 1163 -1233 1163 -1148 1160 c 0,7,8
 -1119 1159 -1119 1159 -785 1159 c 0,9,10
 -250 1159 -250 1159 -176 1163 c 0,11,12
 -96 1168 -96 1168 12 1189 c 0,13,14
 37 1194 37 1194 41 1194 c 0,15,16
 50 1194 50 1194 50 1184 c 0,17,18
 50 1168 50 1168 19 1132 c 0,19,20
 -26 1080 -26 1080 -85 1068 c 0,21,22
 -204 1044 -204 1044 -311 1040 c 0,23,24
 -399 1036 -399 1036 -898 1036 c 0,25,26
 -1287 1036 -1287 1036 -1357 1043 c 0,27,28
 -1393 1046 -1393 1046 -1448 1055 c 0,29,30
 -1540 1069 -1540 1069 -1545 1076 c 0,31,32
 -1546 1078 -1546 1078 -1546 1081 c 0,0,1
EndSplineSet
Validated: 1
EndChar

StartChar: bar
Encoding: 124 124 95
Width: 0
Flags: W
LayerCount: 2
Fore
SplineSet
-1379 -930 m 0,0,1
 -1454 -930 -1454 -930 -1492 -871 c 0,2,3
 -1515 -837 -1515 -837 -1515 -791 c 0,4,5
 -1515 -675 -1515 -675 -1389 -545 c 1,6,-1
 -725 59 l 2,7,8
 -714 68 -714 68 -712 70 c 0,9,10
 -666 109 -666 109 -637 109 c 0,11,12
 -619 109 -619 109 -619 94 c 0,13,14
 -619 70 -619 70 -655 30 c 0,15,16
 -673 12 -673 12 -991 -276 c 0,17,18
 -1316 -572 -1316 -572 -1326 -584 c 0,19,20
 -1359 -632 -1359 -632 -1359 -681 c 0,21,22
 -1359 -745 -1359 -745 -1309 -774 c 0,23,24
 -1286 -786 -1286 -786 -1260 -786 c 0,25,26
 -1216 -786 -1216 -786 -1149 -728 c 0,27,28
 -1090 -677 -1090 -677 -1072 -668 c 0,29,30
 -1052 -657 -1052 -657 -1036 -657 c 128,-1,31
 -1020 -657 -1020 -657 -1019 -672 c 0,32,33
 -1019 -706 -1019 -706 -1104 -783 c 0,34,35
 -1213 -880 -1213 -880 -1314 -916 c 0,36,37
 -1351 -930 -1351 -930 -1379 -930 c 0,0,1
EndSplineSet
Validated: 1
EndChar

StartChar: braceright
Encoding: 125 125 96
Width: 0
Flags: W
LayerCount: 2
Fore
SplineSet
-1135 -930 m 0,0,1
 -1211 -930 -1211 -930 -1249 -871 c 0,2,3
 -1271 -837 -1271 -837 -1271 -791 c 0,4,5
 -1271 -675 -1271 -675 -1145 -545 c 1,6,-1
 -481 59 l 2,7,8
 -470 68 -470 68 -468 70 c 0,9,10
 -422 109 -422 109 -393 109 c 0,11,12
 -376 109 -376 109 -375 94 c 0,13,14
 -375 72 -375 72 -412 30 c 0,15,16
 -415 26 -415 26 -840 -359 c 0,17,18
 -1067 -566 -1067 -566 -1082 -584 c 0,19,20
 -1116 -628 -1116 -628 -1116 -681 c 0,21,22
 -1116 -741 -1116 -741 -1069 -771 c 0,23,24
 -1046 -786 -1046 -786 -1016 -786 c 0,25,26
 -971 -786 -971 -786 -904 -728 c 0,27,28
 -847 -678 -847 -678 -830 -668 c 0,29,30
 -810 -657 -810 -657 -793 -657 c 128,-1,31
 -776 -657 -776 -657 -776 -672 c 0,32,33
 -776 -707 -776 -707 -863 -785 c 0,34,35
 -972 -881 -972 -881 -1071 -917 c 0,36,37
 -1108 -930 -1108 -930 -1135 -930 c 0,0,1
EndSplineSet
Validated: 1
EndChar

StartChar: asciitilde
Encoding: 126 126 97
Width: 479
Flags: W
LayerCount: 2
Fore
SplineSet
-174 675 m 0,0,1
 -174 704 -174 704 -120 759 c 0,2,3
 -20 861 -20 861 126 894 c 0,4,5
 168 904 168 904 212 906 c 0,6,7
 288 910 288 910 323 883 c 0,8,9
 348 865 348 865 367 828 c 0,10,11
 390 784 390 784 390 727 c 0,12,13
 390 585 390 585 223 226 c 0,14,15
 170 110 170 110 108 -5 c 0,16,17
 -444 -1039 -444 -1039 -1111 -1768 c 1,18,-1
 -1205 -1869 l 2,19,20
 -1275 -1946 -1275 -1946 -1462 -2122 c 0,21,22
 -1537 -2193 -1537 -2193 -1564 -2215 c 0,23,24
 -1613 -2255 -1613 -2255 -1642 -2255 c 0,25,26
 -1657 -2255 -1657 -2255 -1657 -2241 c 0,27,28
 -1657 -2213 -1657 -2213 -1595 -2152 c 2,29,-1
 -1409 -1974 l 1,30,-1
 -1385 -1951 l 1,31,32
 -671 -1239 -671 -1239 -60 -103 c 0,33,34
 134 257 134 257 195 478 c 0,35,36
 216 551 216 551 216 595 c 0,37,38
 216 669 216 669 175 713 c 0,39,40
 143 746 143 746 93 746 c 0,41,42
 -16 746 -16 746 -91 695 c 0,43,44
 -131 667 -131 667 -142 664 c 0,45,46
 -150 662 -150 662 -158 662 c 0,47,48
 -174 662 -174 662 -174 675 c 0,0,1
EndSplineSet
Validated: 33
EndChar

StartChar: quotesinglbase
Encoding: 8218 8218 98
Width: 0
Flags: W
LayerCount: 2
Fore
SplineSet
-673 291 m 0,0,1
 -650 291 -650 291 -650 268 c 0,2,3
 -650 256 -650 256 -665 240 c 0,4,5
 -673 231 -673 231 -699 205 c 0,6,7
 -1048 -149 -1048 -149 -1106 -149 c 0,8,9
 -1140 -149 -1140 -149 -1150 -119 c 0,10,11
 -1153 -112 -1153 -112 -1153 -104 c 0,12,13
 -1153 -73 -1153 -73 -1105 -33 c 2,14,-1
 -1069 -3 l 2,15,16
 -878 154 -878 154 -744 249 c 0,17,18
 -684 291 -684 291 -673 291 c 0,0,1
EndSplineSet
Validated: 1
EndChar

StartChar: florin
Encoding: 402 402 99
Width: 0
Flags: W
LayerCount: 2
Fore
SplineSet
-991 1797 m 0,0,1
 -991 1830 -991 1830 -962 1841 c 0,2,3
 -954 1843 -954 1843 -945 1843 c 0,4,5
 -924 1843 -924 1843 -904 1827 c 0,6,7
 -869 1801 -869 1801 -586 1468 c 0,8,9
 -436 1291 -436 1291 -372 1208 c 0,10,11
 -324 1145 -324 1145 -321 1135 c 0,12,13
 -319 1130 -319 1130 -319 1125 c 0,14,15
 -319 1106 -319 1106 -341 1103 c 0,16,17
 -377 1103 -377 1103 -748 1502 c 0,18,19
 -899 1665 -899 1665 -972 1749 c 0,20,21
 -991 1772 -991 1772 -991 1797 c 0,0,1
EndSplineSet
Validated: 1
EndChar

StartChar: quotedblbase
Encoding: 8222 8222 100
Width: 0
Flags: W
LayerCount: 2
Fore
SplineSet
-842 1817 m 0,0,1
 -842 1849 -842 1849 -814 1861 c 0,2,3
 -810 1863 -810 1863 -806 1864 c 2,4,-1
 -794 1864 l 2,5,6
 -773 1864 -773 1864 -751 1844 c 0,7,8
 -690 1783 -690 1783 -446 1430 c 0,9,10
 -251 1147 -251 1147 -251 1127 c 0,11,12
 -251 1103 -251 1103 -273 1103 c 0,13,14
 -285 1103 -285 1103 -302 1120 c 0,15,16
 -310 1128 -310 1128 -335 1157 c 0,17,18
 -518 1363 -518 1363 -780 1709 c 1,19,-1
 -829 1776 l 2,20,21
 -842 1795 -842 1795 -842 1817 c 0,0,1
EndSplineSet
Validated: 1
EndChar

StartChar: ellipsis
Encoding: 8230 8230 101
Width: 0
Flags: W
LayerCount: 2
Fore
SplineSet
-919 1727 m 0,0,1
 -919 1762 -919 1762 -888 1771 c 0,2,3
 -882 1773 -882 1773 -874 1773 c 0,4,5
 -851 1773 -851 1773 -829 1756 c 0,6,7
 -771 1709 -771 1709 -492 1409 c 0,8,9
 -345 1251 -345 1251 -278 1172 c 0,10,11
 -250 1140 -250 1140 -250 1127 c 0,12,13
 -255 1108 -255 1108 -273 1104 c 1,14,15
 -306 1104 -306 1104 -635 1420 c 2,16,-1
 -654 1438 l 2,17,18
 -805 1582 -805 1582 -896 1677 c 0,19,20
 -901 1682 -901 1682 -902 1683 c 0,21,22
 -919 1704 -919 1704 -919 1727 c 0,0,1
EndSplineSet
Validated: 1
EndChar

StartChar: dagger
Encoding: 8224 8224 102
Width: 0
Flags: W
LayerCount: 2
Fore
SplineSet
-677 1679 m 0,0,1
 -677 1713 -677 1713 -647 1722 c 0,2,3
 -640 1724 -640 1724 -633 1724 c 0,4,5
 -602 1724 -602 1724 -549 1672 c 0,6,7
 -543 1667 -543 1667 -399 1517 c 0,8,9
 -58 1162 -58 1162 -58 1126 c 0,10,11
 -58 1107 -58 1107 -80 1104 c 0,12,13
 -115 1104 -115 1104 -470 1445 c 0,14,15
 -651 1621 -651 1621 -660 1634 c 0,16,17
 -677 1656 -677 1656 -677 1679 c 0,0,1
EndSplineSet
Validated: 1
EndChar

StartChar: daggerdbl
Encoding: 8225 8225 103
Width: 958
Flags: W
LayerCount: 2
Fore
SplineSet
787 19 m 1,0,-1
 695 -7 l 2,1,2
 649 -17 649 -17 551 -17 c 0,3,4
 438 -17 438 -17 397 -11 c 0,5,6
 240 11 240 11 163 124 c 0,7,8
 109 202 109 202 107 304 c 2,9,-1
 107 318 l 2,10,11
 107 414 107 414 173 532 c 0,12,13
 259 684 259 684 421 789 c 0,14,15
 555 876 555 876 683 887 c 0,16,17
 699 888 699 888 714 888 c 0,18,19
 796 888 796 888 834 868 c 0,20,21
 866 852 866 852 881 821 c 0,22,23
 890 802 890 802 890 777 c 0,24,25
 890 691 890 691 807 655 c 0,26,27
 778 642 778 642 756 642 c 0,28,29
 711 642 711 642 679 677 c 0,30,31
 651 708 651 708 641 715 c 0,32,33
 619 729 619 729 587 729 c 0,34,35
 492 729 492 729 415 692 c 0,36,37
 383 676 383 676 362 655 c 0,38,39
 296 589 296 589 284 476 c 0,40,41
 281 455 281 455 281 435 c 0,42,43
 281 263 281 263 439 184 c 0,44,45
 508 149 508 149 575 144 c 0,46,47
 610 143 610 143 703 143 c 0,48,49
 892 143 892 143 1019 233 c 1,50,-1
 1096 291 l 2,51,52
 1121 307 1121 307 1143 307 c 0,53,54
 1157 307 1157 307 1157 292 c 0,55,56
 1157 262 1157 262 1088 197 c 2,57,-1
 434 -392 l 2,58,59
 386 -433 386 -433 351 -435 c 0,60,61
 337 -435 337 -435 337 -421 c 0,62,63
 337 -387 337 -387 391 -338 c 2,64,-1
 787 19 l 1,0,-1
EndSplineSet
Validated: 1
EndChar

StartChar: circumflex
Encoding: 710 710 104
Width: 540
Flags: W
LayerCount: 2
Fore
SplineSet
264 802 m 0,0,1
 264 840 264 840 292 872 c 0,2,3
 319 903 319 903 363 903 c 0,4,5
 426 903 426 903 454 854 c 0,6,7
 466 831 466 831 466 802 c 0,8,9
 466 738 466 738 414 712 c 0,10,11
 392 701 392 701 366 701 c 0,12,13
 293 701 293 701 270 772 c 0,14,15
 264 789 264 789 264 802 c 0,0,1
160 436 m 0,16,17
 160 468 160 468 184 500 c 0,18,19
 212 537 212 537 260 537 c 0,20,21
 324 537 324 537 351 485 c 0,22,23
 362 463 362 463 362 436 c 0,24,25
 362 376 362 376 313 348 c 0,26,27
 290 336 290 336 261 336 c 0,28,29
 199 336 199 336 172 387 c 0,30,31
 160 410 160 410 160 436 c 0,16,17
55 71 m 0,32,33
 55 116 55 116 91 149 c 0,34,35
 117 171 117 171 151 171 c 0,36,37
 227 171 227 171 250 111 c 0,38,39
 258 93 258 93 258 70 c 0,40,41
 258 8 258 8 206 -19 c 0,42,43
 183 -30 183 -30 156 -30 c 0,44,45
 84 -30 84 -30 61 40 c 0,46,47
 55 58 55 58 55 71 c 0,32,33
EndSplineSet
Validated: 1
EndChar

StartChar: perthousand
Encoding: 8240 8240 105
Width: 0
Flags: W
LayerCount: 2
Fore
SplineSet
-793 -233 m 0,0,1
 -773 -233 -773 -233 -771 -254 c 0,2,3
 -771 -268 -771 -268 -787 -282 c 0,4,5
 -795 -289 -795 -289 -817 -308 c 0,6,7
 -1013 -470 -1013 -470 -1310 -680 c 2,8,-1
 -1623 -900 l 2,9,10
 -1650 -919 -1650 -919 -1671 -919 c 0,11,12
 -1706 -919 -1706 -919 -1717 -889 c 0,13,14
 -1720 -881 -1720 -881 -1720 -872 c 0,15,16
 -1720 -847 -1720 -847 -1684 -817 c 0,17,18
 -1663 -800 -1663 -800 -1477 -671 c 2,19,-1
 -1448 -651 l 2,20,21
 -987 -331 -987 -331 -836 -251 c 0,22,23
 -803 -233 -803 -233 -793 -233 c 0,0,1
EndSplineSet
Validated: 1
EndChar

StartChar: Scaron
Encoding: 352 352 106
Width: 0
Flags: W
LayerCount: 2
Fore
SplineSet
-1231 -779 m 0,0,1
 -1263 -779 -1263 -779 -1275 -750 c 0,2,3
 -1278 -742 -1278 -742 -1278 -733 c 0,4,5
 -1278 -706 -1278 -706 -1248 -681 c 0,6,7
 -1234 -670 -1234 -670 -1089 -570 c 0,8,9
 -846 -403 -846 -403 -654 -287 c 0,10,11
 -564 -233 -564 -233 -551 -233 c 0,12,13
 -531 -233 -531 -233 -528 -254 c 0,14,15
 -528 -268 -528 -268 -554 -291 c 2,16,-1
 -594 -324 l 2,17,18
 -782 -479 -782 -479 -1005 -640 c 0,19,20
 -1198 -779 -1198 -779 -1231 -779 c 0,0,1
EndSplineSet
Validated: 1
EndChar

StartChar: guilsinglleft
Encoding: 8249 8249 107
Width: 0
Flags: W
LayerCount: 2
Fore
SplineSet
-1231 -779 m 0,0,1
 -1263 -779 -1263 -779 -1275 -750 c 0,2,3
 -1278 -742 -1278 -742 -1278 -733 c 0,4,5
 -1278 -706 -1278 -706 -1248 -681 c 0,6,7
 -1234 -670 -1234 -670 -1089 -570 c 0,8,9
 -846 -403 -846 -403 -654 -287 c 0,10,11
 -564 -233 -564 -233 -551 -233 c 0,12,13
 -531 -233 -531 -233 -528 -254 c 0,14,15
 -528 -268 -528 -268 -554 -291 c 2,16,-1
 -594 -324 l 2,17,18
 -782 -479 -782 -479 -1005 -640 c 0,19,20
 -1198 -779 -1198 -779 -1231 -779 c 0,0,1
EndSplineSet
Validated: 1
EndChar

StartChar: OE
Encoding: 338 338 108
Width: 696
Flags: W
LayerCount: 2
Fore
SplineSet
140 -544 m 0,0,1
 140 -571 140 -571 87 -624 c 0,2,3
 26 -686 26 -686 -16 -688 c 0,4,5
 -31 -689 -31 -689 -35 -673 c 0,6,7
 -39 -662 -39 -662 -52 -570 c 0,8,9
 -76 -407 -76 -407 -76 -242 c 0,10,11
 -76 359 -76 359 227 889 c 0,12,13
 418 1224 418 1224 715 1496 c 0,14,15
 785 1560 785 1560 819 1560 c 0,16,17
 837 1560 837 1560 837 1547 c 0,18,19
 837 1520 837 1520 782 1465 c 2,20,-1
 671 1355 l 1,21,-1
 613 1292 l 1,22,23
 315 951 315 951 184 494 c 0,24,25
 98 196 98 196 98 -111 c 0,26,27
 98 -309 98 -309 129 -460 c 0,28,29
 140 -515 140 -515 140 -544 c 0,0,1
EndSplineSet
Validated: 1
EndChar

StartChar: quoteleft
Encoding: 8216 8216 109
Width: 0
Flags: W
LayerCount: 2
Fore
SplineSet
-1818 -674 m 0,0,1
 -1818 -762 -1818 -762 -1754 -817 c 0,2,3
 -1704 -861 -1704 -861 -1633 -861 c 0,4,5
 -1473 -861 -1473 -861 -1240 -601 c 0,6,7
 -1181 -536 -1181 -536 -890 -182 c 0,8,9
 -679 75 -679 75 -660 92 c 0,10,11
 -656 96 -656 96 -649 101 c 0,12,13
 -609 132 -609 132 -590 132 c 0,14,15
 -578 132 -578 132 -578 124 c 2,16,-1
 -578 120 l 2,17,18
 -578 108 -578 108 -593 88 c 2,19,-1
 -1070 -491 l 1,20,21
 -1389 -871 -1389 -871 -1627 -959 c 0,22,23
 -1692 -983 -1692 -983 -1749 -983 c 0,24,25
 -1855 -983 -1855 -983 -1913 -902 c 0,26,27
 -1951 -849 -1951 -849 -1951 -780 c 0,28,29
 -1951 -644 -1951 -644 -1834 -531 c 0,30,31
 -1746 -447 -1746 -447 -1650 -424 c 0,32,33
 -1627 -418 -1627 -418 -1607 -418 c 0,34,35
 -1519 -418 -1519 -418 -1479 -481 c 0,36,37
 -1461 -510 -1461 -510 -1461 -546 c 0,38,39
 -1461 -629 -1461 -629 -1546 -701 c 0,40,41
 -1595 -741 -1595 -741 -1620 -741 c 0,42,43
 -1631 -741 -1631 -741 -1631 -731 c 0,44,45
 -1631 -718 -1631 -718 -1612 -695 c 0,46,47
 -1595 -674 -1595 -674 -1595 -652 c 0,48,49
 -1595 -591 -1595 -591 -1648 -559 c 0,50,51
 -1678 -541 -1678 -541 -1714 -541 c 0,52,53
 -1779 -541 -1779 -541 -1797 -582 c 0,54,55
 -1800 -587 -1800 -587 -1805 -603 c 0,56,57
 -1818 -638 -1818 -638 -1818 -674 c 0,0,1
EndSplineSet
Validated: 1
EndChar

StartChar: quoteright
Encoding: 8217 8217 110
Width: 0
Flags: W
LayerCount: 2
Fore
SplineSet
-1693 -763 m 0,0,1
 -1693 -888 -1693 -888 -1586 -936 c 0,2,3
 -1546 -954 -1546 -954 -1513 -954 c 0,4,5
 -1369 -954 -1369 -954 -1192 -720 c 0,6,7
 -1145 -657 -1145 -657 -1079 -556 c 2,8,-1
 -858 -207 l 2,9,10
 -711 28 -711 28 -668 79 c 0,11,12
 -624 132 -624 132 -589 132 c 0,13,14
 -577 132 -577 132 -577 124 c 2,15,-1
 -577 120 l 2,16,17
 -577 102 -577 102 -857 -337 c 2,18,-1
 -929 -449 l 2,19,20
 -1188 -856 -1188 -856 -1414 -1003 c 0,21,22
 -1526 -1077 -1526 -1077 -1622 -1077 c 0,23,24
 -1723 -1077 -1723 -1077 -1782 -1001 c 0,25,26
 -1826 -943 -1826 -943 -1826 -861 c 0,27,28
 -1826 -757 -1826 -757 -1737 -650 c 0,29,30
 -1654 -550 -1654 -550 -1552 -519 c 0,31,32
 -1520 -510 -1520 -510 -1490 -510 c 0,33,34
 -1407 -510 -1407 -510 -1367 -569 c 0,35,36
 -1347 -600 -1347 -600 -1347 -638 c 0,37,38
 -1347 -696 -1347 -696 -1411 -764 c 0,39,40
 -1464 -819 -1464 -819 -1500 -819 c 0,41,42
 -1512 -819 -1512 -819 -1512 -812 c 0,43,44
 -1512 -798 -1512 -798 -1495 -775 c 0,45,46
 -1481 -757 -1481 -757 -1481 -740 c 0,47,48
 -1481 -704 -1481 -704 -1509 -671 c 0,49,50
 -1542 -632 -1542 -632 -1599 -632 c 0,51,52
 -1652 -632 -1652 -632 -1664 -654 c 0,53,54
 -1693 -705 -1693 -705 -1693 -763 c 0,0,1
EndSplineSet
Validated: 1
EndChar

StartChar: quotedblleft
Encoding: 8220 8220 111
Width: 0
Flags: W
LayerCount: 2
Fore
SplineSet
-1408 -876 m 0,0,1
 -1408 -1010 -1408 -1010 -1297 -1061 c 0,2,3
 -1256 -1080 -1256 -1080 -1221 -1080 c 0,4,5
 -1149 -1080 -1149 -1080 -1093 -1009 c 0,6,7
 -1056 -962 -1056 -962 -1002 -855 c 0,8,9
 -946 -743 -946 -743 -900 -604 c 0,10,11
 -868 -505 -868 -505 -789 -241 c 0,12,13
 -709 31 -709 31 -706 36 c 0,14,15
 -688 75 -688 75 -633 112 c 0,16,17
 -604 132 -604 132 -590 132 c 0,18,19
 -578 132 -578 132 -578 122 c 0,20,21
 -578 115 -578 115 -658 -155 c 2,22,-1
 -767 -516 l 1,23,24
 -962 -1075 -962 -1075 -1244 -1185 c 0,25,26
 -1290 -1203 -1290 -1203 -1333 -1203 c 0,27,28
 -1430 -1203 -1430 -1203 -1492 -1127 c 0,29,30
 -1542 -1064 -1542 -1064 -1542 -980 c 0,31,32
 -1542 -860 -1542 -860 -1441 -753 c 0,33,34
 -1358 -666 -1358 -666 -1265 -643 c 0,35,36
 -1242 -638 -1242 -638 -1222 -638 c 0,37,38
 -1126 -638 -1126 -638 -1094 -715 c 0,39,40
 -1085 -736 -1085 -736 -1085 -753 c 0,41,42
 -1085 -812 -1085 -812 -1158 -876 c 0,43,44
 -1205 -917 -1205 -917 -1230 -917 c 0,45,46
 -1240 -917 -1240 -917 -1240 -909 c 0,47,48
 -1240 -908 -1240 -908 -1240 -906 c 0,49,50
 -1240 -895 -1240 -895 -1225 -874 c 0,51,52
 -1219 -864 -1219 -864 -1219 -857 c 0,53,54
 -1219 -792 -1219 -792 -1293 -768 c 0,55,56
 -1315 -761 -1315 -761 -1333 -761 c 0,57,58
 -1377 -761 -1377 -761 -1387 -783 c 0,59,60
 -1406 -824 -1406 -824 -1408 -876 c 0,0,1
EndSplineSet
Validated: 1
EndChar

StartChar: quotedblright
Encoding: 8221 8221 112
Width: 0
Flags: W
LayerCount: 2
Fore
SplineSet
-1097 -873 m 0,0,1
 -1097 -1008 -1097 -1008 -985 -1061 c 0,2,3
 -943 -1081 -943 -1081 -907 -1081 c 0,4,5
 -851 -1081 -851 -1081 -816 -1043 c 0,6,7
 -787 -1012 -787 -1012 -750 -937 c 0,8,9
 -654 -748 -654 -748 -603 -483 c 0,10,11
 -513 -17 -513 -17 -498 35 c 1,12,13
 -480 74 -480 74 -425 112 c 0,14,15
 -395 132 -395 132 -381 132 c 0,16,17
 -371 132 -371 132 -369 124 c 0,18,19
 -369 116 -369 116 -392 5 c 2,20,-1
 -445 -265 l 2,21,22
 -491 -490 -491 -490 -513 -570 c 0,23,24
 -557 -728 -557 -728 -621 -858 c 0,25,26
 -651 -921 -651 -921 -682 -966 c 0,27,28
 -798 -1141 -798 -1141 -943 -1190 c 0,29,30
 -984 -1204 -984 -1204 -1018 -1204 c 0,31,32
 -1117 -1204 -1117 -1204 -1180 -1127 c 0,33,34
 -1231 -1064 -1231 -1064 -1231 -979 c 0,35,36
 -1231 -859 -1231 -859 -1130 -754 c 0,37,38
 -1048 -667 -1048 -667 -956 -646 c 0,39,40
 -935 -641 -935 -641 -915 -641 c 0,41,42
 -866 -641 -866 -641 -825 -669 c 0,43,44
 -782 -698 -782 -698 -782 -750 c 0,45,46
 -782 -806 -782 -806 -851 -868 c 0,47,48
 -898 -909 -898 -909 -924 -909 c 0,49,50
 -936 -909 -936 -909 -936 -899 c 0,51,52
 -936 -890 -936 -890 -920 -866 c 0,53,54
 -915 -857 -915 -857 -915 -853 c 0,55,56
 -916 -822 -916 -822 -945 -794 c 0,57,58
 -976 -764 -976 -764 -1027 -764 c 0,59,60
 -1044 -764 -1044 -764 -1071 -772 c 1,61,62
 -1097 -824 -1097 -824 -1097 -873 c 0,0,1
EndSplineSet
Validated: 1
EndChar

StartChar: bullet
Encoding: 8226 8226 113
Width: 993
Flags: W
LayerCount: 2
Fore
SplineSet
-954 -1928 m 0,0,1
 -971 -1928 -971 -1928 -971 -1915 c 0,2,3
 -971 -1882 -971 -1882 -897 -1815 c 0,4,5
 -573 -1520 -573 -1520 -264 -1128 c 1,6,-1
 -165 -998 l 2,7,8
 79 -674 79 -674 348 -240 c 0,9,10
 419 -125 419 -125 419 -123 c 2,11,-1
 404 -103 l 1,12,13
 143 222 143 222 114 656 c 0,14,15
 110 715 110 715 110 777 c 0,16,17
 110 1232 110 1232 424 1732 c 0,18,19
 574 1969 574 1969 791 2207 c 0,20,21
 990 2425 990 2425 1120 2534 c 0,22,23
 1195 2597 1195 2597 1222 2597 c 0,24,25
 1240 2597 1240 2597 1240 2580 c 0,26,27
 1240 2552 1240 2552 1191 2504 c 2,28,-1
 1143 2460 l 2,29,30
 402 1779 402 1779 287 1114 c 0,31,32
 273 1034 273 1034 267 948 c 0,33,34
 266 923 266 923 266 855 c 0,35,36
 266 736 266 736 272 720 c 0,37,38
 273 720 273 720 291 734 c 0,39,40
 488 898 488 898 634 905 c 0,41,42
 643 906 643 906 652 906 c 0,43,44
 776 906 776 906 846 819 c 0,45,46
 897 756 897 756 897 669 c 0,47,48
 897 659 897 659 897 653 c 0,49,50
 897 468 897 468 474 -211 c 0,51,52
 -51 -1052 -51 -1052 -542 -1564 c 1,53,-1
 -737 -1760 l 2,54,55
 -859 -1879 -859 -1879 -904 -1908 c 0,56,57
 -935 -1928 -935 -1928 -954 -1928 c 0,0,1
724 531 m 0,58,59
 724 627 724 627 655 691 c 0,60,61
 594 746 594 746 505 746 c 0,62,63
 418 746 418 746 322 668 c 0,64,65
 306 655 306 655 283 635 c 1,66,67
 319 442 319 442 384 301 c 0,68,69
 441 179 441 179 528 60 c 1,70,-1
 544 89 l 2,71,72
 724 415 724 415 724 531 c 0,58,59
EndSplineSet
Validated: 1
EndChar

StartChar: endash
Encoding: 8211 8211 114
Width: 1863
Flags: W
LayerCount: 2
Fore
SplineSet
1480 -3 m 2,0,-1
 1531 248 l 1,1,-1
 1531 249 l 2,2,3
 1530 249 1530 249 1512 231 c 0,4,5
 1261 -16 1261 -16 1087 -16 c 0,6,7
 970 -16 970 -16 892 79 c 0,8,9
 843 140 843 140 820 232 c 1,10,-1
 805 217 l 2,11,12
 567 -16 567 -16 369 -16 c 0,13,14
 245 -16 245 -16 165 97 c 0,15,16
 107 178 107 178 99 281 c 0,17,18
 98 291 98 291 98 306 c 0,19,20
 98 505 98 505 199 718 c 0,21,22
 272 873 272 873 403 1053 c 0,23,24
 891 1726 891 1726 1420 2121 c 0,25,26
 1721 2346 1721 2346 2018 2464 c 0,27,28
 2375 2605 2375 2605 2711 2605 c 0,29,30
 2743 2605 2743 2605 2745 2597 c 0,31,32
 2746 2595 2746 2595 2746 2592 c 0,33,34
 2746 2559 2746 2559 2681 2498 c 0,35,36
 2534 2365 2534 2365 2418 2208 c 0,37,38
 2177 1885 2177 1885 1998 1406 c 0,39,40
 1803 886 1803 886 1656 138 c 0,41,42
 1643 71 1643 71 1562 15 c 0,43,44
 1517 -16 1517 -16 1495 -16 c 0,45,46
 1480 -16 1480 -16 1480 -3 c 2,0,-1
1496 775 m 0,47,48
 1496 722 1496 722 1450 679 c 0,49,50
 1411 642 1411 642 1360 642 c 0,51,52
 1316 642 1316 642 1283 677 c 0,53,54
 1255 708 1255 708 1245 715 c 0,55,56
 1223 729 1223 729 1193 729 c 0,57,58
 1099 729 1099 729 1053 661 c 0,59,60
 1040 642 1040 642 1026 613 c 0,61,62
 987 530 987 530 987 443 c 0,63,64
 987 319 987 319 1060 230 c 0,65,66
 1088 196 1088 196 1125 174 c 0,67,68
 1175 144 1175 144 1231 144 c 0,69,70
 1334 144 1334 144 1448 265 c 0,71,72
 1537 360 1537 360 1578 467 c 0,73,74
 1584 484 1584 484 1640 700 c 0,75,76
 1792 1283 1792 1283 2000 1701 c 0,77,78
 2203 2106 2203 2106 2485 2404 c 1,79,-1
 2513 2433 l 2,80,81
 2522 2443 2522 2443 2522 2444 c 2,82,-1
 2520 2444 l 1,83,84
 1852 2413 1852 2413 1247 1890 c 0,85,86
 937 1622 937 1622 613 1199 c 0,87,88
 344 848 344 848 291 611 c 0,89,90
 273 533 273 533 273 443 c 0,91,92
 273 315 273 315 350 226 c 0,93,94
 368 205 368 205 390 189 c 0,95,96
 449 143 449 143 520 143 c 0,97,98
 612 143 612 143 698 213 c 0,99,100
 793 292 793 292 828 428 c 0,101,102
 865 573 865 573 992 707 c 0,103,104
 1120 841 1120 841 1257 878 c 0,105,106
 1297 889 1297 889 1334 889 c 0,107,108
 1481 889 1481 889 1495 793 c 0,109,110
 1496 784 1496 784 1496 775 c 0,47,48
EndSplineSet
Validated: 1
EndChar

StartChar: emdash
Encoding: 8212 8212 115
Width: 958
Flags: W
LayerCount: 2
Fore
SplineSet
-217 583 m 0,0,1
 -233 583 -233 583 -233 598 c 0,2,3
 -233 629 -233 629 -181 677 c 0,4,5
 10 850 10 850 222 894 c 0,6,7
 287 907 287 907 358 910 c 0,8,9
 469 914 469 914 626 888 c 0,10,11
 802 859 802 859 930 858 c 2,12,-1
 942 858 l 2,13,14
 1017 858 1017 858 1081 889 c 0,15,16
 1107 901 1107 901 1120 901 c 0,17,18
 1137 901 1137 901 1137 885 c 0,19,20
 1137 835 1137 835 1052 782 c 0,21,22
 983 738 983 738 903 722 c 0,23,24
 890 719 890 719 885 711 c 0,25,26
 884 709 884 709 854 632 c 2,27,-1
 781 434 l 2,28,29
 684 169 684 169 625 37 c 0,30,31
 290 -718 290 -718 -487 -1505 c 1,32,-1
 -766 -1777 l 1,33,34
 -1000 -1997 -1000 -1997 -1076 -2061 c 0,35,36
 -1124 -2099 -1124 -2099 -1157 -2102 c 0,37,38
 -1171 -2102 -1171 -2102 -1171 -2088 c 0,39,40
 -1171 -2057 -1171 -2057 -1096 -1986 c 2,41,-1
 -772 -1686 l 1,42,43
 -447 -1376 -447 -1376 -229 -1121 c 0,44,45
 251 -559 251 -559 488 6 c 0,46,47
 536 121 536 121 647 425 c 0,48,49
 725 641 725 641 774 715 c 1,50,51
 654 721 654 721 420 753 c 0,52,53
 320 767 320 767 270 767 c 0,54,55
 62 767 62 767 -79 667 c 1,56,-1
 -167 600 l 2,57,58
 -194 583 -194 583 -217 583 c 0,0,1
EndSplineSet
Validated: 33
EndChar

StartChar: tilde
Encoding: 732 732 116
Width: 0
Flags: W
LayerCount: 2
Fore
SplineSet
-855 -558 m 0,0,1
 -855 -657 -855 -657 -949 -747 c 0,2,3
 -1031 -826 -1031 -826 -1123 -841 c 0,4,5
 -1139 -843 -1139 -843 -1154 -843 c 0,6,7
 -1206 -843 -1206 -843 -1258 -811 c 0,8,9
 -1337 -761 -1337 -761 -1337 -660 c 0,10,11
 -1337 -539 -1337 -539 -1213 -445 c 0,12,13
 -1138 -388 -1138 -388 -1075 -376 c 1,14,-1
 -1047 -373 l 1,15,16
 -945 -373 -945 -373 -890 -448 c 0,17,18
 -855 -496 -855 -496 -855 -558 c 0,0,1
-989 -659 m 0,19,20
 -989 -614 -989 -614 -1019 -567 c 0,21,22
 -1065 -496 -1065 -496 -1154 -496 c 0,23,24
 -1165 -496 -1165 -496 -1170 -497 c 0,25,26
 -1192 -497 -1192 -497 -1196 -510 c 0,27,28
 -1197 -514 -1197 -514 -1198 -520 c 0,29,30
 -1203 -539 -1203 -539 -1203 -558 c 0,31,32
 -1203 -605 -1203 -605 -1170 -653 c 0,33,34
 -1125 -721 -1125 -721 -1041 -721 c 0,35,36
 -1004 -721 -1004 -721 -996 -702 c 0,37,38
 -989 -689 -989 -689 -989 -659 c 0,19,20
EndSplineSet
Validated: 1
EndChar

StartChar: trademark
Encoding: 8482 8482 117
Width: 0
Flags: W
LayerCount: 2
Fore
SplineSet
-612 -557 m 0,0,1
 -612 -639 -612 -639 -686 -726 c 0,2,3
 -767 -820 -767 -820 -869 -839 c 0,4,5
 -890 -843 -890 -843 -911 -843 c 0,6,7
 -987 -843 -987 -843 -1041 -788 c 0,8,9
 -1050 -780 -1050 -780 -1057 -770 c 0,10,11
 -1093 -722 -1093 -722 -1093 -660 c 0,12,13
 -1093 -567 -1093 -567 -1006 -477 c 0,14,15
 -926 -394 -926 -394 -837 -377 c 1,16,-1
 -803 -373 l 1,17,18
 -702 -373 -702 -373 -647 -447 c 0,19,20
 -612 -495 -612 -495 -612 -557 c 0,0,1
-745 -659 m 0,21,22
 -745 -617 -745 -617 -775 -570 c 0,23,24
 -822 -496 -822 -496 -910 -496 c 0,25,26
 -922 -496 -922 -496 -927 -497 c 0,27,28
 -960 -497 -960 -497 -960 -558 c 0,29,30
 -960 -605 -960 -605 -927 -653 c 0,31,32
 -881 -721 -881 -721 -797 -721 c 0,33,34
 -762 -721 -762 -721 -753 -706 c 0,35,36
 -745 -693 -745 -693 -745 -659 c 0,21,22
EndSplineSet
Validated: 1
EndChar

StartChar: scaron
Encoding: 353 353 118
Width: 1910
Flags: W
LayerCount: 2
Fore
SplineSet
-174 675 m 0,0,1
 -174 705 -174 705 -119 761 c 0,2,3
 -16 862 -16 862 135 895 c 0,4,5
 174 903 174 903 214 906 c 2,6,-1
 243 906 l 2,7,8
 330 906 330 906 368 825 c 0,9,10
 389 781 389 781 389 723 c 0,11,12
 389 689 389 689 376 627 c 1,13,14
 377 627 377 627 402 650 c 0,15,16
 644 889 644 889 821 889 c 0,17,18
 971 889 971 889 1047 751 c 0,19,20
 1086 681 1086 681 1087 621 c 0,21,22
 1087 618 1087 618 1088 615 c 1,23,24
 1101 625 1101 625 1182 701 c 0,25,26
 1320 831 1320 831 1430 869 c 0,27,28
 1487 888 1487 888 1543 888 c 0,29,30
 1650 888 1650 888 1727 808 c 0,31,32
 1807 724 1807 724 1807 598 c 0,33,34
 1807 427 1807 427 1651 244 c 0,35,36
 1605 190 1605 190 1561 153 c 0,37,38
 1550 144 1550 144 1550 143 c 128,-1,39
 1550 142 1550 142 1570 135 c 0,40,41
 1592 129 1592 129 1619 115 c 0,42,43
 1739 58 1739 58 1799 -43 c 0,44,45
 1843 -118 1843 -118 1843 -207 c 0,46,47
 1843 -334 1843 -334 1738 -461 c 0,48,49
 1623 -600 1623 -600 1449 -655 c 0,50,51
 1361 -683 1361 -683 1268 -683 c 0,52,53
 1079 -683 1079 -683 957 -585 c 0,54,55
 869 -515 869 -515 860 -430 c 0,56,57
 859 -423 859 -423 859 -415 c 0,58,59
 859 -344 859 -344 932 -264 c 1,60,61
 997 -199 997 -199 1043 -192 c 0,62,63
 1060 -192 1060 -192 1060 -208 c 0,64,65
 1060 -225 1060 -225 1037 -254 c 0,66,67
 1015 -281 1015 -281 1015 -305 c 0,68,69
 1015 -375 1015 -375 1092 -441 c 0,70,71
 1197 -531 1197 -531 1360 -538 c 2,72,-1
 1391 -539 l 2,73,74
 1489 -539 1489 -539 1571 -506 c 0,75,76
 1627 -483 1627 -483 1651 -448 c 0,77,78
 1687 -394 1687 -394 1687 -315 c 0,79,80
 1687 -196 1687 -196 1593 -102 c 0,81,82
 1508 -17 1508 -17 1374 13 c 0,83,84
 1211 50 1211 50 967 50 c 0,85,86
 636 50 636 50 147 2 c 1,87,-1
 -22 -16 l 2,88,89
 -36 -16 -36 -16 -36 -4 c 0,90,91
 -36 20 -36 20 6 67 c 0,92,93
 29 93 29 93 37 105 c 0,94,95
 122 232 122 232 182 431 c 0,96,97
 215 538 215 538 215 590 c 0,98,99
 215 689 215 689 154 729 c 0,100,101
 128 747 128 747 94 747 c 0,102,103
 -15 747 -15 747 -90 695 c 0,104,105
 -131 667 -131 667 -143 664 c 0,106,107
 -150 662 -150 662 -158 662 c 0,108,109
 -174 662 -174 662 -174 675 c 0,0,1
914 462 m 0,110,111
 914 524 914 524 880 594 c 0,112,113
 814 729 814 729 675 729 c 0,114,115
 525 729 525 729 361 475 c 0,116,117
 325 420 325 420 224 238 c 0,118,119
 192 178 192 178 173 151 c 2,120,-1
 162 135 l 1,121,-1
 164 135 l 1,122,-1
 736 186 l 1,123,124
 797 196 797 196 822 223 c 0,125,126
 830 232 830 232 849 259 c 0,127,128
 914 356 914 356 914 462 c 0,110,111
1078 193 m 0,129,130
 1193 193 1193 193 1341 182 c 0,131,132
 1366 180 1366 180 1386 180 c 0,133,134
 1476 180 1476 180 1517 210 c 0,135,136
 1529 219 1529 219 1540 231 c 0,137,138
 1624 326 1624 326 1633 444 c 1,139,-1
 1633 466 l 2,140,141
 1633 591 1633 591 1544 670 c 0,142,143
 1491 716 1491 716 1427 727 c 0,144,145
 1413 728 1413 728 1392 728 c 0,146,147
 1258 728 1258 728 1118 520 c 0,148,149
 1101 496 1101 496 1016 355 c 0,150,151
 997 322 997 322 984 304 c 0,152,153
 948 253 948 253 888 188 c 1,154,155
 930 193 930 193 1078 193 c 0,129,130
EndSplineSet
Validated: 1
EndChar

StartChar: guilsinglright
Encoding: 8250 8250 119
Width: 870
Flags: W
LayerCount: 2
Fore
SplineSet
190 1340 m 0,0,1
 174 1340 174 1340 174 1354 c 0,2,3
 174 1379 174 1379 230 1437 c 0,4,5
 334 1544 334 1544 470 1584 c 0,6,7
 526 1601 526 1601 582 1602 c 2,8,-1
 603 1603 l 1,9,10
 683 1683 683 1683 791 1734 c 0,11,12
 883 1776 883 1776 964 1776 c 0,13,14
 1090 1776 1090 1776 1115 1654 c 0,15,16
 1121 1629 1121 1629 1121 1600 c 0,17,18
 1123 1388 1123 1388 733 656 c 0,19,20
 593 395 593 395 463 177 c 0,21,22
 186 -287 186 -287 -138 -651 c 0,23,24
 -352 -892 -352 -892 -679 -1193 c 1,25,-1
 -1039 -1517 l 2,26,27
 -1085 -1557 -1085 -1557 -1120 -1559 c 0,28,29
 -1134 -1559 -1134 -1559 -1134 -1544 c 0,30,31
 -1134 -1518 -1134 -1518 -1077 -1461 c 2,32,-1
 -928 -1316 l 1,33,-1
 -868 -1254 l 1,34,35
 -452 -812 -452 -812 -106 -157 c 2,36,-1
 329 666 l 2,37,38
 437 872 437 872 510 1074 c 0,39,40
 564 1224 564 1224 564 1294 c 0,41,42
 564 1380 564 1380 510 1421 c 0,43,44
 481 1442 481 1442 442 1442 c 0,45,46
 354 1442 354 1442 273 1384 c 0,47,48
 222 1349 222 1349 210 1344 c 0,49,50
 200 1340 200 1340 190 1340 c 0,0,1
947 1465 m 0,51,52
 947 1540 947 1540 904 1584 c 0,53,54
 872 1616 872 1616 824 1616 c 0,55,56
 744 1616 744 1616 676 1575 c 1,57,58
 724 1527 724 1527 734 1468 c 0,59,60
 738 1446 738 1446 738 1421 c 0,61,62
 738 1307 738 1307 607 1003 c 0,63,64
 549 868 549 868 485 745 c 2,65,-1
 128 63 l 1,66,67
 -181 -508 -181 -508 -459 -879 c 1,68,-1
 -478 -906 l 1,69,-1
 -331 -755 l 1,70,71
 -134 -546 -134 -546 -5 -374 c 0,72,73
 264 -12 264 -12 631 686 c 0,74,75
 947 1287 947 1287 947 1465 c 0,51,52
EndSplineSet
Validated: 33
EndChar

StartChar: oe
Encoding: 339 339 120
Width: 696
Flags: W
LayerCount: 2
Fore
SplineSet
314 1416 m 0,0,1
 314 1441 314 1441 365 1495 c 0,2,3
 427 1560 427 1560 470 1560 c 0,4,5
 484 1560 484 1560 488 1547 c 0,6,7
 488 1545 488 1545 490 1534 c 0,8,9
 530 1316 530 1316 530 1115 c 0,10,11
 530 527 530 527 239 5 c 0,12,13
 45 -344 45 -344 -262 -624 c 0,14,15
 -331 -688 -331 -688 -367 -688 c 0,16,17
 -383 -688 -383 -688 -383 -675 c 0,18,19
 -383 -640 -383 -640 -307 -571 c 0,20,21
 37 -254 37 -254 212 206 c 0,22,23
 355 582 355 582 355 983 c 0,24,25
 355 1200 355 1200 316 1398 c 0,26,27
 314 1411 314 1411 314 1416 c 0,0,1
EndSplineSet
Validated: 1
EndChar

StartChar: Ydieresis
Encoding: 376 376 121
Width: 0
Flags: W
LayerCount: 2
Fore
SplineSet
-764 -884 m 0,0,1
 -797 -884 -797 -884 -807 -848 c 0,2,3
 -809 -842 -809 -842 -809 -837 c 0,4,5
 -809 -813 -809 -813 -770 -765 c 2,6,-1
 -695 -677 l 2,7,8
 -436 -374 -436 -374 -320 -266 c 0,9,10
 -282 -231 -282 -231 -273 -231 c 2,11,-1
 -269 -231 l 1,12,13
 -252 -236 -252 -236 -249 -255 c 1,14,15
 -251 -278 -251 -278 -472 -564 c 0,16,17
 -656 -802 -656 -802 -716 -862 c 0,18,19
 -739 -884 -739 -884 -764 -884 c 0,0,1
EndSplineSet
Validated: 1
EndChar

StartChar: exclamdown
Encoding: 161 161 122
Width: 1044
Flags: W
LayerCount: 2
Fore
SplineSet
-393 19 m 1,0,-1
 -640 12 l 2,1,2
 -659 12 -659 12 -659 29 c 0,3,4
 -659 67 -659 67 -589 121 c 0,5,6
 -563 141 -563 141 -547 148 c 0,7,8
 -530 156 -530 156 -488 157 c 2,9,-1
 -262 163 l 2,10,11
 -125 163 -125 163 45 262 c 1,12,-1
 280 407 l 1,13,14
 458 510 458 510 606 510 c 0,15,16
 779 510 779 510 846 359 c 0,17,18
 877 288 877 288 877 205 c 0,19,20
 877 19 877 19 734 -148 c 0,21,22
 619 -284 619 -284 467 -345 c 0,23,24
 386 -378 386 -378 314 -378 c 0,25,26
 145 -378 145 -378 68 -253 c 0,27,28
 32 -193 32 -193 32 -142 c 0,29,30
 32 -47 32 -47 123 37 c 0,31,32
 177 87 177 87 213 92 c 0,33,34
 215 93 215 93 217 93 c 0,35,36
 234 93 234 93 234 77 c 0,37,38
 234 59 234 59 212 31 c 0,39,40
 187 1 187 1 187 -30 c 0,41,42
 187 -100 187 -100 250 -163 c 0,43,44
 323 -235 323 -235 426 -235 c 0,45,46
 570 -235 570 -235 654 -125 c 0,47,48
 721 -35 721 -35 721 93 c 0,49,50
 721 229 721 229 642 307 c 0,51,52
 581 368 581 368 491 368 c 0,53,54
 373 368 373 368 217 278 c 1,55,-1
 -8 139 l 1,56,57
 -204 27 -204 27 -377 19 c 1,58,-1
 -393 19 l 1,0,-1
EndSplineSet
Validated: 1
EndChar

StartChar: cent
Encoding: 162 162 123
Width: 1202
Flags: W
LayerCount: 2
Fore
SplineSet
-154 670 m 1,0,1
 -164 677 -164 677 -164 685 c 0,2,3
 -164 724 -164 724 -94 778 c 0,4,5
 -59 805 -59 805 -38 811 c 0,6,7
 -30 813 -30 813 56 813 c 0,8,9
 468 809 468 809 590 785 c 0,10,11
 676 769 676 769 750 721 c 0,12,13
 880 639 880 639 926 501 c 0,14,15
 943 448 943 448 943 394 c 0,16,17
 943 229 943 229 808 93 c 0,18,19
 698 -17 698 -17 556 -55 c 0,20,21
 505 -68 505 -68 459 -68 c 0,22,23
 302 -68 302 -68 201 32 c 1,24,25
 125 113 125 113 122 200 c 0,26,27
 122 261 122 261 158 311 c 0,28,29
 201 377 201 377 261 413 c 0,30,31
 285 428 285 428 302 429 c 0,32,33
 322 429 322 429 322 415 c 0,34,35
 322 395 322 395 302 371 c 0,36,37
 278 342 278 342 278 310 c 0,38,39
 278 237 278 237 346 169 c 0,40,41
 437 79 437 79 571 75 c 1,42,-1
 581 75 l 2,43,44
 787 75 787 75 787 283 c 0,45,46
 787 405 787 405 698 507 c 0,47,48
 610 608 610 608 474 640 c 0,49,50
 375 663 375 663 -8 669 c 2,51,-1
 -74 670 l 1,52,-1
 -154 670 l 1,0,1
EndSplineSet
Validated: 1
EndChar

StartChar: sterling
Encoding: 163 163 124
Width: 923
Flags: W
LayerCount: 2
Fore
SplineSet
-392 156 m 0,0,1
 -163 156 -163 156 -54 150 c 0,2,3
 -49 149 -49 149 -47 149 c 2,4,-1
 -39 149 l 1,5,-1
 -28 171 l 1,6,7
 121 453 121 453 318 588 c 0,8,9
 464 688 464 688 616 688 c 0,10,11
 715 688 715 688 765 602 c 0,12,13
 796 549 796 549 796 474 c 0,14,15
 796 360 796 360 706 245 c 0,16,17
 684 217 684 217 657 191 c 0,18,19
 510 47 510 47 271 14 c 0,20,21
 176 1 176 1 43 1 c 2,22,-1
 9 1 l 1,23,-1
 -6 -34 l 1,24,25
 -55 -168 -55 -168 -180 -460 c 2,26,-1
 -203 -512 l 2,27,28
 -453 -1077 -453 -1077 -732 -1292 c 0,29,30
 -887 -1410 -887 -1410 -1042 -1410 c 0,31,32
 -1212 -1410 -1212 -1410 -1310 -1285 c 0,33,34
 -1346 -1239 -1346 -1239 -1358 -1196 c 0,35,36
 -1365 -1169 -1365 -1169 -1365 -1139 c 0,37,38
 -1365 -1040 -1365 -1040 -1270 -953 c 0,39,40
 -1211 -902 -1211 -902 -1176 -896 c 0,41,42
 -1158 -896 -1158 -896 -1158 -913 c 0,43,44
 -1158 -934 -1158 -934 -1180 -958 c 0,45,46
 -1208 -995 -1208 -995 -1210 -1031 c 0,47,48
 -1210 -1108 -1210 -1108 -1141 -1178 c 0,49,50
 -1053 -1266 -1053 -1266 -921 -1267 c 0,51,52
 -776 -1267 -776 -1267 -674 -1142 c 0,53,54
 -452 -870 -452 -870 -230 -306 c 2,55,-1
 -123 -35 l 1,56,-1
 -105 3 l 2,57,58
 -105 9 -105 9 -480 13 c 0,59,60
 -509 13 -509 13 -525 13 c 0,61,62
 -551 13 -551 13 -574 13 c 0,63,64
 -651 13 -651 13 -656 19 c 0,65,66
 -658 21 -658 21 -658 28 c 0,67,68
 -658 66 -658 66 -590 120 c 0,69,70
 -564 141 -564 141 -546 148 c 0,71,72
 -529 155 -529 155 -498 156 c 0,73,74
 -487 156 -487 156 -452 156 c 0,75,76
 -426 156 -426 156 -392 156 c 0,0,1
640 367 m 0,77,78
 640 465 640 465 580 515 c 0,79,80
 545 544 545 544 497 544 c 0,81,82
 488 544 488 544 481 544 c 0,83,84
 329 544 329 544 212 395 c 0,85,86
 135 293 135 293 71 146 c 0,87,88
 71 145 71 145 130 145 c 0,89,90
 145 145 145 145 159 145 c 0,91,92
 523 145 523 145 599 236 c 0,93,94
 609 248 609 248 616 262 c 0,95,96
 640 309 640 309 640 367 c 0,77,78
EndSplineSet
Validated: 1
EndChar

StartChar: yen
Encoding: 165 165 125
Width: 1044
Flags: W
LayerCount: 2
Fore
SplineSet
151 154 m 1,0,1
 338 528 338 528 592 646 c 0,2,3
 685 689 685 689 784 694 c 0,4,5
 927 702 927 702 971 577 c 0,6,7
 986 534 986 534 986 485 c 0,8,9
 986 339 986 339 857 208 c 0,10,11
 720 67 720 67 511 28 c 0,12,13
 401 7 401 7 234 7 c 2,14,-1
 199 7 l 1,15,-1
 106 -224 l 2,16,17
 -97 -728 -97 -728 -276 -992 c 0,18,19
 -529 -1363 -529 -1363 -810 -1403 c 0,20,21
 -826 -1404 -826 -1404 -852 -1404 c 0,22,23
 -984 -1404 -984 -1404 -1080 -1321 c 0,24,25
 -1161 -1252 -1161 -1252 -1173 -1159 c 0,26,27
 -1175 -1147 -1175 -1147 -1175 -1134 c 0,28,29
 -1175 -1036 -1175 -1036 -1083 -949 c 0,30,31
 -1027 -897 -1027 -897 -989 -891 c 0,32,33
 -987 -890 -987 -890 -984 -890 c 0,34,35
 -967 -890 -967 -890 -967 -905 c 0,36,37
 -967 -927 -967 -927 -989 -951 c 1,38,39
 -1017 -991 -1017 -991 -1019 -1025 c 0,40,41
 -1019 -1102 -1019 -1102 -950 -1171 c 0,42,43
 -862 -1261 -862 -1261 -730 -1261 c 0,44,45
 -579 -1261 -579 -1261 -470 -1121 c 1,46,-1
 -440 -1080 l 2,47,48
 -322 -922 -322 -922 -222 -716 c 0,49,50
 -144 -555 -144 -555 -40 -300 c 2,51,-1
 76 -12 l 2,52,53
 84 6 84 6 84 9 c 0,54,55
 84 13 84 13 -348 18 c 2,56,-1
 -416 19 l 1,57,58
 -426 26 -426 26 -426 35 c 0,59,60
 -426 60 -426 60 -386 102 c 0,61,62
 -342 149 -342 149 -290 162 c 1,63,-1
 -176 161 l 2,64,65
 -50 159 -50 159 -15 159 c 2,66,-1
 151 154 l 1,0,1
261 152 m 2,67,-1
 347 151 l 2,68,69
 660 151 660 151 764 218 c 0,70,71
 776 225 776 225 784 234 c 0,72,73
 825 275 825 275 830 362 c 1,74,-1
 830 372 l 2,75,76
 830 468 830 468 772 519 c 0,77,78
 736 550 736 550 687 550 c 0,79,80
 679 550 679 550 672 550 c 0,81,82
 525 550 525 550 413 415 c 0,83,84
 348 335 348 335 281 196 c 0,85,86
 261 154 261 154 261 152 c 2,67,-1
EndSplineSet
Validated: 33
EndChar

StartChar: brokenbar
Encoding: 166 166 126
Width: 2027
Flags: W
LayerCount: 2
Fore
SplineSet
409 906 m 0,0,1
 496 906 496 906 663 883 c 0,2,3
 802 864 802 864 909 864 c 0,4,5
 983 864 983 864 1085 873 c 1,6,-1
 1102 922 l 2,7,8
 1218 1264 1218 1264 1280 1419 c 0,9,10
 1591 2198 1591 2198 2021 2561 c 0,11,12
 2070 2603 2070 2603 2104 2605 c 0,13,14
 2120 2605 2120 2605 2120 2591 c 0,15,16
 2120 2562 2120 2562 2080 2522 c 2,17,-1
 1984 2430 l 1,18,19
 1879 2323 1879 2323 1777 2172 c 0,20,21
 1646 1978 1646 1978 1553 1770 c 0,22,23
 1433 1505 1433 1505 1233 915 c 1,24,-1
 1137 639 l 2,25,26
 1121 598 1121 598 1121 595 c 2,27,-1
 1121 594 l 2,28,29
 1123 594 1123 594 1184 650 c 0,30,31
 1446 888 1446 888 1635 888 c 0,32,33
 1765 888 1765 888 1852 794 c 0,34,35
 1940 700 1940 700 1940 553 c 0,36,37
 1940 398 1940 398 1816 237 c 0,38,39
 1706 96 1706 96 1561 26 c 0,40,41
 1512 3 1512 3 1465 -8 c 0,42,43
 1435 -15 1435 -15 1391 -16 c 0,44,45
 1240 -16 1240 -16 1230 77 c 1,46,-1
 1230 89 l 2,47,48
 1230 156 1230 156 1291 197 c 0,49,50
 1327 221 1327 221 1364 221 c 0,51,52
 1412 221 1412 221 1446 187 c 0,53,54
 1474 159 1474 159 1488 152 c 0,55,56
 1506 144 1506 144 1530 144 c 0,57,58
 1681 144 1681 144 1739 285 c 0,59,60
 1766 349 1766 349 1766 423 c 0,61,62
 1766 568 1766 568 1666 658 c 0,63,64
 1604 715 1604 715 1528 726 c 0,65,66
 1516 728 1516 728 1493 728 c 0,67,68
 1394 728 1394 728 1278 638 c 2,69,-1
 1233 602 l 1,70,71
 1115 501 1115 501 1048 374 c 0,72,73
 1024 328 1024 328 949 149 c 0,74,75
 853 -80 853 -80 736 -285 c 0,76,77
 422 -833 422 -833 -106 -1394 c 2,78,-1
 -157 -1448 l 2,79,80
 -215 -1511 -215 -1511 -399 -1689 c 2,81,-1
 -747 -2016 l 1,82,83
 -829 -2086 -829 -2086 -853 -2097 c 0,84,85
 -866 -2102 -866 -2102 -879 -2102 c 0,86,87
 -882 -2102 -882 -2102 -884 -2102 c 0,88,89
 -892 -2102 -892 -2102 -893 -2090 c 0,90,91
 -894 -2061 -894 -2061 -835 -2003 c 2,92,-1
 -553 -1742 l 2,93,94
 -517 -1706 -517 -1706 -490 -1682 c 2,95,-1
 -255 -1447 l 2,96,97
 -137 -1329 -137 -1329 48 -1112 c 0,98,99
 150 -991 150 -991 231 -886 c 0,100,101
 560 -455 560 -455 757 -13 c 0,102,103
 803 91 803 91 843 197 c 0,104,105
 856 229 856 229 856 230 c 1,106,107
 854 230 854 230 837 214 c 0,108,109
 593 -5 593 -5 408 -16 c 0,110,111
 399 -16 399 -16 391 -16 c 0,112,113
 269 -16 269 -16 184 66 c 128,-1,114
 99 148 99 148 99 272 c 0,115,116
 99 376 99 376 177 504 c 0,117,118
 264 644 264 644 412 755 c 1,119,120
 412 760 412 760 321 762 c 2,121,-1
 289 762 l 2,122,123
 59 762 59 762 -89 660 c 1,124,-1
 -175 597 l 2,125,126
 -196 584 -196 584 -216 582 c 0,127,128
 -233 582 -233 582 -233 598 c 0,129,130
 -233 629 -233 629 -163 693 c 0,131,132
 -39 806 -39 806 140 864 c 0,133,134
 222 890 222 890 305 900 c 0,135,136
 352 906 352 906 409 906 c 0,0,1
1039 738 m 1,137,138
 924 723 924 723 795 721 c 0,139,140
 745 721 745 721 626 730 c 0,141,142
 610 731 610 731 599 731 c 0,143,144
 464 731 464 731 366 624 c 0,145,146
 285 535 285 535 275 427 c 0,147,148
 274 415 274 415 274 403 c 0,149,150
 274 283 274 283 364 207 c 0,151,152
 438 144 438 144 536 144 c 0,153,154
 614 144 614 144 714 206 c 0,155,156
 881 311 881 311 960 513 c 1,157,-1
 1039 738 l 1,137,138
EndSplineSet
Validated: 33
EndChar

StartChar: section
Encoding: 167 167 127
Width: 2027
Flags: W
LayerCount: 2
Fore
SplineSet
267 446 m 0,0,1
 267 312 267 312 353 225 c 0,2,3
 432 144 432 144 548 144 c 128,-1,4
 664 144 664 144 802 274 c 0,5,6
 830 301 830 301 850 325 c 0,7,8
 902 387 902 387 933 455 c 0,9,10
 973 541 973 541 1084 869 c 0,11,12
 1204 1221 1204 1221 1213 1245 c 0,13,14
 1431 1847 1431 1847 1707 2218 c 0,15,16
 1794 2335 1794 2335 1888 2433 c 0,17,18
 2053 2605 2053 2605 2104 2605 c 0,19,20
 2120 2605 2120 2605 2120 2591 c 0,21,22
 2120 2561 2120 2561 2048 2490 c 0,23,24
 1972 2417 1972 2417 1960 2404 c 0,25,26
 1675 2095 1675 2095 1464 1559 c 0,27,28
 1393 1385 1393 1385 1272 1029 c 2,29,-1
 1137 639 l 2,30,31
 1121 598 1121 598 1121 595 c 2,32,-1
 1121 594 l 2,33,34
 1123 594 1123 594 1184 650 c 0,35,36
 1446 888 1446 888 1635 888 c 0,37,38
 1765 888 1765 888 1852 794 c 0,39,40
 1940 700 1940 700 1940 553 c 0,41,42
 1940 398 1940 398 1816 237 c 0,43,44
 1706 96 1706 96 1561 26 c 0,45,46
 1512 3 1512 3 1465 -8 c 0,47,48
 1435 -15 1435 -15 1391 -16 c 0,49,50
 1240 -16 1240 -16 1230 77 c 1,51,-1
 1230 89 l 2,52,53
 1230 156 1230 156 1291 197 c 0,54,55
 1327 221 1327 221 1364 221 c 0,56,57
 1412 221 1412 221 1446 187 c 0,58,59
 1474 159 1474 159 1488 152 c 0,60,61
 1506 144 1506 144 1530 144 c 0,62,63
 1681 144 1681 144 1739 285 c 0,64,65
 1766 349 1766 349 1766 423 c 0,66,67
 1766 568 1766 568 1666 658 c 0,68,69
 1604 715 1604 715 1528 726 c 0,70,71
 1516 728 1516 728 1493 728 c 0,72,73
 1394 728 1394 728 1278 638 c 2,74,-1
 1233 602 l 1,75,76
 1115 501 1115 501 1048 374 c 0,77,78
 1024 328 1024 328 949 149 c 0,79,80
 853 -80 853 -80 736 -285 c 0,81,82
 422 -833 422 -833 -106 -1394 c 2,83,-1
 -157 -1448 l 2,84,85
 -215 -1511 -215 -1511 -399 -1689 c 2,86,-1
 -747 -2016 l 1,87,88
 -829 -2086 -829 -2086 -853 -2097 c 0,89,90
 -866 -2102 -866 -2102 -879 -2102 c 0,91,92
 -882 -2102 -882 -2102 -884 -2102 c 0,93,94
 -892 -2102 -892 -2102 -893 -2090 c 0,95,96
 -894 -2061 -894 -2061 -835 -2003 c 2,97,-1
 -553 -1742 l 2,98,99
 -517 -1706 -517 -1706 -490 -1682 c 2,100,-1
 -255 -1447 l 2,101,102
 -137 -1329 -137 -1329 48 -1112 c 0,103,104
 150 -991 150 -991 231 -886 c 0,105,106
 619 -378 619 -378 815 123 c 1,107,-1
 854 226 l 1,108,-1
 752 141 l 1,109,110
 568 -3 568 -3 423 -15 c 0,111,112
 414 -16 414 -16 398 -16 c 0,113,114
 265 -16 265 -16 177 82 c 0,115,116
 93 176 93 176 93 312 c 0,117,118
 93 492 93 492 233 659 c 0,119,120
 345 793 345 793 492 855 c 0,121,122
 572 888 572 888 640 888 c 0,123,124
 647 888 647 888 655 888 c 0,125,126
 775 888 775 888 800 809 c 0,127,128
 804 793 804 793 804 776 c 0,129,130
 804 706 804 706 743 666 c 0,131,132
 707 642 707 642 669 642 c 0,133,134
 627 642 627 642 587 682 c 0,135,136
 555 716 555 716 541 722 c 0,137,138
 528 728 528 728 514 728 c 0,139,140
 509 728 509 728 501 728 c 0,141,142
 346 728 346 728 290 581 c 0,143,144
 267 519 267 519 267 446 c 0,0,1
EndSplineSet
Validated: 33
EndChar

StartChar: dieresis
Encoding: 168 168 128
Width: 0
Flags: W
LayerCount: 2
Fore
SplineSet
-438 -557 m 0,0,1
 -438 -643 -438 -643 -515 -730 c 0,2,3
 -596 -822 -596 -822 -698 -840 c 0,4,5
 -717 -843 -717 -843 -737 -843 c 0,6,7
 -813 -843 -813 -843 -867 -788 c 0,8,9
 -876 -780 -876 -780 -883 -770 c 0,10,11
 -919 -722 -919 -722 -919 -660 c 0,12,13
 -919 -539 -919 -539 -795 -445 c 0,14,15
 -720 -388 -720 -388 -657 -376 c 1,16,-1
 -629 -373 l 1,17,18
 -528 -373 -528 -373 -473 -447 c 0,19,20
 -438 -495 -438 -495 -438 -557 c 0,0,1
-571 -659 m 0,21,22
 -571 -617 -571 -617 -601 -570 c 0,23,24
 -648 -496 -648 -496 -736 -496 c 0,25,26
 -748 -496 -748 -496 -753 -497 c 0,27,28
 -783 -497 -783 -497 -785 -546 c 0,29,30
 -785 -551 -785 -551 -785 -557 c 0,31,32
 -785 -605 -785 -605 -752 -653 c 0,33,34
 -707 -721 -707 -721 -623 -721 c 0,35,36
 -585 -721 -585 -721 -580 -709 c 0,37,38
 -572 -689 -572 -689 -571 -659 c 0,21,22
EndSplineSet
Validated: 1
EndChar

StartChar: copyright
Encoding: 169 169 129
Width: 0
Flags: W
LayerCount: 2
Fore
SplineSet
-317 -557 m 0,0,1
 -317 -639 -317 -639 -391 -726 c 0,2,3
 -472 -820 -472 -820 -574 -839 c 0,4,5
 -595 -843 -595 -843 -616 -843 c 0,6,7
 -692 -843 -692 -843 -746 -788 c 0,8,9
 -755 -780 -755 -780 -762 -770 c 0,10,11
 -798 -722 -798 -722 -798 -660 c 0,12,13
 -798 -538 -798 -538 -674 -444 c 0,14,15
 -600 -388 -600 -388 -536 -376 c 1,16,-1
 -509 -373 l 1,17,18
 -407 -373 -407 -373 -352 -448 c 0,19,20
 -317 -496 -317 -496 -317 -557 c 0,0,1
-665 -558 m 0,21,22
 -665 -605 -665 -605 -632 -653 c 0,23,24
 -586 -721 -586 -721 -502 -721 c 0,25,26
 -466 -721 -466 -721 -461 -714 c 0,27,28
 -460 -712 -460 -712 -455 -697 c 0,29,30
 -451 -684 -451 -684 -451 -659 c 0,31,32
 -451 -610 -451 -610 -482 -562 c 0,33,34
 -527 -496 -527 -496 -615 -496 c 0,35,36
 -627 -496 -627 -496 -632 -497 c 0,37,38
 -665 -497 -665 -497 -665 -558 c 0,21,22
EndSplineSet
Validated: 1
EndChar

StartChar: ordfeminine
Encoding: 170 170 130
Width: 0
Flags: W
LayerCount: 2
Fore
SplineSet
-912 1470 m 0,0,1
 -952 1470 -952 1470 -966 1506 c 0,2,3
 -970 1516 -970 1516 -970 1529 c 0,4,5
 -970 1577 -970 1577 -876 1653 c 0,6,7
 -848 1677 -848 1677 -845 1679 c 0,8,9
 -756 1756 -756 1756 -718 1799 c 0,10,11
 -692 1827 -692 1827 -683 1832 c 0,12,13
 -676 1835 -676 1835 -668 1835 c 0,14,15
 -644 1828 -644 1828 -640 1804 c 1,16,17
 -640 1766 -640 1766 -725 1646 c 0,18,19
 -816 1518 -816 1518 -875 1481 c 0,20,21
 -885 1474 -885 1474 -893 1472 c 0,22,23
 -900 1470 -900 1470 -912 1470 c 0,0,1
-447 1378 m 0,24,25
 -506 1378 -506 1378 -539 1471 c 0,26,27
 -563 1538 -563 1538 -563 1626 c 0,28,29
 -563 1827 -563 1827 -514 1827 c 0,30,31
 -490 1827 -490 1827 -482 1794 c 2,32,-1
 -460 1658 l 2,33,34
 -443 1576 -443 1576 -406 1498 c 0,35,36
 -389 1463 -389 1463 -389 1440 c 0,37,38
 -389 1399 -389 1399 -422 1383 c 0,39,40
 -434 1378 -434 1378 -447 1378 c 0,24,25
-728 1244 m 0,41,42
 -783 1240 -783 1240 -797 1301 c 0,43,44
 -800 1314 -800 1314 -800 1328 c 0,45,46
 -800 1385 -800 1385 -676 1648 c 0,47,48
 -652 1698 -652 1698 -649 1702 c 0,49,50
 -636 1715 -636 1715 -623 1715 c 0,51,52
 -603 1715 -603 1715 -596 1695 c 0,53,54
 -593 1688 -593 1688 -594 1681 c 0,55,56
 -629 1387 -629 1387 -654 1315 c 0,57,58
 -675 1254 -675 1254 -715 1246 c 0,59,60
 -721 1244 -721 1244 -728 1244 c 0,41,42
EndSplineSet
Validated: 33
EndChar

StartChar: guillemotleft
Encoding: 171 171 131
Width: 870
Flags: W
LayerCount: 2
Fore
SplineSet
17 1053 m 0,0,1
 1 1053 1 1053 0 1068 c 0,2,3
 0 1091 0 1091 41 1135 c 0,4,5
 74 1170 74 1170 83 1186 c 0,6,7
 129 1264 129 1264 159 1427 c 0,8,9
 175 1514 175 1514 185 1531 c 0,10,11
 218 1587 218 1587 282 1627 c 0,12,13
 314 1648 314 1648 332 1648 c 0,14,15
 348 1648 348 1648 348 1634 c 0,16,17
 348 1558 348 1558 307 1428 c 0,18,19
 262 1284 262 1284 193 1194 c 0,20,21
 123 1103 123 1103 54 1066 c 0,22,23
 32 1054 32 1054 17 1053 c 0,0,1
279 1053 m 0,24,25
 262 1053 262 1053 261 1068 c 0,26,27
 261 1090 261 1090 317 1152 c 0,28,29
 339 1177 339 1177 345 1186 c 0,30,31
 392 1267 392 1267 422 1432 c 0,32,33
 437 1516 437 1516 446 1531 c 0,34,35
 479 1587 479 1587 543 1627 c 0,36,37
 575 1648 575 1648 593 1648 c 0,38,39
 609 1648 609 1648 609 1634 c 0,40,41
 609 1563 609 1563 559 1405 c 0,42,43
 536 1330 536 1330 517 1293 c 0,44,45
 454 1172 454 1172 359 1096 c 0,46,47
 309 1055 309 1055 279 1053 c 0,24,25
EndSplineSet
Validated: 1
EndChar

StartChar: logicalnot
Encoding: 172 172 132
Width: 870
Flags: W
LayerCount: 2
Fore
SplineSet
343 707 m 0,0,1
 392 707 392 707 518 684 c 0,2,3
 595 671 595 671 640 671 c 0,4,5
 713 671 713 671 747 701 c 0,6,7
 768 720 768 720 781 722 c 0,8,9
 787 724 787 724 795 724 c 0,10,11
 807 724 807 724 807 713 c 0,12,13
 807 692 807 692 763 648 c 0,14,15
 674 560 674 560 557 549 c 0,16,17
 543 548 543 548 528 548 c 0,18,19
 479 548 479 548 350 571 c 0,20,21
 276 584 276 584 235 584 c 2,22,-1
 219 584 l 2,23,24
 163 584 163 584 114 549 c 0,25,26
 88 531 88 531 75 531 c 0,27,28
 63 531 63 531 63 542 c 0,29,30
 63 565 63 565 109 609 c 0,31,32
 198 696 198 696 316 706 c 0,33,34
 330 707 330 707 343 707 c 0,0,1
470 357 m 0,35,36
 533 357 533 357 583 393 c 0,37,38
 608 411 608 411 621 411 c 0,39,40
 632 411 632 411 632 400 c 0,41,42
 632 377 632 377 587 333 c 0,43,44
 498 246 498 246 381 236 c 0,45,46
 367 235 367 235 354 235 c 0,47,48
 305 235 305 235 181 257 c 0,49,50
 103 271 103 271 56 271 c 0,51,52
 -16 271 -16 271 -53 240 c 1,53,54
 -84 220 -84 220 -99 218 c 0,55,56
 -111 218 -111 218 -111 229 c 0,57,58
 -111 252 -111 252 -65 296 c 0,59,60
 24 383 24 383 142 393 c 0,61,62
 156 394 156 394 169 394 c 0,63,64
 216 394 216 394 345 371 c 0,65,66
 424 357 424 357 470 357 c 0,35,36
EndSplineSet
Validated: 1
EndChar

StartChar: sfthyphen
Encoding: 173 173 133
Width: 0
Flags: W
LayerCount: 2
Fore
SplineSet
-564 1470 m 0,0,1
 -604 1470 -604 1470 -618 1506 c 0,2,3
 -622 1516 -622 1516 -622 1529 c 0,4,5
 -622 1567 -622 1567 -549 1633 c 2,6,-1
 -426 1742 l 2,7,8
 -395 1772 -395 1772 -370 1799 c 0,9,10
 -344 1828 -344 1828 -335 1832 c 0,11,12
 -328 1835 -328 1835 -320 1835 c 0,13,14
 -296 1828 -296 1828 -292 1805 c 1,15,16
 -292 1765 -292 1765 -393 1625 c 0,17,18
 -454 1542 -454 1542 -492 1506 c 0,19,20
 -528 1470 -528 1470 -564 1470 c 0,0,1
-215 1627 m 0,21,22
 -215 1827 -215 1827 -166 1827 c 0,23,24
 -141 1827 -141 1827 -135 1801 c 2,25,-1
 -119 1684 l 1,26,27
 -102 1594 -102 1594 -57 1498 c 0,28,29
 -41 1460 -41 1460 -41 1442 c 0,30,31
 -41 1399 -41 1399 -75 1383 c 0,32,33
 -86 1378 -86 1378 -99 1378 c 0,34,35
 -158 1378 -158 1378 -191 1470 c 0,36,37
 -215 1537 -215 1537 -215 1627 c 0,21,22
-380 1244 m 0,38,39
 -425 1241 -425 1241 -444 1285 c 0,40,41
 -451 1302 -451 1302 -451 1324 c 0,42,43
 -451 1378 -451 1378 -352 1592 c 2,44,-1
 -322 1658 l 2,45,46
 -307 1694 -307 1694 -300 1702 c 0,47,48
 -289 1715 -289 1715 -275 1715 c 0,49,50
 -253 1715 -253 1715 -247 1694 c 0,51,52
 -245 1688 -245 1688 -246 1681 c 0,53,54
 -281 1387 -281 1387 -306 1316 c 0,55,56
 -327 1255 -327 1255 -367 1246 c 0,57,58
 -373 1245 -373 1245 -380 1244 c 0,38,39
EndSplineSet
Validated: 33
EndChar

StartChar: registered
Encoding: 174 174 134
Width: 1044
Flags: W
LayerCount: 2
Fore
SplineSet
122 327 m 0,0,1
 122 514 122 514 265 676 c 0,2,3
 380 807 380 807 532 862 c 0,4,5
 590 884 590 884 654 888 c 0,6,7
 658 888 658 888 669 888 c 0,8,9
 830 888 830 888 930 787 c 0,10,11
 1044 672 1044 672 1044 448 c 0,12,13
 1044 -165 1044 -165 553 -786 c 0,14,15
 371 -1017 371 -1017 123 -1243 c 0,16,17
 31 -1327 31 -1327 -2 -1338 c 0,18,19
 -12 -1341 -12 -1341 -20 -1341 c 0,20,21
 -34 -1341 -34 -1341 -34 -1326 c 0,22,23
 -34 -1299 -34 -1299 21 -1243 c 2,24,-1
 66 -1201 l 1,25,26
 736 -584 736 -584 848 63 c 0,27,28
 870 189 870 189 870 316 c 0,29,30
 870 532 870 532 753 645 c 0,31,32
 666 728 666 728 537 728 c 0,33,34
 399 728 399 728 352 658 c 0,35,36
 298 573 298 573 297 461 c 0,37,38
 297 342 297 342 370 252 c 0,39,40
 439 166 439 166 548 148 c 0,41,42
 571 144 571 144 596 144 c 0,43,44
 661 144 661 144 722 178 c 0,45,46
 753 195 753 195 769 195 c 0,47,48
 784 195 784 195 784 182 c 0,49,50
 784 155 784 155 730 104 c 0,51,52
 635 12 635 12 514 -10 c 0,53,54
 483 -16 483 -16 452 -16 c 0,55,56
 313 -16 313 -16 218 82 c 0,57,58
 122 182 122 182 122 327 c 0,0,1
EndSplineSet
Validated: 1
EndChar

StartChar: macron
Encoding: 175 175 135
Width: 0
Flags: W
LayerCount: 2
Fore
SplineSet
-425 1470 m 0,0,1
 -470 1470 -470 1470 -481 1515 c 0,2,3
 -483 1523 -483 1523 -483 1529 c 0,4,5
 -483 1567 -483 1567 -410 1633 c 2,6,-1
 -287 1742 l 2,7,8
 -256 1772 -256 1772 -231 1799 c 0,9,10
 -204 1828 -204 1828 -195 1832 c 0,11,12
 -188 1835 -188 1835 -181 1835 c 0,13,14
 -157 1835 -157 1835 -153 1812 c 0,15,16
 -152 1809 -152 1809 -152 1805 c 0,17,18
 -152 1764 -152 1764 -259 1619 c 0,19,20
 -317 1540 -317 1540 -352 1506 c 0,21,22
 -390 1470 -390 1470 -425 1470 c 0,0,1
-76 1627 m 0,23,24
 -76 1827 -76 1827 -27 1827 c 0,25,26
 -3 1827 -3 1827 6 1792 c 2,27,-1
 29 1655 l 2,28,29
 46 1574 46 1574 82 1498 c 0,30,31
 98 1464 98 1464 98 1442 c 0,32,33
 98 1397 98 1397 63 1382 c 0,34,35
 52 1378 52 1378 40 1378 c 0,36,37
 -19 1378 -19 1378 -52 1471 c 0,38,39
 -76 1539 -76 1539 -76 1627 c 0,23,24
-241 1244 m 0,40,41
 -286 1241 -286 1241 -305 1286 c 0,42,43
 -312 1303 -312 1303 -312 1324 c 0,44,45
 -312 1378 -312 1378 -213 1592 c 2,46,-1
 -183 1658 l 2,47,48
 -167 1694 -167 1694 -164 1698 c 0,49,50
 -152 1715 -152 1715 -136 1715 c 0,51,52
 -115 1715 -115 1715 -108 1694 c 0,53,54
 -106 1687 -106 1687 -107 1680 c 0,55,56
 -142 1385 -142 1385 -168 1313 c 0,57,58
 -189 1254 -189 1254 -229 1246 c 0,59,60
 -235 1244 -235 1244 -241 1244 c 0,40,41
EndSplineSet
Validated: 33
EndChar

StartChar: degree
Encoding: 176 176 136
Width: 0
Flags: W
LayerCount: 2
Fore
SplineSet
-483 431 m 0,0,1
 -390 431 -390 431 -335 474 c 1,2,3
 -298 497 -298 497 -287 499 c 2,4,-1
 -283 499 l 2,5,6
 -273 499 -273 499 -273 490 c 0,7,8
 -273 467 -273 467 -320 421 c 0,9,10
 -414 330 -414 330 -539 312 c 0,11,12
 -564 309 -564 309 -589 309 c 0,13,14
 -663 309 -663 309 -812 336 c 0,15,16
 -919 356 -919 356 -982 356 c 0,17,18
 -1069 356 -1069 356 -1130 312 c 0,19,20
 -1162 289 -1162 289 -1178 288 c 0,21,22
 -1190 288 -1190 288 -1190 298 c 0,23,24
 -1190 324 -1190 324 -1139 372 c 0,25,26
 -1044 460 -1044 460 -914 476 c 0,27,28
 -891 478 -891 478 -867 478 c 0,29,30
 -796 478 -796 478 -655 452 c 0,31,32
 -548 431 -548 431 -483 431 c 0,0,1
EndSplineSet
Validated: 1
EndChar

StartChar: plusminus
Encoding: 177 177 137
Width: 696
Flags: W
LayerCount: 2
Fore
SplineSet
258 1108 m 0,0,1
 258 1306 258 1306 400 1490 c 0,2,3
 478 1591 478 1591 553 1634 c 0,4,5
 578 1648 578 1648 592 1648 c 0,6,7
 608 1648 608 1648 608 1634 c 0,8,9
 608 1611 608 1611 569 1569 c 0,10,11
 509 1504 509 1504 485 1461 c 0,12,13
 432 1368 432 1368 432 1239 c 1,14,-1
 434 1199 l 2,15,16
 434 1172 434 1172 384 1120 c 0,17,18
 323 1056 323 1056 278 1053 c 0,19,20
 263 1052 263 1052 260 1064 c 0,21,22
 258 1072 258 1072 258 1108 c 0,0,1
EndSplineSet
Validated: 1
EndChar

StartChar: twosuperior
Encoding: 178 178 138
Width: 696
Flags: W
LayerCount: 2
Fore
SplineSet
350 1459 m 2,0,-1
 348 1503 l 2,1,2
 348 1530 348 1530 402 1584 c 0,3,4
 466 1648 466 1648 507 1648 c 0,5,6
 520 1648 520 1648 522 1636 c 0,7,8
 524 1627 524 1627 524 1593 c 0,9,10
 524 1393 524 1393 384 1211 c 0,11,12
 306 1110 306 1110 230 1067 c 0,13,14
 204 1053 204 1053 189 1053 c 128,-1,15
 174 1053 174 1053 174 1066 c 0,16,17
 174 1091 174 1091 241 1164 c 0,18,19
 269 1195 269 1195 276 1205 c 0,20,21
 345 1309 345 1309 350 1444 c 0,22,23
 350 1451 350 1451 350 1459 c 2,0,-1
EndSplineSet
Validated: 1
EndChar

StartChar: threesuperior
Encoding: 179 179 139
Width: 870
Flags: W
LayerCount: 2
Fore
SplineSet
-742 -1266 m 1,0,1
 -671 -1237 -671 -1237 -580 -1235 c 0,2,3
 -496 -1235 -496 -1235 -333 -1273 c 0,4,5
 -169 -1311 -169 -1311 -86 -1311 c 0,6,7
 50 -1311 50 -1311 168 -1221 c 2,8,-1
 249 -1157 l 2,9,10
 278 -1138 278 -1138 299 -1138 c 0,11,12
 314 -1138 314 -1138 314 -1153 c 0,13,14
 314 -1187 314 -1187 228 -1264 c 0,15,16
 102 -1377 102 -1377 -45 -1435 c 0,17,18
 -139 -1471 -139 -1471 -218 -1471 c 0,19,20
 -320 -1471 -320 -1471 -488 -1432 c 0,21,22
 -641 -1397 -641 -1397 -716 -1395 c 2,23,-1
 -726 -1395 l 2,24,25
 -813 -1395 -813 -1395 -881 -1442 c 0,26,27
 -919 -1468 -919 -1468 -932 -1470 c 0,28,29
 -936 -1471 -936 -1471 -939 -1471 c 0,30,31
 -941 -1471 -941 -1471 -942 -1471 c 0,32,33
 -956 -1471 -956 -1471 -956 -1457 c 0,34,35
 -956 -1445 -956 -1445 -938 -1413 c 0,36,37
 -762 -1091 -762 -1091 -461 -762 c 1,38,-1
 -19 -293 l 2,39,40
 268 16 268 16 374 192 c 0,41,42
 471 354 471 354 471 498 c 0,43,44
 471 608 471 608 389 685 c 0,45,46
 306 764 306 764 183 764 c 0,47,48
 37 764 37 764 -45 719 c 0,49,50
 -70 706 -70 706 -79 691 c 0,51,52
 -118 630 -118 630 -183 591 c 0,53,54
 -211 574 -211 574 -226 574 c 0,55,56
 -243 574 -243 574 -243 589 c 0,57,58
 -243 625 -243 625 -166 706 c 0,59,60
 -59 820 -59 820 58 870 c 0,61,62
 180 924 180 924 328 924 c 0,63,64
 473 924 473 924 564 832 c 0,65,66
 644 750 644 750 644 627 c 0,67,68
 644 383 644 383 372 43 c 1,69,-1
 302 -41 l 2,70,71
 174 -195 174 -195 -83 -465 c 2,72,-1
 -294 -689 l 1,73,74
 -566 -985 -566 -985 -711 -1215 c 1,75,-1
 -742 -1266 l 1,0,1
EndSplineSet
Validated: 1
EndChar

StartChar: acute
Encoding: 180 180 140
Width: 0
Flags: W
LayerCount: 2
Fore
SplineSet
-1213 -163 m 0,0,1
 -1246 -163 -1246 -163 -1256 -134 c 0,2,3
 -1259 -125 -1259 -125 -1259 -114 c 0,4,5
 -1259 -75 -1259 -75 -1171 46 c 2,6,-1
 -1079 171 l 2,7,8
 -1058 200 -1058 200 -1047 204 c 0,9,10
 -1043 206 -1043 206 -1039 206 c 0,11,12
 -1019 206 -1019 206 -1017 180 c 0,13,14
 -1017 173 -1017 173 -1035 132 c 2,15,-1
 -1108 -30 l 2,16,17
 -1153 -125 -1153 -125 -1175 -146 c 0,18,19
 -1192 -163 -1192 -163 -1213 -163 c 0,0,1
-899 -163 m 0,20,21
 -942 -163 -942 -163 -946 -114 c 0,22,23
 -948 -77 -948 -77 -864 38 c 2,24,-1
 -766 171 l 2,25,26
 -744 200 -744 200 -734 204 c 0,27,28
 -730 206 -730 206 -725 206 c 0,29,30
 -704 206 -704 206 -704 180 c 0,31,32
 -704 166 -704 166 -779 3 c 0,33,34
 -830 -108 -830 -108 -850 -133 c 0,35,36
 -872 -163 -872 -163 -899 -163 c 0,20,21
EndSplineSet
Validated: 33
EndChar

StartChar: mu
Encoding: 181 181 141
Width: 0
Flags: W
LayerCount: 2
Fore
SplineSet
-302 1470 m 0,0,1
 -347 1470 -347 1470 -358 1515 c 0,2,3
 -360 1523 -360 1523 -360 1529 c 0,4,5
 -360 1567 -360 1567 -287 1633 c 2,6,-1
 -164 1742 l 2,7,8
 -133 1772 -133 1772 -108 1799 c 0,9,10
 -81 1828 -81 1828 -71 1832 c 0,11,12
 -65 1835 -65 1835 -58 1835 c 0,13,14
 -34 1828 -34 1828 -30 1805 c 1,15,16
 -30 1762 -30 1762 -136 1618 c 0,17,18
 -195 1540 -195 1540 -230 1506 c 0,19,20
 -266 1470 -266 1470 -302 1470 c 0,0,1
47 1627 m 0,21,22
 47 1827 47 1827 96 1827 c 0,23,24
 120 1827 120 1827 129 1792 c 2,25,-1
 152 1655 l 2,26,27
 169 1574 169 1574 205 1498 c 0,28,29
 221 1464 221 1464 221 1442 c 0,30,31
 221 1397 221 1397 186 1382 c 0,32,33
 175 1378 175 1378 163 1378 c 0,34,35
 104 1378 104 1378 71 1471 c 0,36,37
 47 1539 47 1539 47 1627 c 0,21,22
-118 1244 m 0,38,39
 -163 1241 -163 1241 -182 1286 c 0,40,41
 -189 1303 -189 1303 -189 1324 c 0,42,43
 -189 1378 -189 1378 -90 1592 c 2,44,-1
 -60 1658 l 2,45,46
 -44 1694 -44 1694 -41 1698 c 0,47,48
 -29 1715 -29 1715 -13 1715 c 0,49,50
 9 1715 9 1715 15 1694 c 0,51,52
 17 1688 17 1688 16 1681 c 0,53,54
 -19 1387 -19 1387 -44 1316 c 0,55,56
 -65 1255 -65 1255 -105 1246 c 0,57,58
 -111 1245 -111 1245 -118 1244 c 0,38,39
EndSplineSet
Validated: 33
EndChar

StartChar: periodcentered
Encoding: 183 183 142
Width: 540
Flags: W
LayerCount: 2
Fore
SplineSet
160 436 m 0,0,1
 160 468 160 468 184 500 c 0,2,3
 212 537 212 537 260 537 c 0,4,5
 324 537 324 537 351 485 c 0,6,7
 362 463 362 463 362 436 c 0,8,9
 362 376 362 376 313 348 c 0,10,11
 290 336 290 336 261 336 c 0,12,13
 199 336 199 336 172 387 c 0,14,15
 160 410 160 410 160 436 c 0,0,1
EndSplineSet
Validated: 1
EndChar

StartChar: cedilla
Encoding: 184 184 143
Width: 0
Flags: W
LayerCount: 2
Fore
SplineSet
-487 475 m 0,0,1
 -394 475 -394 475 -332 520 c 0,2,3
 -300 542 -300 542 -285 543 c 0,4,5
 -273 543 -273 543 -273 534 c 0,6,7
 -273 511 -273 511 -317 466 c 0,8,9
 -409 373 -409 373 -544 356 c 0,10,11
 -568 353 -568 353 -594 353 c 0,12,13
 -665 353 -665 353 -809 380 c 0,14,15
 -917 400 -917 400 -982 400 c 0,16,17
 -1065 400 -1065 400 -1128 357 c 0,18,19
 -1163 333 -1163 333 -1179 332 c 0,20,21
 -1189 332 -1189 332 -1189 342 c 0,22,23
 -1189 367 -1189 367 -1140 414 c 0,24,25
 -1046 503 -1046 503 -918 520 c 0,26,27
 -893 523 -893 523 -867 523 c 0,28,29
 -818 523 -818 523 -627 492 c 0,30,31
 -525 475 -525 475 -487 475 c 0,0,1
EndSplineSet
Validated: 1
EndChar

StartChar: onesuperior
Encoding: 185 185 144
Width: 696
Flags: W
LayerCount: 2
Fore
SplineSet
88 197 m 2,0,1
 88 237 88 237 162 296 c 0,2,3
 220 342 220 342 246 342 c 0,4,5
 260 342 260 342 262 329 c 0,6,7
 264 320 264 320 264 288 c 0,8,9
 264 87 264 87 124 -95 c 0,10,11
 46 -196 46 -196 -31 -239 c 0,12,13
 -57 -253 -57 -253 -72 -253 c 0,14,15
 -86 -253 -86 -253 -86 -240 c 0,16,17
 -86 -216 -86 -216 -47 -173 c 0,18,19
 13 -109 13 -109 36 -69 c 0,20,21
 90 24 90 24 90 153 c 1,22,-1
 88 197 l 2,0,1
EndSplineSet
Validated: 1
EndChar

StartChar: ordmasculine
Encoding: 186 186 145
Width: 540
Flags: W
LayerCount: 2
Fore
SplineSet
72 174 m 0,0,1
 72 207 72 207 96 239 c 0,2,3
 125 276 125 276 172 276 c 0,4,5
 239 276 239 276 264 222 c 0,6,7
 274 201 274 201 274 175 c 0,8,9
 274 110 274 110 221 85 c 0,10,11
 199 74 199 74 173 74 c 0,12,13
 111 74 111 74 84 126 c 0,14,15
 72 148 72 148 72 174 c 0,0,1
EndSplineSet
Validated: 1
EndChar

StartChar: guillemotright
Encoding: 187 187 146
Width: 870
Flags: W
LayerCount: 2
Fore
SplineSet
-241 -201 m 0,0,1
 -216 -183 -216 -183 -189 -180 c 0,2,3
 -174 -180 -174 -180 -174 -194 c 0,4,5
 -174 -261 -174 -261 -225 -422 c 0,6,7
 -248 -498 -248 -498 -267 -535 c 0,8,9
 -323 -646 -323 -646 -416 -725 c 0,10,11
 -475 -775 -475 -775 -507 -775 c 0,12,13
 -522 -775 -522 -775 -522 -762 c 0,14,15
 -522 -760 -522 -760 -522 -759 c 0,16,17
 -522 -735 -522 -735 -500 -714 c 0,18,19
 -461 -677 -461 -677 -442 -644 c 0,20,21
 -388 -552 -388 -552 -354 -354 c 2,22,-1
 -347 -316 l 1,23,24
 -316 -247 -316 -247 -241 -201 c 0,0,1
-85 -314 m 1,25,26
 -60 -255 -60 -255 14 -206 c 0,27,28
 43 -183 43 -183 72 -180 c 0,29,30
 87 -180 87 -180 87 -194 c 0,31,32
 87 -259 87 -259 37 -418 c 0,33,34
 13 -497 13 -497 -6 -534 c 0,35,36
 -64 -649 -64 -649 -159 -728 c 0,37,38
 -216 -775 -216 -775 -247 -775 c 0,39,40
 -261 -775 -261 -775 -261 -762 c 0,41,42
 -261 -737 -261 -737 -215 -687 c 0,43,44
 -185 -655 -185 -655 -178 -642 c 0,45,46
 -118 -537 -118 -537 -85 -314 c 1,25,26
EndSplineSet
Validated: 1
EndChar

StartChar: onequarter
Encoding: 188 188 147
Width: 1044
Flags: W
LayerCount: 2
Fore
SplineSet
-174 675 m 0,0,1
 -174 703 -174 703 -126 755 c 0,2,3
 -28 861 -28 861 128 895 c 0,4,5
 170 903 170 903 214 906 c 0,6,7
 330 913 330 913 477 890 c 2,8,-1
 571 875 l 1,9,-1
 687 859 l 2,10,11
 866 833 866 833 946 833 c 0,12,13
 1033 833 1033 833 1082 861 c 0,14,15
 1103 873 1103 873 1117 873 c 128,-1,16
 1131 873 1131 873 1131 859 c 0,17,18
 1131 808 1131 808 1030 739 c 0,19,20
 971 698 971 698 932 687 c 0,21,22
 881 672 881 672 807 672 c 0,23,24
 723 672 723 672 511 703 c 2,25,-1
 438 713 l 2,26,27
 394 720 394 720 391 720 c 0,28,29
 389 720 389 720 389 708 c 0,30,31
 383 608 383 608 310 422 c 0,32,33
 240 241 240 241 157 129 c 0,34,35
 68 8 68 8 -1 -13 c 0,36,37
 -12 -16 -12 -16 -20 -16 c 0,38,39
 -36 -16 -36 -16 -36 -3 c 0,40,41
 -36 17 -36 17 15 78 c 0,42,43
 32 98 32 98 37 106 c 0,44,45
 123 234 123 234 183 435 c 0,46,47
 215 540 215 540 215 590 c 0,48,49
 215 689 215 689 154 729 c 0,50,51
 128 747 128 747 94 747 c 0,52,53
 -15 747 -15 747 -90 695 c 0,54,55
 -131 667 -131 667 -143 664 c 0,56,57
 -150 662 -150 662 -158 662 c 0,58,59
 -174 662 -174 662 -174 675 c 0,0,1
EndSplineSet
Validated: 33
EndChar

StartChar: onehalf
Encoding: 189 189 148
Width: 479
Flags: W
LayerCount: 2
Fore
SplineSet
-19 -16 m 0,0,1
 -35 -16 -35 -16 -35 -3 c 0,2,3
 -35 14 -35 14 -16 36 c 0,4,5
 43 101 43 101 93 217 c 0,6,7
 132 307 132 307 173 436 c 0,8,9
 395 1137 395 1137 451 1290 c 0,10,11
 485 1381 485 1381 533 1490 c 0,12,13
 738 1958 738 1958 1025 2272 c 0,14,15
 1214 2478 1214 2478 1276 2478 c 0,16,17
 1290 2478 1290 2478 1290 2465 c 0,18,19
 1290 2436 1290 2436 1222 2368 c 0,20,21
 1123 2270 1123 2270 1116 2263 c 2,22,-1
 1094 2238 l 2,23,24
 912 2030 912 2030 779 1761 c 0,25,26
 605 1409 605 1409 400 729 c 0,27,28
 271 302 271 302 167 145 c 0,29,30
 124 79 124 79 67 30 c 0,31,32
 12 -16 12 -16 -19 -16 c 0,0,1
EndSplineSet
Validated: 1
EndChar

StartChar: threequarters
Encoding: 190 190 149
Width: 870
Flags: W
LayerCount: 2
Fore
SplineSet
-244 588 m 0,0,1
 -244 623 -244 623 -159 700 c 0,2,3
 -31 817 -31 817 128 879 c 0,4,5
 241 924 241 924 339 924 c 0,6,7
 483 924 483 924 591 837 c 0,8,9
 708 743 708 743 713 598 c 0,10,11
 713 593 713 593 713 587 c 0,12,13
 713 403 713 403 552 239 c 0,14,15
 506 196 506 196 465 161 c 0,16,17
 465 160 465 160 468 160 c 0,18,19
 475 160 475 160 598 140 c 0,20,21
 682 126 682 126 730 126 c 0,22,23
 820 126 820 126 914 210 c 2,24,-1
 986 274 l 2,25,26
 993 280 993 280 1000 284 c 0,27,28
 1036 307 1036 307 1056 307 c 0,29,30
 1070 307 1070 307 1070 292 c 0,31,32
 1070 263 1070 263 1003 199 c 2,33,-1
 956 156 l 2,34,35
 812 27 812 27 708 -11 c 0,36,37
 646 -34 646 -34 585 -34 c 0,38,39
 533 -34 533 -34 400 -11 c 0,40,41
 308 4 308 4 247 4 c 0,42,43
 171 4 171 4 69 -24 c 0,44,45
 32 -34 32 -34 15 -34 c 0,46,47
 0 -34 0 -34 0 -20 c 0,48,49
 0 10 0 10 56 64 c 0,50,51
 91 98 91 98 125 115 c 0,52,53
 146 125 146 125 246 151 c 0,54,55
 389 186 389 186 453 243 c 0,56,57
 539 319 539 319 539 456 c 0,58,59
 539 617 539 617 388 708 c 0,60,61
 361 725 361 725 332 737 c 0,62,63
 264 764 264 764 189 764 c 0,64,65
 42 764 42 764 -86 667 c 2,66,-1
 -175 596 l 2,67,68
 -206 575 -206 575 -228 575 c 0,69,70
 -244 575 -244 575 -244 588 c 0,0,1
EndSplineSet
Validated: 1
EndChar

StartChar: questiondown
Encoding: 191 191 150
Width: 1566
Flags: W
LayerCount: 2
Fore
SplineSet
782 690 m 0,0,1
 810 690 810 690 847 683 c 0,2,3
 851 682 851 682 854 682 c 0,4,5
 856 682 856 682 985 964 c 0,6,7
 1130 1282 1130 1282 1190 1400 c 0,8,9
 1444 1901 1444 1901 1716 2200 c 0,10,11
 1921 2428 1921 2428 1985 2428 c 0,12,13
 2001 2428 2001 2428 2001 2415 c 0,14,15
 2001 2388 2001 2388 1955 2344 c 2,16,-1
 1851 2247 l 1,17,18
 1586 1984 1586 1984 1350 1483 c 2,19,-1
 975 686 l 1,20,-1
 948 632 l 1,21,22
 1022 558 1022 558 1104 408 c 0,23,24
 1175 278 1175 278 1202 241 c 0,25,26
 1274 142 1274 142 1369 129 c 0,27,28
 1386 127 1386 127 1404 127 c 0,29,30
 1503 127 1503 127 1612 214 c 2,31,-1
 1695 283 l 2,32,33
 1729 307 1729 307 1751 307 c 0,34,35
 1764 307 1764 307 1765 292 c 0,36,37
 1765 261 1765 261 1684 183 c 0,38,39
 1561 65 1561 65 1421 5 c 0,40,41
 1331 -34 1331 -34 1258 -34 c 0,42,43
 1126 -34 1126 -34 1029 97 c 0,44,45
 992 147 992 147 917 288 c 0,46,47
 884 349 884 349 863 384 c 2,48,-1
 835 423 l 2,49,50
 833 423 833 423 824 406 c 2,51,-1
 764 316 l 1,52,53
 521 -24 521 -24 310 -24 c 0,54,55
 232 -24 232 -24 193 51 c 0,56,57
 170 96 170 96 170 156 c 0,58,59
 170 288 170 288 282 429 c 0,60,61
 397 574 397 574 564 644 c 0,62,63
 673 690 673 690 782 690 c 0,0,1
760 493 m 0,64,65
 760 501 760 501 724 515 c 0,66,67
 683 530 683 530 635 530 c 0,68,69
 466 530 466 530 350 407 c 0,70,71
 258 311 258 311 243 189 c 0,72,73
 240 170 240 170 240 152 c 0,74,75
 240 50 240 50 312 46 c 0,76,77
 316 46 316 46 321 46 c 0,78,79
 521 55 521 55 733 440 c 1,80,-1
 755 481 l 2,81,82
 760 491 760 491 760 493 c 0,64,65
EndSplineSet
Validated: 1
EndChar

